<?xml version="1.0" standalone="no"?>
<!DOCTYPE svg PUBLIC "-//W3C//DTD SVG 20010904//EN"
 "http://www.w3.org/TR/2001/REC-SVG-20010904/DTD/svg10.dtd">
<svg version="1.0" xmlns="http://www.w3.org/2000/svg"
 width="1440.000000pt" height="751.000000pt" viewBox="0 0 1440.000000 751.000000"
 preserveAspectRatio="xMidYMid meet">

<g transform="translate(0.000000,751.000000) scale(0.100000,-0.100000)"
fill="#000000" stroke="none">
<path d="M0 7185 l0 -325 7200 0 7200 0 0 325 0 325 -7200 0 -7200 0 0 -325z
m861 20 c-20 -79 -30 -105 -42 -105 -14 0 -13 12 9 105 20 79 30 105 42 105
14 0 13 -13 -9 -105z m89 102 c0 -1 -4 -16 -9 -33 l-9 -32 38 5 c54 8 58 -12
24 -129 -3 -10 -12 -18 -21 -18 -11 0 -14 6 -9 23 14 51 18 95 8 101 -23 14
-43 -9 -59 -65 -9 -34 -22 -59 -30 -59 -18 0 -18 -5 28 173 6 21 16 37 24 37
8 0 15 -1 15 -3z m-181 -95 c6 -49 11 -94 11 -100 0 -22 -28 -12 -34 12 -5 20
-12 24 -41 24 -25 0 -40 -7 -54 -24 -10 -13 -26 -24 -34 -24 -11 0 2 29 46
100 37 59 69 100 78 100 13 0 19 -18 28 -88z m491 73 c0 -8 -7 -15 -15 -15 -8
0 -15 7 -15 15 0 8 7 15 15 15 8 0 15 -7 15 -15z m325 -14 c-4 -13 0 -21 12
-24 16 -4 16 -6 -3 -12 -15 -5 -24 -20 -32 -53 -6 -28 -7 -48 -1 -50 18 -7 9
-32 -11 -32 -28 0 -34 22 -20 77 8 33 8 49 1 51 -16 5 -13 22 3 22 7 0 16 9
19 20 3 11 13 20 22 20 12 0 15 -6 10 -19z m8955 -31 c0 -25 4 -30 25 -30 21
0 25 5 25 30 0 17 5 30 10 30 6 0 10 -27 10 -60 0 -33 -4 -60 -10 -60 -5 0
-10 12 -10 26 0 21 -4 25 -22 22 -15 -2 -24 -11 -26 -25 -7 -47 -22 -21 -22
37 0 33 4 60 10 60 6 0 10 -13 10 -30z m639 17 c16 -20 0 -30 -19 -12 -15 14
-19 14 -29 1 -11 -13 -7 -18 24 -30 39 -16 44 -40 14 -59 -21 -13 -69 -1 -69
18 0 19 7 19 26 0 15 -14 44 -10 44 7 0 5 -13 14 -29 19 -34 12 -46 35 -30 55
15 18 53 18 68 1z m41 3 c0 -5 -4 -10 -10 -10 -5 0 -10 5 -10 10 0 6 5 10 10
10 6 0 10 -4 10 -10z m551 -6 c18 -21 0 -48 -35 -52 -20 -3 -26 -9 -26 -28 0
-13 -4 -24 -10 -24 -6 0 -10 27 -10 60 l0 60 34 0 c18 0 39 -7 47 -16z m259 1
c0 -9 9 -15 25 -15 18 0 26 -7 31 -27 9 -35 -7 -57 -45 -61 l-31 -3 0 60 c0
34 4 61 10 61 6 0 10 -7 10 -15z m780 -26 c0 -22 -5 -49 -10 -60 -11 -20 -54
-26 -65 -8 -10 16 3 23 18 11 20 -17 27 -5 27 50 0 36 4 48 15 48 11 0 15 -11
15 -41z m210 31 c0 -5 -4 -10 -10 -10 -5 0 -10 5 -10 10 0 6 5 10 10 10 6 0
10 -4 10 -10z m280 -17 l1 -28 20 28 c11 15 28 27 37 27 12 0 11 -5 -8 -24
-23 -26 -22 -34 6 -73 10 -14 12 -23 5 -23 -6 0 -18 11 -27 25 -9 14 -20 25
-25 25 -5 0 -9 -11 -9 -25 0 -14 -4 -25 -10 -25 -6 0 -10 27 -10 60 0 33 4 60
10 60 6 0 10 -12 10 -27z m180 -33 c0 -33 -4 -60 -10 -60 -6 0 -10 27 -10 60
0 33 4 60 10 60 6 0 10 -27 10 -60z m-12316 24 c20 -19 20 -47 1 -84 -28 -55
-106 -71 -126 -26 -34 74 70 165 125 110z m82 -6 c-3 -13 -11 -47 -17 -75 -8
-34 -17 -53 -27 -53 -15 0 -12 36 10 113 12 40 45 55 34 15z m114 7 c0 -8 -9
-15 -20 -15 -23 0 -35 -21 -45 -73 -7 -34 -28 -58 -40 -45 -4 3 17 98 30 136
6 18 75 16 75 -3z m124 -1 c20 -19 20 -47 1 -84 -28 -55 -106 -71 -126 -26
-34 74 70 165 125 110z m9216 -20 c13 -34 -3 -64 -36 -64 -32 0 -51 38 -35 69
17 31 59 28 71 -5z m138 -21 c2 -26 -1 -43 -7 -43 -6 0 -11 16 -11 35 0 24 -5
35 -15 35 -10 0 -15 -11 -15 -35 0 -47 -18 -45 -22 3 -2 20 -7 37 -13 37 -5 0
-11 -17 -13 -37 -4 -53 -22 -47 -22 7 l0 45 58 -2 57 -3 3 -42z m90 20 c3 -19
-1 -23 -23 -23 -17 0 -25 -5 -22 -12 2 -7 15 -11 28 -10 18 3 21 1 13 -8 -7
-6 -22 -10 -35 -8 -18 2 -25 10 -27 31 -5 44 4 59 35 55 20 -2 29 -9 31 -25z
m292 -18 c0 -25 -4 -45 -10 -45 -5 0 -10 20 -10 45 0 25 5 45 10 45 6 0 10
-20 10 -45z m80 31 c0 -10 -7 -12 -22 -8 -14 3 -19 2 -14 -6 4 -7 13 -12 21
-12 18 0 28 -32 13 -42 -21 -13 -55 -9 -62 8 -5 13 -1 14 24 9 36 -8 40 2 5
15 -24 9 -32 29 -18 43 12 13 53 7 53 -7z m40 -17 l6 -24 7 28 c9 35 25 35 34
0 l6 -28 10 28 c9 29 32 39 23 10 -3 -10 -8 -30 -12 -45 -7 -33 -24 -37 -31
-8 -3 11 -9 20 -14 20 -5 0 -9 -9 -9 -20 0 -38 -27 -20 -37 25 -7 33 -7 45 1
42 6 -2 13 -14 16 -28z m168 -16 l3 -43 -36 0 c-32 0 -36 3 -33 23 2 14 11 23
26 25 12 2 22 8 22 14 0 6 -10 8 -25 4 -14 -4 -25 -3 -25 2 0 16 14 23 40 20
22 -3 25 -8 28 -45z m346 31 c11 -27 7 -34 -20 -34 -16 0 -24 -5 -21 -12 2 -7
14 -12 27 -10 14 2 20 0 16 -7 -4 -6 -18 -11 -32 -11 -30 0 -50 41 -34 71 13
23 55 25 64 3z m140 0 c11 -28 7 -74 -7 -74 -7 0 -12 13 -12 32 0 17 -6 33
-12 35 -9 3 -13 -7 -13 -31 0 -25 -4 -36 -15 -36 -10 0 -15 11 -15 35 0 24 -5
35 -15 35 -10 0 -15 -11 -15 -35 0 -19 -4 -35 -10 -35 -5 0 -10 20 -10 45 l0
45 59 0 c44 0 60 -4 65 -16z m174 -32 l3 -43 -33 3 c-25 2 -33 8 -33 23 0 13
8 21 23 23 22 3 28 13 15 25 -3 4 -12 2 -20 -5 -16 -13 -28 -5 -18 12 4 6 19
10 33 8 24 -3 27 -8 30 -46z m40 21 l10 -28 7 28 c4 15 12 27 17 27 11 0 4
-36 -17 -87 -8 -20 -21 -33 -32 -33 -16 0 -16 1 -1 16 14 15 15 21 2 57 -17
47 -17 47 -5 47 5 0 14 -12 19 -27z m120 -21 l3 -43 -33 3 c-25 2 -33 8 -33
23 0 13 8 21 23 23 12 2 22 8 22 14 0 6 -10 8 -25 4 -19 -5 -23 -3 -18 9 3 10
15 15 32 13 23 -3 26 -8 29 -46z m140 1 l3 -43 -36 0 c-32 0 -36 3 -33 23 2
14 11 23 26 25 12 2 22 8 22 14 0 6 -10 8 -25 4 -14 -4 -25 -2 -25 3 0 6 -7 8
-15 5 -9 -4 -15 -19 -15 -40 0 -19 -4 -34 -10 -34 -5 0 -10 20 -10 45 l0 45
58 -3 57 -2 3 -42z m90 0 c2 -24 -1 -43 -7 -43 -5 0 -11 17 -13 38 -2 20 -7
37 -13 37 -5 0 -11 -17 -13 -37 -5 -54 -22 -47 -22 8 0 45 0 45 33 42 30 -3
32 -6 35 -45z m330 35 c22 -22 13 -38 -19 -38 -20 0 -29 -4 -26 -12 2 -7 16
-12 31 -10 18 2 25 -1 21 -7 -8 -15 -48 -14 -63 1 -26 26 -7 78 28 78 9 0 21
-5 28 -12z m90 -35 c2 -26 -1 -43 -7 -43 -6 0 -11 16 -11 35 0 24 -5 35 -15
35 -10 0 -15 -11 -15 -35 0 -19 -4 -35 -10 -35 -5 0 -10 21 -10 46 0 45 0 45
33 42 30 -3 32 -6 35 -45z m42 2 c0 -25 -4 -45 -10 -45 -5 0 -10 20 -10 45 0
25 5 45 10 45 6 0 10 -20 10 -45z m80 31 c0 -10 -7 -12 -22 -8 -14 3 -19 2
-14 -6 4 -7 13 -12 21 -12 16 0 26 -23 15 -39 -9 -16 -52 -10 -58 7 -3 11 0
12 16 3 14 -7 23 -8 27 -1 3 6 -5 14 -19 20 -25 9 -34 29 -19 43 12 13 53 7
53 -7z m344 -2 c11 -27 7 -34 -20 -34 -16 0 -24 -5 -21 -12 2 -7 14 -12 27
-10 14 2 20 0 16 -7 -4 -6 -18 -11 -32 -11 -32 0 -51 38 -35 69 14 25 56 28
65 5z m78 -21 c2 -21 8 -38 13 -38 6 0 11 17 13 38 5 53 22 46 22 -9 0 -45 0
-45 -32 -42 -31 3 -33 6 -36 46 -2 23 1 42 7 42 5 0 11 -17 13 -37z m136 -10
c3 -43 3 -43 -31 -43 -37 0 -54 19 -34 39 6 6 19 11 29 11 18 0 24 11 11 23
-3 4 -12 2 -20 -5 -16 -13 -28 -5 -18 12 4 6 19 10 33 8 24 -3 27 -8 30 -45z
m62 38 c0 -5 -7 -11 -15 -15 -9 -3 -15 -18 -15 -36 0 -48 -16 -35 -19 15 -2
42 0 45 24 45 14 0 25 -4 25 -9z"/>
<path d="M702 7210 l-23 -40 31 0 c25 0 30 4 29 23 0 12 -3 30 -7 39 -6 14
-11 10 -30 -22z"/>
<path d="M11710 7235 c0 -18 5 -25 19 -25 26 0 36 17 21 35 -19 23 -40 18 -40
-10z"/>
<path d="M12030 7195 c0 -18 5 -25 20 -25 15 0 20 7 20 25 0 18 -5 25 -20 25
-15 0 -20 -7 -20 -25z"/>
<path d="M1092 7213 c-29 -24 -38 -66 -18 -82 35 -29 94 50 65 85 -15 18 -22
18 -47 -3z"/>
<path d="M1412 7213 c-29 -24 -38 -66 -18 -82 35 -29 94 50 65 85 -15 18 -22
18 -47 -3z"/>
<path d="M10651 7216 c-15 -18 -8 -46 13 -46 20 0 27 25 12 45 -11 15 -13 15
-25 1z"/>
<path d="M10886 7223 c-11 -11 -6 -23 9 -23 8 0 15 4 15 9 0 13 -16 22 -24 14z"/>
<path d="M11460 7180 c0 -5 7 -10 15 -10 8 0 15 5 15 10 0 6 -7 10 -15 10 -8
0 -15 -4 -15 -10z"/>
<path d="M11816 7223 c-11 -11 -6 -23 9 -23 8 0 15 4 15 9 0 13 -16 22 -24 14z"/>
<path d="M12125 7180 c-3 -5 1 -10 9 -10 9 0 16 5 16 10 0 6 -4 10 -9 10 -6 0
-13 -4 -16 -10z"/>
<path d="M12285 7180 c-3 -5 1 -10 9 -10 9 0 16 5 16 10 0 6 -4 10 -9 10 -6 0
-13 -4 -16 -10z"/>
<path d="M12420 7180 c0 -5 7 -10 15 -10 8 0 15 5 15 10 0 6 -7 10 -15 10 -8
0 -15 -4 -15 -10z"/>
<path d="M12850 7215 c-10 -13 -9 -15 8 -15 15 0 20 5 16 15 -4 8 -7 15 -9 15
-1 0 -8 -7 -15 -15z"/>
<path d="M13400 7210 c0 -5 7 -10 15 -10 8 0 15 5 15 10 0 6 -7 10 -15 10 -8
0 -15 -4 -15 -10z"/>
<path d="M13615 7180 c-3 -5 1 -10 9 -10 9 0 16 5 16 10 0 6 -4 10 -9 10 -6 0
-13 -4 -16 -10z"/>
<path d="M910 6490 c0 -53 4 -90 10 -90 6 0 10 20 10 44 0 54 24 81 46 51 8
-10 14 -36 14 -57 0 -21 5 -38 10 -38 14 0 12 104 -2 118 -7 7 -25 12 -40 12
-23 0 -28 4 -28 25 0 14 -4 25 -10 25 -6 0 -10 -37 -10 -90z"/>
<path d="M1040 6490 l0 -90 45 0 c50 0 65 16 65 69 0 36 -23 61 -56 61 -19 0
-24 5 -24 25 0 16 -6 25 -15 25 -12 0 -15 -17 -15 -90z m79 -2 c11 -31 -2 -63
-25 -63 -20 0 -31 41 -20 71 8 22 36 17 45 -8z"/>
<path d="M1600 6552 c0 -24 -4 -27 -32 -27 -25 0 -35 -6 -44 -25 -28 -57 12
-113 74 -103 l32 5 0 89 c0 72 -3 89 -15 89 -10 0 -15 -10 -15 -28z m-12 -51
c21 -13 11 -75 -12 -79 -32 -7 -50 50 -24 76 14 14 19 15 36 3z"/>
<path d="M500 6485 l0 -85 43 0 c57 0 80 24 81 84 1 60 -23 86 -81 86 l-43 0
0 -85z m78 49 c41 -28 19 -114 -29 -114 -21 0 -25 17 -21 81 4 53 14 59 50 33z"/>
<path d="M664 6513 c-20 -20 -1 -32 21 -13 16 13 45 7 45 -10 0 -5 -10 -10
-23 -10 -35 0 -59 -22 -55 -51 3 -21 9 -24 54 -27 l51 -3 -5 58 c-3 32 -10 61
-16 65 -19 13 -54 9 -72 -9z m61 -73 c0 -8 -10 -16 -22 -18 -22 -3 -32 16 -16
32 12 11 38 2 38 -14z"/>
<path d="M790 6515 c-18 -22 -5 -44 35 -61 20 -8 33 -19 30 -24 -8 -14 -39
-12 -53 2 -17 17 -27 2 -12 -17 9 -11 26 -15 49 -13 31 3 36 7 39 30 3 22 -2
28 -32 39 -20 7 -36 16 -36 20 0 16 20 19 39 7 25 -15 39 -4 21 17 -16 19 -64
19 -80 0z"/>
<path d="M1186 6514 c-18 -18 -21 -66 -6 -95 13 -24 72 -26 91 -3 20 24 16 84
-6 100 -25 19 -60 18 -79 -2z m62 -16 c25 -25 8 -78 -25 -78 -22 0 -37 44 -24
69 13 24 31 27 49 9z"/>
<path d="M1320 6515 c-18 -21 -4 -32 21 -17 19 12 39 9 39 -7 0 -4 -15 -11
-32 -16 -28 -8 -33 -15 -33 -40 0 -29 2 -30 48 -33 l47 -3 0 53 c0 30 -5 59
-12 66 -17 17 -63 15 -78 -3z m60 -70 c0 -21 -28 -31 -43 -16 -9 9 -8 14 3 21
22 14 40 12 40 -5z"/>
<path d="M1440 6465 c0 -51 3 -65 15 -65 11 0 15 12 15 49 0 41 4 51 20 56 32
10 23 25 -15 25 l-35 0 0 -65z"/>
<path d="M506 6229 l-26 -20 0 -923 c0 -919 0 -923 21 -950 l20 -26 2119 0
2119 0 20 26 c21 27 21 31 21 950 l0 923 -26 20 -27 21 -2107 0 -2107 0 -27
-21z m586 -261 c-2 -40 -7 -76 -10 -80 -18 -18 -27 13 -24 80 3 59 7 72 20 72
15 0 17 -10 14 -72z m218 62 c0 -5 -6 -10 -14 -10 -8 0 -18 5 -21 10 -3 6 3
10 14 10 12 0 21 -4 21 -10z m-540 -10 c0 -5 -9 -10 -20 -10 -18 0 -20 -7 -20
-60 0 -50 -3 -60 -17 -60 -15 0 -18 9 -18 57 0 53 -2 58 -22 61 -47 7 -21 22
37 22 33 0 60 -4 60 -10z m150 -1 c0 -19 26 -39 37 -28 6 6 26 9 44 7 33 -3
34 -4 37 -56 l3 -53 -43 3 c-40 3 -43 5 -43 33 0 25 4 30 28 33 44 5 31 19
-18 18 -44 -1 -45 -2 -45 -34 0 -20 4 -31 10 -27 6 3 10 0 10 -8 0 -8 -12 -17
-27 -19 -27 -4 -28 -3 -24 40 2 30 -1 48 -10 54 -11 7 -11 11 -1 15 6 2 12 11
12 19 0 8 7 14 15 14 8 0 15 -5 15 -11z m324 5 c20 -8 21 -44 2 -44 -8 0 -16
7 -20 15 -7 19 -36 20 -36 1 0 -8 16 -20 36 -26 31 -11 35 -15 32 -43 -3 -27
-8 -33 -32 -35 -45 -5 -76 6 -76 28 0 23 25 27 34 5 7 -18 49 -21 44 -2 -2 6
-18 18 -36 26 -77 35 -28 106 52 75z m-381 -44 c16 -23 12 -64 -8 -80 -8 -6
-28 -10 -46 -8 -39 4 -56 39 -40 81 9 22 17 27 45 27 24 0 39 -7 49 -20z m446
-32 c-3 -62 -5 -69 -22 -62 -11 4 -13 25 -8 97 0 9 8 17 17 17 12 0 15 -10 13
-52z m98 36 c3 -9 0 -20 -8 -25 -10 -6 -10 -9 -1 -9 7 0 12 -13 12 -31 0 -29
-1 -30 -42 -27 -31 2 -44 8 -46 21 -4 20 24 24 31 5 3 -10 8 -10 17 -2 9 9 4
14 -19 22 -29 10 -41 38 -24 55 13 14 74 7 80 -9z m43 -4 c0 -11 5 -20 10 -20
6 0 10 9 10 20 0 28 36 26 44 -2 l7 -23 9 23 c5 12 16 22 24 22 12 0 12 -7 1
-51 -18 -67 -31 -80 -46 -46 -14 32 -29 35 -29 7 0 -13 -7 -20 -18 -20 -14 0
-23 14 -34 55 -15 52 -14 55 3 55 12 0 19 -7 19 -20z m218 -37 l3 -53 -45 0
c-36 0 -46 4 -51 20 -4 12 -1 27 5 35 6 8 9 19 5 25 -12 19 7 31 43 28 l37 -3
3 -52z m-852 -390 c20 -26 17 -70 -6 -93 -24 -24 -72 -26 -94 -4 -22 22 -21
90 2 103 28 17 83 13 98 -6z m286 0 c40 -36 8 -113 -49 -113 -32 0 -73 36 -73
65 0 11 7 31 16 43 19 27 78 30 106 5z m3488 -88 c0 -78 -2 -85 -20 -85 -18 0
-20 7 -20 69 0 64 -1 69 -20 64 -14 -4 -20 0 -20 10 0 16 18 24 58 26 21 1 22
-2 22 -84z m-3626 -20 c18 -27 21 -80 6 -90 -5 -3 -10 -11 -10 -17 0 -7 6 -6
15 2 8 7 15 28 15 46 l0 34 54 0 c69 0 83 -6 101 -41 31 -60 38 -58 -230 -58
-135 0 -249 -2 -254 -5 -14 -9 -19 25 -8 57 12 37 35 47 101 47 55 0 56 -1 56
-28 0 -16 7 -37 16 -48 15 -19 16 -19 8 1 -5 11 -8 37 -8 57 0 47 24 67 80 68
33 0 45 -5 58 -25z m42 -162 c30 -17 56 -60 52 -86 -3 -21 -7 -22 -156 -25
l-153 -3 3 50 c2 27 5 48 8 46 3 -1 20 7 38 19 29 18 43 20 110 16 42 -3 86
-11 98 -17z m1431 -479 c-3 -17 -1 -21 7 -15 16 13 116 13 116 0 0 -8 4 -8 14
0 19 16 68 10 74 -8 4 -11 -2 -12 -24 -7 l-29 6 25 -14 c23 -14 26 -14 34 9 7
18 17 25 37 25 15 0 31 -6 36 -12 5 -9 9 -3 13 17 9 51 25 33 28 -31 l3 -61
-56 -2 c-35 0 -55 3 -55 10 0 8 -4 8 -12 1 -16 -13 -146 -14 -154 -1 -3 5 -6
23 -6 40 -1 26 -3 28 -16 16 -12 -13 -12 -18 3 -41 20 -31 3 -36 -27 -9 -18
16 -18 16 -12 -1 5 -14 3 -17 -12 -14 -15 3 -18 11 -15 58 1 30 5 58 8 63 9
15 25 -6 20 -29z m1464 -4 c5 0 9 4 9 9 0 5 8 11 18 14 17 4 19 -1 16 -47 -2
-28 -1 -45 2 -39 4 10 11 10 25 2 11 -6 25 -8 32 -6 7 3 -1 8 -16 12 -21 6
-27 13 -25 29 4 27 68 38 68 11 0 -14 -6 -16 -27 -11 l-28 6 28 -16 c48 -26
32 -49 -36 -51 -56 -2 -57 -1 -57 25 0 15 -5 34 -10 42 -7 11 -10 3 -10 -28 0
-31 -4 -42 -12 -39 -7 2 -12 17 -10 33 l2 29 -15 -32 c-7 -18 -20 -33 -28 -33
-8 0 -19 15 -25 33 l-10 32 -1 -32 c-2 -60 -21 -34 -21 28 0 52 2 60 17 57 10
-2 21 -18 27 -36 12 -42 23 -41 32 2 7 38 37 54 42 24 2 -10 8 -18 13 -18z
m378 0 c18 0 21 -6 21 -45 0 -33 -4 -45 -15 -45 -10 0 -15 11 -15 35 0 19 -4
35 -10 35 -5 0 -10 -16 -10 -35 0 -24 -5 -35 -15 -35 -12 0 -15 14 -15 68 1
67 1 67 19 45 11 -13 29 -23 40 -23z m155 25 c-4 -8 -12 -15 -20 -15 -20 0
-17 18 4 23 9 3 18 5 19 6 1 0 0 -6 -3 -14z m-2844 -5 c0 -5 -9 -10 -20 -10
-17 0 -20 -7 -20 -50 0 -38 -4 -50 -15 -50 -11 0 -15 12 -15 50 0 37 -4 50
-14 50 -8 0 -18 5 -21 10 -4 6 15 10 49 10 31 0 56 -4 56 -10z m250 -50 c0
-47 -3 -60 -15 -60 -9 0 -16 10 -16 28 l-2 27 -4 -27 c-4 -27 -6 -27 -64 -27
-43 1 -59 5 -59 15 0 19 -16 18 -24 -1 -3 -9 -18 -15 -36 -15 -24 0 -33 6 -41
26 -14 38 10 73 46 67 27 -6 49 -34 37 -49 -4 -5 0 -4 7 3 11 9 11 15 2 26 -9
11 -8 17 4 27 13 11 19 10 33 -5 13 -13 14 -19 5 -22 -15 -5 -18 -53 -4 -53 5
0 11 7 15 15 3 8 15 15 26 15 11 0 20 5 20 10 0 6 -11 8 -25 4 -20 -5 -24 -3
-19 10 8 22 60 21 73 -1 9 -15 10 -12 11 15 0 22 5 32 15 32 12 0 15 -13 15
-60z m77 -12 c-2 -69 -3 -73 -27 -76 -20 -3 -22 -1 -12 10 6 8 12 42 13 76 1
42 6 62 15 62 9 0 12 -20 11 -72z m263 12 c0 -73 -17 -80 -22 -10 -3 55 -1 70
13 70 5 0 9 -27 9 -60z m130 46 c0 -8 10 -16 23 -18 18 -2 23 -10 25 -45 2
-34 0 -43 -12 -43 -12 0 -16 10 -16 35 0 19 -4 35 -10 35 -5 0 -10 -16 -10
-35 0 -47 -29 -49 -32 -2 l-1 32 -4 -33 c-4 -31 -6 -33 -41 -30 -29 2 -37 7
-37 23 0 13 8 21 23 23 12 2 22 7 22 11 0 5 -11 6 -25 3 -20 -3 -24 -1 -19 12
7 19 54 22 72 4 9 -9 12 -6 12 15 0 17 5 27 15 27 8 0 15 -6 15 -14z m730 -1
c0 -9 9 -15 25 -15 14 0 25 -6 25 -12 0 -10 2 -10 9 0 5 8 22 12 42 10 33 -3
34 -5 35 -45 l1 -43 -38 0 c-24 0 -39 5 -40 13 0 10 -2 10 -6 0 -11 -28 -33
-13 -33 22 0 19 -4 35 -10 35 -5 0 -10 -16 -10 -35 0 -23 -5 -35 -14 -35 -10
0 -15 15 -18 50 -1 28 -1 55 0 60 6 16 32 12 32 -5z m390 5 c0 -5 -9 -10 -21
-10 -11 0 -17 5 -14 10 3 6 13 10 21 10 8 0 14 -4 14 -10z m725 -30 c27 -77
27 -80 11 -80 -9 0 -16 5 -16 10 0 6 -9 10 -19 10 -11 0 -23 -4 -26 -10 -3 -5
-15 -10 -27 -10 -17 0 -18 3 -8 15 6 8 8 20 4 26 -4 8 -3 9 4 5 7 -4 13 -1 13
8 1 16 4 28 9 44 1 4 2 11 1 15 -1 5 8 7 20 5 15 -2 26 -15 34 -38z m55 -20
c0 -66 -16 -82 -21 -22 -5 48 0 82 12 82 5 0 9 -27 9 -60z m410 35 c8 -10 9
-19 2 -27 -5 -8 -6 -22 -1 -33 12 -31 11 -35 -11 -35 -16 0 -20 7 -20 34 0 19
-4 38 -10 41 -6 4 -5 11 3 20 16 18 22 18 37 0z m-2660 -42 c0 -20 4 -32 10
-28 6 3 10 19 10 34 0 34 16 38 105 31 l60 -5 3 -42 c2 -34 0 -43 -12 -43 -12
0 -16 10 -16 35 0 19 -4 35 -10 35 -10 0 -14 -20 -12 -52 1 -10 -5 -18 -12
-18 -9 0 -16 13 -18 33 -2 17 -7 32 -13 32 -5 0 -11 -15 -13 -32 -4 -40 -21
-44 -23 -5 l-2 27 -4 -28 c-4 -26 -8 -28 -41 -25 -36 3 -37 4 -40 50 -3 40 0
47 12 42 10 -4 16 -19 16 -41z m902 -6 l1 -42 6 44 c6 43 7 45 41 45 33 0 35
-2 38 -38 3 -38 26 -47 28 -10 1 10 2 25 3 32 1 6 6 12 11 12 6 0 10 -20 10
-45 0 -45 0 -45 -35 -45 -34 0 -57 22 -48 47 2 6 -1 14 -6 18 -11 6 -15 -13
-11 -48 1 -16 -6 -18 -57 -15 l-58 3 -3 43 c-2 33 0 42 12 42 12 0 16 -10 16
-35 0 -19 5 -35 10 -35 6 0 10 15 10 33 0 65 29 59 32 -6z m521 15 c-2 -12 2
-22 8 -22 7 0 9 11 7 25 -4 17 -1 25 8 25 10 0 14 -14 14 -45 0 -25 -4 -45
-10 -45 -5 0 -10 8 -10 18 -1 16 -1 16 -11 0 -12 -22 -62 -24 -79 -3 -9 10 -9
15 -1 15 6 0 11 5 11 11 0 5 -4 7 -10 4 -6 -4 -7 1 -3 12 12 34 23 41 51 34
20 -6 26 -14 25 -29z m1185 15 c15 -12 16 -49 0 -65 -27 -27 -78 -7 -78 30 0
47 39 65 78 35z m-1308 -32 c0 -52 -17 -61 -22 -12 -2 17 -7 32 -13 32 -5 0
-11 -15 -13 -32 -2 -18 -7 -33 -13 -33 -10 0 -11 1 -13 53 -1 36 0 37 37 37
l37 0 0 -45z m284 33 c5 -10 7 -10 12 0 9 18 34 15 34 -5 1 -17 1 -17 14 0 25
32 36 20 23 -25 -14 -48 -36 -61 -44 -27 l-6 23 -8 -22 c-10 -28 -39 -29 -39
-2 0 11 -4 20 -9 20 -5 0 -7 10 -4 23 3 16 2 18 -5 8 -6 -8 -18 -11 -33 -7
-21 6 -20 5 4 -9 39 -23 32 -50 -12 -50 -20 0 -36 6 -39 14 -4 11 2 12 24 7
l29 -6 -22 16 c-13 9 -23 25 -23 35 0 16 8 19 49 19 30 0 52 -5 55 -12z m168
0 c0 -7 2 -28 3 -45 1 -32 -1 -33 -37 -33 -34 0 -38 3 -38 25 0 18 5 25 19 25
11 0 23 5 26 10 4 7 -2 9 -19 4 -24 -6 -34 4 -19 19 11 12 63 7 65 -5z m677
-5 c10 -17 10 -17 11 0 0 9 7 17 15 17 11 0 15 -12 15 -45 0 -33 -4 -45 -15
-45 -8 0 -15 8 -15 17 0 15 -1 15 -13 -1 -9 -12 -23 -17 -42 -14 -24 2 -31 8
-33 31 -2 16 -1 35 2 43 8 20 63 18 75 -3z m101 7 c0 -5 -4 -10 -10 -10 -5 0
-10 -16 -10 -35 0 -24 -5 -35 -15 -35 -11 0 -15 12 -15 45 0 41 2 45 25 45 14
0 25 -4 25 -10z"/>
<path d="M980 5924 c0 -17 22 -14 28 4 2 7 -3 12 -12 12 -9 0 -16 -7 -16 -16z"/>
<path d="M802 5967 c-14 -16 -4 -57 14 -57 19 0 27 18 20 46 -7 27 -18 30 -34
11z"/>
<path d="M1350 5970 c0 -5 7 -10 15 -10 8 0 15 5 15 10 0 6 -7 10 -15 10 -8 0
-15 -4 -15 -10z"/>
<path d="M1605 5970 c-3 -5 3 -10 14 -10 12 0 21 5 21 10 0 6 -6 10 -14 10 -8
0 -18 -4 -21 -10z"/>
<path d="M1610 5924 c0 -9 5 -14 12 -12 18 6 21 28 4 28 -9 0 -16 -7 -16 -16z"/>
<path d="M2515 4770 c-3 -5 1 -10 9 -10 9 0 16 5 16 10 0 6 -4 10 -9 10 -6 0
-13 -4 -16 -10z"/>
<path d="M2680 4770 c0 -5 7 -10 15 -10 8 0 15 5 15 10 0 6 -7 10 -15 10 -8 0
-15 -4 -15 -10z"/>
<path d="M2570 4761 c0 -13 39 -35 48 -27 3 3 0 6 -6 6 -6 0 -18 7 -26 16 -9
8 -16 11 -16 5z"/>
<path d="M2528 4733 c7 -3 16 -2 19 1 4 3 -2 6 -13 5 -11 0 -14 -3 -6 -6z"/>
<path d="M1606 4763 c-9 -22 10 -41 25 -26 13 13 5 43 -10 43 -5 0 -12 -8 -15
-17z"/>
<path d="M1755 4740 c-3 -5 -2 -10 4 -10 5 0 13 5 16 10 3 6 2 10 -4 10 -5 0
-13 -4 -16 -10z"/>
<path d="M2230 4740 c-13 -8 -12 -10 3 -10 9 0 17 5 17 10 0 12 -1 12 -20 0z"/>
<path d="M3113 4773 c-14 -3 -23 -11 -22 -21 0 -11 3 -12 6 -4 2 6 16 12 29
12 13 0 24 5 24 10 0 6 -3 9 -7 9 -5 -1 -18 -4 -30 -6z"/>
<path d="M3125 4740 c-3 -5 -2 -10 4 -10 5 0 13 5 16 10 3 6 2 10 -4 10 -5 0
-13 -4 -16 -10z"/>
<path d="M4120 4765 c0 -8 4 -15 10 -15 5 0 7 7 4 15 -4 8 -8 15 -10 15 -2 0
-4 -7 -4 -15z"/>
<path d="M2005 4780 c-3 -5 -1 -10 4 -10 6 0 11 5 11 10 0 6 -2 10 -4 10 -3 0
-8 -4 -11 -10z"/>
<path d="M3340 4776 c0 -2 7 -7 16 -10 8 -3 12 -2 9 4 -6 10 -25 14 -25 6z"/>
<path d="M3335 4740 c3 -5 8 -10 11 -10 2 0 4 5 4 10 0 6 -5 10 -11 10 -5 0
-7 -4 -4 -10z"/>
<path d="M4520 4755 c0 -16 6 -25 15 -25 9 0 15 9 15 25 0 16 -6 25 -15 25 -9
0 -15 -9 -15 -25z"/>
<path d="M3670 4740 c-13 -8 -12 -10 3 -10 9 0 17 5 17 10 0 12 -1 12 -20 0z"/>
<path d="M4336 4763 c-9 -22 10 -41 25 -26 13 13 5 43 -10 43 -5 0 -12 -8 -15
-17z"/>
<path d="M5066 6229 l-26 -20 0 -923 c0 -919 0 -923 21 -950 l20 -26 2119 0
2119 0 20 26 c21 27 21 31 21 950 l0 923 -26 20 -27 21 -2107 0 -2107 0 -27
-21z m584 -265 c0 -64 -2 -74 -18 -74 -15 0 -17 9 -15 62 1 34 -2 69 -7 78 -8
14 -5 16 15 12 24 -4 25 -8 25 -78z m176 39 c31 6 44 -16 44 -72 0 -34 -3 -41
-19 -41 -15 0 -18 6 -16 33 4 39 -9 67 -24 52 -5 -6 -11 -28 -13 -50 -5 -62
-22 -43 -28 32 -4 51 -1 70 10 82 13 13 15 12 18 -13 3 -24 7 -27 28 -23z
m258 26 c-7 -11 -34 -12 -34 -1 0 14 11 21 26 15 8 -3 11 -9 8 -14z m-46 -45
c-3 -18 -5 -17 -23 4 -21 23 -40 28 -50 12 -3 -5 11 -17 32 -27 32 -15 38 -23
38 -48 0 -26 -4 -30 -29 -33 -40 -5 -73 5 -80 23 -9 23 23 31 38 10 8 -11 20
-16 30 -12 26 10 19 23 -24 40 -32 12 -40 20 -40 41 0 20 6 27 28 32 15 3 32
7 37 9 17 5 47 -31 43 -51z m-726 36 c2 -6 1 -36 -2 -68 l-5 -57 -45 0 c-39 0
-45 3 -48 23 -4 26 15 29 33 5 20 -27 35 -5 35 53 0 40 4 54 14 54 8 0 16 -5
18 -10z m1237 -17 l13 -27 16 27 c9 15 25 27 35 27 17 0 17 -4 -7 -44 -14 -25
-26 -56 -26 -69 0 -29 -29 -46 -31 -19 -3 41 -5 49 -27 90 -21 39 -21 42 -4
42 11 0 24 -12 31 -27z m557 -14 c1 -47 13 -68 26 -45 5 9 20 16 34 16 14 0
23 4 20 9 -3 4 -17 6 -32 3 -20 -4 -25 -1 -22 9 3 9 19 14 44 14 l39 0 3 -52
3 -53 -45 0 c-34 0 -46 4 -46 15 0 8 -4 15 -9 15 -5 0 -11 -7 -15 -15 -4 -10
-20 -15 -51 -15 -25 0 -45 3 -46 8 0 4 -1 35 -2 70 l-2 63 50 -3 50 -3 1 -36z
m-1684 -45 l-4 -55 -41 3 -42 3 -3 53 c-2 42 0 52 12 52 12 0 16 -11 16 -46 0
-55 23 -57 28 -3 4 48 9 59 24 54 9 -4 12 -22 10 -61z m137 52 l36 -1 3 -52
c3 -46 1 -53 -15 -53 -15 0 -18 8 -18 43 0 31 -4 42 -15 42 -10 0 -16 -13 -18
-42 -2 -29 -8 -43 -18 -43 -10 0 -14 13 -14 46 0 59 -23 55 -30 -6 -3 -28 -10
-44 -20 -45 -12 -2 -14 8 -12 56 4 57 4 58 35 61 18 2 36 1 41 -1 6 -2 26 -5
45 -5z m1764 -9 c-4 -8 -1 -7 9 1 9 7 32 12 50 10 32 -3 33 -5 38 -56 l6 -53
-46 3 c-43 3 -45 5 -45 33 0 25 5 31 30 35 17 3 25 8 20 12 -6 3 -26 3 -45 -2
-19 -4 -31 -8 -26 -9 5 -1 4 -7 -1 -13 -6 -7 -13 -26 -17 -43 -10 -38 -24 -55
-47 -55 -23 0 -25 16 -4 24 20 7 19 25 -5 80 -19 45 -19 46 0 46 11 0 22 -11
28 -27 l9 -28 8 25 c4 14 12 28 18 32 15 9 29 -1 20 -15z m-1571 1 c2 -7 4
-33 3 -57 0 -43 -1 -45 -31 -45 -46 0 -64 11 -64 38 0 24 16 36 51 36 11 0 17
4 14 10 -3 5 -20 6 -38 3 -29 -6 -31 -5 -18 10 16 20 77 23 83 5z m328 -43 c0
-42 -3 -55 -15 -55 -12 0 -15 13 -15 55 0 42 3 55 15 55 12 0 15 -13 15 -55z
m94 49 c9 -3 16 -12 16 -20 0 -16 -26 -19 -35 -4 -7 12 -25 13 -25 2 0 -4 14
-13 30 -19 20 -7 30 -18 30 -31 0 -11 6 -22 12 -24 7 -3 -10 -5 -39 -6 -43 -2
-54 1 -63 18 -8 15 -8 20 3 20 7 0 18 -5 24 -11 6 -6 17 -9 25 -7 8 3 0 11
-19 22 -31 15 -43 43 -26 59 8 9 46 9 67 1z m56 -20 c0 -14 4 -23 10 -19 6 3
10 15 10 26 0 12 7 19 20 19 13 0 20 -7 20 -20 0 -11 5 -20 10 -20 6 0 10 9
10 20 0 13 7 20 19 20 17 0 18 -3 3 -55 -11 -41 -20 -55 -34 -55 -11 0 -18 7
-18 19 0 11 -4 23 -10 26 -5 3 -10 -3 -10 -15 0 -19 -25 -38 -36 -27 -3 3 -11
28 -19 56 -12 48 -12 51 6 51 14 0 19 -7 19 -26z m206 12 c3 -7 6 -33 7 -57
l2 -44 -40 3 c-47 4 -69 26 -54 53 6 12 21 19 40 19 19 0 28 4 24 11 -4 6 -19
7 -36 4 -27 -6 -38 3 -22 18 12 13 74 7 79 -7z m275 7 c0 -5 3 -29 5 -54 l5
-47 -36 -4 c-45 -5 -68 10 -63 43 2 19 10 25 36 27 18 2 30 7 27 12 -3 5 -20
6 -38 3 -29 -6 -31 -5 -18 10 13 17 80 24 82 10z m113 -9 c8 -20 8 -89 0 -97
-14 -14 -30 6 -28 36 3 39 -10 67 -25 52 -5 -6 -11 -28 -13 -50 -4 -58 -22
-44 -26 20 l-3 55 44 0 c32 0 47 -5 51 -16z m116 -47 c0 -36 -5 -68 -12 -75
-18 -18 -78 -16 -78 3 0 11 7 14 24 9 13 -3 27 -1 30 5 5 7 -2 11 -16 11 -32
0 -48 18 -48 55 0 41 16 55 62 55 l38 0 0 -63z m560 54 c0 -5 -7 -11 -15 -15
-10 -3 -15 -19 -15 -46 0 -29 -4 -40 -15 -40 -12 0 -15 13 -15 55 0 54 0 55
30 55 17 0 30 -4 30 -9z m-2039 -450 c32 -32 38 -79 18 -124 -23 -52 -118 -64
-166 -23 -24 21 -28 32 -28 76 0 44 4 55 28 76 42 36 109 34 148 -5z m3689
-76 c0 -78 -2 -85 -20 -85 -18 0 -20 7 -20 69 0 64 -1 69 -20 64 -14 -4 -20 0
-20 10 0 16 18 24 58 26 21 1 22 -2 22 -84z m-3647 -154 c24 -15 41 -36 53
-66 28 -75 28 -75 -169 -75 -96 0 -176 2 -179 5 -3 3 -2 24 2 46 16 87 73 121
192 115 46 -2 77 -10 101 -25z m1127 -486 c0 -8 -7 -15 -15 -15 -11 0 -15 -12
-15 -50 0 -38 -4 -50 -15 -50 -11 0 -15 12 -15 50 0 43 -3 50 -20 50 -41 0
-18 19 28 23 26 2 48 4 50 5 1 1 2 -5 2 -13z m426 -6 c3 -5 -4 -9 -14 -9 -11
0 -22 6 -25 14 -4 10 0 12 14 9 11 -3 22 -9 25 -14z m1574 1 c-9 -17 -8 -20
13 -20 12 0 28 -5 35 -12 9 -9 12 -9 12 0 0 7 7 12 15 12 11 0 15 -11 15 -36
0 -23 4 -33 11 -28 6 3 9 19 7 35 -3 16 -1 29 4 29 4 0 11 1 15 3 4 1 11 -11
15 -28 6 -25 7 -23 5 13 -2 27 2 42 10 42 13 0 20 -39 14 -88 l-3 -33 -52 3
c-48 3 -51 5 -55 33 l-4 30 -6 -30 c-5 -26 -11 -30 -42 -33 -37 -3 -37 -3 -40
41 -5 58 -1 75 19 80 9 3 18 5 20 6 1 0 -2 -8 -8 -19z m-1740 -50 c0 -47 -3
-60 -15 -60 -12 0 -15 13 -15 60 0 47 3 60 15 60 12 0 15 -13 15 -60z m908 48
c-2 -7 7 -14 19 -16 16 -2 26 -14 32 -35 5 -18 10 -26 10 -19 1 6 13 12 27 12
15 0 23 4 19 10 -4 6 -15 8 -26 5 -13 -4 -19 -2 -19 8 0 9 13 16 33 19 l34 4
2 -48 2 -48 -34 0 c-18 0 -38 5 -45 12 -9 9 -12 9 -12 0 0 -20 -68 -15 -72 5
-7 37 4 103 18 103 8 0 13 -6 12 -12z m431 -48 c1 -48 -1 -60 -14 -60 -13 0
-15 12 -14 60 1 39 6 60 14 60 8 0 13 -21 14 -60z m156 50 c3 -5 -2 -10 -12
-10 -14 0 -15 -2 -4 -9 9 -6 10 -11 2 -15 -6 -4 -11 -23 -11 -42 0 -22 -5 -34
-14 -34 -17 0 -27 76 -14 103 9 18 43 23 53 7z m680 0 c3 -5 -3 -10 -14 -10
-12 0 -21 5 -21 10 0 6 6 10 14 10 8 0 18 -4 21 -10z m125 0 c0 -5 -9 -10 -21
-10 -11 0 -17 5 -14 10 3 6 13 10 21 10 8 0 14 -4 14 -10z m-2433 -16 c10 -9
19 -12 25 -6 7 7 55 6 59 -2 0 0 2 -20 5 -44 l5 -43 -63 3 c-58 3 -63 5 -62
26 1 12 -2 22 -7 22 -4 0 -9 -10 -11 -22 -2 -19 -9 -23 -38 -23 -34 0 -35 1
-35 40 l0 40 48 3 c26 2 47 7 47 13 0 13 9 11 27 -7z m1400 -4 c1 -11 -4 -20
-13 -20 -9 0 -14 -11 -14 -35 l0 -35 -53 0 c-62 0 -70 5 -56 32 7 13 7 24 1
30 -6 6 -16 -8 -27 -41 -12 -38 -22 -51 -36 -51 -21 0 -26 16 -7 22 10 4 9 14
0 46 -15 51 -4 81 14 37 11 -27 12 -27 18 -8 5 16 15 21 41 21 18 0 39 3 45 7
6 4 17 -8 25 -27 l15 -33 -2 30 c-2 23 1 29 14 27 9 -1 19 2 23 8 9 14 11 13
12 -10z m-1145 -14 c5 -8 8 -7 8 2 0 6 7 12 15 12 10 0 15 -10 15 -30 0 -19 5
-30 14 -30 8 0 23 -3 33 -6 10 -3 6 2 -9 11 -29 16 -37 42 -15 50 41 15 73 11
89 -9 15 -18 18 -19 18 -3 0 9 5 17 11 17 7 0 18 -8 25 -17 13 -17 13 -17 14
0 0 9 6 17 14 17 11 0 11 -9 3 -45 -11 -48 -31 -59 -43 -23 l-7 23 -8 -24
c-11 -27 -33 -23 -37 8 -3 21 -48 48 -60 37 -3 -3 7 -10 21 -15 34 -13 30 -45
-7 -49 -15 -2 -34 2 -42 9 -10 8 -14 8 -14 0 0 -6 -7 -11 -15 -11 -8 0 -15 6
-15 13 0 9 -2 9 -9 -1 -5 -8 -21 -12 -37 -10 -25 3 -29 8 -31 38 -1 19 0 40 2
46 4 14 57 6 67 -10z m418 -3 c0 18 2 18 60 21 42 1 50 -7 50 -57 0 -38 0 -38
-37 -35 -30 2 -38 7 -38 23 0 13 8 21 23 23 12 2 22 8 22 13 0 7 -51 3 -56 -5
0 -1 -7 -19 -15 -41 -11 -30 -21 -41 -39 -43 -23 -2 -24 -2 -7 12 16 13 17 17
3 57 -18 51 -10 71 15 38 15 -20 19 -21 19 -6z m192 3 c14 -21 9 -76 -7 -76
-10 0 -15 11 -15 35 0 19 -4 35 -9 35 -13 0 -20 -25 -14 -49 4 -15 1 -21 -10
-21 -11 0 -16 13 -19 45 -3 38 0 45 17 48 25 4 48 -3 57 -17z m96 -47 c-3 -53
-3 -54 -37 -57 -18 -2 -38 1 -44 7 -8 8 -1 11 24 12 30 1 31 2 9 8 -21 6 -26
14 -28 48 -3 40 -2 42 30 45 18 2 37 1 41 -3 5 -3 7 -30 5 -60z m832 1 c0 -59
-17 -90 -27 -52 -3 12 -15 22 -27 24 -17 2 -21 10 -21 43 0 36 3 40 30 46 17
3 33 4 38 2 4 -2 7 -31 7 -63z m-1220 49 c0 -5 5 -7 12 -3 7 5 8 3 3 -7 -5 -7
-8 -26 -7 -42 2 -27 1 -28 -42 -26 -40 2 -43 5 -36 23 4 12 17 22 29 24 11 2
21 8 21 13 0 5 -11 7 -25 3 -23 -6 -33 4 -18 19 11 11 63 8 63 -4z m980 -34
c0 -52 -17 -61 -22 -12 -2 17 -7 32 -13 32 -5 0 -11 -15 -13 -32 -5 -49 -22
-40 -22 12 0 45 0 45 35 45 35 0 35 0 35 -45z m147 -3 l3 -43 -38 3 c-29 2
-37 7 -37 23 0 13 8 21 23 23 12 2 22 8 22 13 0 5 -11 7 -25 3 -14 -3 -25 -2
-25 3 0 17 14 24 45 21 28 -3 30 -6 32 -46z m431 1 c3 -43 3 -43 -32 -43 -19
0 -37 4 -40 9 -11 18 6 41 31 41 14 0 22 4 18 10 -4 6 -15 8 -26 5 -13 -5 -19
-2 -19 10 0 12 8 16 33 13 30 -3 32 -6 35 -45z m90 0 c2 -34 0 -43 -12 -43
-12 0 -16 10 -16 35 0 19 -4 35 -10 35 -5 0 -10 -16 -10 -35 0 -24 -5 -35 -15
-35 -11 0 -15 12 -15 46 l0 45 38 -3 c36 -3 37 -4 40 -45z m82 2 c0 -33 -4
-45 -15 -45 -11 0 -15 12 -15 45 0 33 4 45 15 45 11 0 15 -12 15 -45z m88 -2
c2 -34 0 -43 -12 -43 -12 0 -16 10 -16 35 0 19 -4 35 -9 35 -13 0 -20 -25 -14
-49 4 -15 1 -21 -11 -21 -12 0 -16 10 -16 46 l0 45 38 -3 c36 -3 37 -4 40 -45z
m32 2 c0 -25 -4 -45 -9 -45 -5 0 -11 20 -13 45 -2 31 1 45 9 45 9 0 13 -16 13
-45z"/>
<path d="M7040 5989 c0 -25 33 -22 38 4 2 12 -3 17 -17 17 -15 0 -21 -6 -21
-21z"/>
<path d="M7040 5930 c0 -13 7 -20 20 -20 13 0 20 7 20 20 0 13 -7 20 -20 20
-13 0 -20 -7 -20 -20z"/>
<path d="M7160 5924 c0 -9 5 -14 12 -12 18 6 21 28 4 28 -9 0 -16 -7 -16 -16z"/>
<path d="M7355 5931 c-3 -5 -1 -12 5 -16 12 -7 30 2 30 16 0 12 -27 12 -35 0z"/>
<path d="M5690 5924 c0 -9 7 -14 17 -12 25 5 28 28 4 28 -12 0 -21 -6 -21 -16z"/>
<path d="M6382 5928 c6 -18 25 -20 31 -3 5 10 0 15 -14 15 -12 0 -19 -5 -17
-12z"/>
<path d="M6650 5924 c0 -9 7 -14 17 -12 25 5 28 28 4 28 -12 0 -21 -6 -21 -16z"/>
<path d="M6874 5966 c-9 -23 0 -51 16 -51 10 0 15 10 15 29 0 32 -21 47 -31
22z"/>
<path d="M8634 4765 c3 -8 0 -15 -6 -15 -9 0 -9 -3 -1 -11 6 -6 16 -8 21 -5
12 7 4 46 -10 46 -6 0 -8 -7 -4 -15z"/>
<path d="M7794 4765 c-3 -8 -3 -19 1 -25 11 -18 25 -11 25 15 0 27 -17 34 -26
10z"/>
<path d="M7890 4739 c0 -5 5 -7 10 -4 6 3 10 8 10 11 0 2 -4 4 -10 4 -5 0 -10
-5 -10 -11z"/>
<path d="M6653 4764 c-8 -21 13 -42 28 -27 13 13 5 43 -11 43 -6 0 -13 -7 -17
-16z"/>
<path d="M6750 4754 c0 -30 16 -39 23 -14 3 12 14 20 26 20 12 0 21 4 21 8 0
4 -16 8 -35 8 -30 0 -35 -3 -35 -22z"/>
<path d="M8045 4770 c-3 -5 1 -10 9 -10 9 0 16 5 16 10 0 6 -4 10 -9 10 -6 0
-13 -4 -16 -10z"/>
<path d="M8050 4740 c-13 -8 -12 -10 3 -10 9 0 17 5 17 10 0 12 -1 12 -20 0z"/>
<path d="M6976 4769 c3 -5 11 -9 19 -9 7 0 16 -6 18 -12 4 -8 6 -7 6 3 1 10
-9 19 -24 21 -13 3 -22 1 -19 -3z"/>
<path d="M6967 4739 c7 -7 15 -10 18 -7 3 3 -2 9 -12 12 -14 6 -15 5 -6 -5z"/>
<path d="M7495 4740 c-3 -5 -2 -10 4 -10 5 0 13 5 16 10 3 6 2 10 -4 10 -5 0
-13 -4 -16 -10z"/>
<path d="M7664 4765 c-3 -8 -3 -19 1 -25 11 -18 25 -11 25 15 0 27 -17 34 -26
10z"/>
<path d="M8494 4765 c-3 -8 -3 -19 1 -25 11 -18 25 -11 25 15 0 27 -17 34 -26
10z"/>
<path d="M7295 4740 c-3 -5 -1 -10 4 -10 6 0 11 5 11 10 0 6 -2 10 -4 10 -3 0
-8 -4 -11 -10z"/>
<path d="M8415 4740 c-3 -5 -1 -10 4 -10 6 0 11 5 11 10 0 6 -2 10 -4 10 -3 0
-8 -4 -11 -10z"/>
<path d="M9626 6229 l-26 -20 0 -923 c0 -919 0 -923 21 -950 l20 -26 2119 0
2119 0 20 26 c21 27 21 31 21 950 l0 923 -26 20 -27 21 -2107 0 -2107 0 -27
-21z m884 -200 c0 -5 -7 -9 -15 -9 -18 0 -20 -16 -2 -24 10 -5 10 -7 0 -12 -8
-3 -13 -24 -13 -48 0 -46 -5 -57 -23 -50 -7 2 -11 21 -11 42 1 20 -2 42 -7 48
-13 16 13 63 36 67 24 4 35 -1 35 -14z m540 -65 c0 -59 -3 -74 -15 -74 -12 0
-15 16 -15 80 0 66 2 78 15 74 11 -5 15 -24 15 -80z m476 59 c-3 -3 -13 -2
-23 2 -17 7 -17 8 2 15 19 7 34 -5 21 -17z m-1314 -55 c-2 -40 -7 -76 -10 -80
-18 -18 -27 13 -24 80 3 59 7 72 20 72 15 0 17 -10 14 -72z m666 58 c12 -7 15
-123 4 -130 -4 -2 -27 -6 -50 -7 l-44 -3 0 69 c0 39 1 72 1 75 1 7 77 3 89 -4z
m-988 -6 c0 -5 -9 -10 -20 -10 -18 0 -20 -7 -20 -60 0 -50 -3 -60 -17 -60 -15
0 -18 9 -18 57 0 53 -2 58 -22 61 -47 7 -21 22 37 22 33 0 60 -4 60 -10z m150
-1 c0 -19 26 -39 37 -28 6 6 26 9 44 7 33 -3 34 -4 37 -56 l3 -53 -43 3 c-40
3 -43 5 -43 33 0 25 4 30 28 33 44 5 31 19 -18 18 -44 -1 -45 -2 -45 -34 0
-20 4 -31 10 -27 6 3 10 0 10 -8 0 -8 -12 -17 -27 -19 -27 -4 -28 -3 -24 40 2
30 -1 48 -10 54 -11 7 -11 11 -1 15 6 2 12 11 12 19 0 8 7 14 15 14 8 0 15 -5
15 -11z m270 -59 c0 -60 -3 -70 -17 -70 -16 0 -18 9 -15 70 3 52 7 70 18 70
11 0 14 -16 14 -70z m1060 0 c0 -56 -3 -70 -15 -70 -12 0 -15 14 -15 70 0 56
3 70 15 70 12 0 15 -14 15 -70z m108 -17 c2 -43 0 -53 -12 -53 -11 0 -16 10
-17 30 -1 17 -3 35 -4 40 -1 6 -3 13 -4 17 -4 22 -23 -21 -23 -51 0 -23 -5
-36 -13 -36 -13 0 -22 46 -17 91 3 24 6 25 45 20 l42 -6 3 -52z m-1495 37 c16
-23 12 -64 -8 -80 -8 -6 -28 -10 -46 -8 -39 4 -56 39 -40 81 9 22 17 27 45 27
24 0 39 -7 49 -20z m435 -37 c2 -42 0 -53 -12 -53 -10 0 -16 13 -18 43 -2 23
-7 42 -13 42 -5 0 -11 -19 -13 -42 -2 -29 -8 -43 -18 -43 -10 0 -14 14 -14 56
l0 55 43 -3 42 -3 3 -52z m182 -1 c3 -29 5 -54 4 -55 -2 -1 -23 -1 -49 1 -45
4 -46 5 -43 36 2 26 8 32 31 34 15 2 25 8 22 13 -4 5 -17 6 -31 3 -13 -3 -24
-2 -24 3 0 18 14 24 50 21 35 -3 35 -4 40 -56z m117 -17 c0 -65 -2 -75 -17
-75 -11 0 -17 7 -16 18 1 12 -6 17 -26 17 -31 -1 -43 21 -39 70 4 43 7 45 55
45 l43 0 0 -75z m223 29 c0 -59 24 -55 28 4 2 32 7 42 20 42 14 0 16 -9 14
-56 l-4 -55 -41 3 -42 3 -5 53 c-5 45 -3 52 12 52 15 0 18 -9 18 -46z m212 29
c17 -15 18 -15 18 0 0 13 10 17 44 17 49 0 56 -8 56 -71 0 -31 -4 -39 -18 -39
-15 0 -18 6 -14 30 6 39 -3 61 -23 54 -10 -4 -15 -19 -15 -43 0 -21 -2 -40 -4
-42 -3 -2 -33 -2 -68 1 -62 5 -63 5 -63 35 0 27 4 30 33 33 18 2 30 7 27 12
-3 5 -19 7 -36 3 -24 -5 -28 -3 -23 11 8 21 62 21 86 -1z m380 -42 c-5 -76
-28 -75 -34 1 -3 54 -2 58 21 58 13 0 15 -10 13 -59z m1698 -389 c51 -4 64
-22 61 -84 -4 -74 -14 -88 -61 -88 -21 0 -42 5 -45 10 -13 22 -18 120 -6 134
6 7 9 22 5 32 -3 11 -2 15 3 9 4 -6 24 -12 43 -13z m-466 -37 c7 -37 2 -63
-11 -58 -17 7 -16 -1 2 -37 21 -41 36 -37 34 8 -5 79 -3 82 44 82 54 0 67 -13
67 -66 0 -48 -26 -76 -61 -67 -15 4 -19 0 -19 -21 0 -24 -8 -30 -27 -23 -4 1
-6 12 -5 25 3 19 -1 22 -27 22 -24 0 -32 5 -37 25 -8 33 -33 53 -43 36 -5 -7
-6 -23 -3 -37 3 -19 0 -24 -17 -24 -20 0 -21 5 -21 84 l0 85 43 3 c49 3 76 -9
81 -37z m356 -50 c0 -74 -2 -85 -17 -85 -16 0 -18 9 -15 69 l4 69 -26 -5 c-32
-7 -35 14 -3 27 53 21 57 17 57 -75z m340 66 c5 -11 10 -41 10 -66 0 -67 -13
-85 -59 -85 -35 0 -40 3 -50 31 -14 39 -14 80 -1 113 8 22 16 26 49 26 30 0
43 -5 51 -19z m140 -7 c6 -14 10 -40 10 -59 0 -19 -4 -45 -10 -59 -8 -22 -16
-26 -49 -26 -48 0 -61 18 -61 85 0 67 13 85 61 85 33 0 41 -4 49 -26z m124 20
c12 -5 16 -21 16 -73 0 -76 -9 -91 -56 -91 -40 0 -55 18 -62 75 -8 75 36 114
102 89z m-3508 -41 c16 -22 19 -234 4 -264 -10 -18 -23 -19 -225 -19 -140 0
-216 4 -220 11 -13 20 -9 258 5 274 10 12 46 15 218 15 183 0 206 -2 218 -17z
m2744 -108 c0 -8 -9 -15 -20 -15 -11 0 -20 7 -20 15 0 8 9 15 20 15 11 0 20
-7 20 -15z m380 -10 c0 -14 -7 -28 -15 -32 -22 -8 -27 0 -19 31 8 34 34 34 34
1z m-150 -565 c-9 -17 -8 -20 13 -20 12 0 28 -5 35 -12 9 -9 12 -9 12 0 0 7 7
12 15 12 11 0 15 -11 15 -36 0 -23 4 -33 11 -28 6 3 9 19 7 35 -5 33 16 47 32
21 9 -14 10 -12 5 11 -4 20 -1 27 9 27 16 0 23 -36 17 -88 l-3 -33 -52 3 c-48
3 -51 5 -55 33 l-4 30 -6 -30 c-5 -26 -11 -30 -44 -33 l-37 -3 0 60 c0 48 3
60 18 64 9 3 18 5 20 6 1 0 -2 -8 -8 -19z m-1655 0 c-3 -5 -13 -10 -21 -10
-10 0 -14 -13 -14 -50 0 -38 -4 -50 -15 -50 -11 0 -15 12 -15 50 0 38 -4 50
-15 50 -8 0 -15 5 -15 10 0 6 23 10 51 10 31 0 48 -4 44 -10z m127 -21 c5 -3
5 -17 -1 -32 -6 -14 -6 -29 -2 -32 5 -3 11 2 15 10 3 8 15 15 26 15 11 0 20 4
20 9 0 5 -9 7 -20 4 -21 -6 -23 -3 -14 20 4 11 13 13 32 8 23 -6 27 -13 30
-49 l3 -42 -60 1 -61 1 0 33 c0 19 -4 36 -10 40 -5 3 -2 14 8 26 12 14 18 16
21 7 2 -7 8 -16 13 -19z m128 -29 c0 -47 -3 -60 -15 -60 -12 0 -15 13 -15 60
0 47 3 60 15 60 12 0 15 -13 15 -60z m390 45 c0 -9 9 -15 24 -15 13 0 27 -6
29 -12 4 -9 8 -10 14 -2 4 6 20 13 35 16 31 6 38 -5 38 -58 0 -32 -2 -34 -33
-34 -18 0 -38 5 -45 12 -9 9 -12 9 -12 0 0 -7 -14 -12 -34 -12 -34 0 -34 0
-38 50 -1 28 -1 55 0 60 6 16 22 12 22 -5z m609 -45 c1 -48 -1 -60 -14 -60
-13 0 -15 12 -14 60 1 39 6 60 14 60 8 0 13 -21 14 -60z m156 50 c3 -5 -2 -10
-12 -10 -14 0 -15 -2 -4 -9 9 -6 10 -11 2 -15 -6 -4 -11 -23 -11 -42 0 -22 -5
-34 -14 -34 -17 0 -27 76 -14 103 9 18 43 23 53 7z m680 0 c4 -6 -5 -10 -20
-10 -15 0 -24 4 -20 10 3 6 12 10 20 10 8 0 17 -4 20 -10z m125 0 c0 -5 -9
-10 -21 -10 -11 0 -17 5 -14 10 3 6 13 10 21 10 8 0 14 -4 14 -10z m-2130 -64
c0 -51 -78 -63 -91 -14 -8 31 6 54 36 61 21 4 55 -25 55 -47z m296 25 l11 -25
7 22 c5 16 15 22 37 22 16 0 29 -4 29 -10 0 -5 5 -10 10 -10 6 0 9 5 8 12 -2
7 16 10 57 9 33 -2 63 -5 67 -7 5 -3 8 -23 8 -45 0 -28 -4 -39 -15 -39 -10 0
-15 11 -15 35 0 19 -4 35 -10 35 -10 0 -14 -20 -12 -52 1 -10 -5 -18 -13 -18
-8 0 -15 6 -16 13 -1 6 -2 21 -3 31 -2 36 -26 30 -26 -6 0 -34 0 -34 -51 -36
-45 -2 -52 1 -57 20 l-5 22 -8 -22 c-5 -13 -17 -22 -29 -22 -11 0 -20 -7 -20
-15 0 -8 -7 -15 -15 -15 -12 0 -15 13 -15 58 0 32 2 61 5 63 2 3 17 5 32 4 20
0 31 -7 39 -24z m564 -27 l0 -45 -37 3 c-30 2 -38 7 -38 23 0 12 8 21 20 23
11 2 25 9 30 14 7 8 4 9 -8 4 -10 -3 -27 -6 -37 -6 -12 0 -21 -13 -30 -45 -11
-39 -16 -45 -39 -45 -25 1 -25 1 -7 15 17 13 17 17 3 59 -15 44 -15 46 4 46
13 0 19 -7 20 -22 l0 -23 9 23 c10 24 30 30 30 10 0 -10 2 -10 8 -2 7 12 51
23 65 16 4 -2 7 -23 7 -48z m93 42 l42 -1 3 -43 3 -43 -38 3 c-35 3 -38 6 -38
32 0 16 -6 31 -12 33 -9 3 -13 -7 -13 -31 0 -25 -4 -36 -15 -36 -11 0 -15 11
-15 43 0 49 5 58 27 50 8 -3 34 -6 56 -7z m537 -56 c0 -59 -17 -90 -27 -52 -3
12 -15 22 -27 24 -17 2 -21 10 -21 43 0 36 3 40 30 46 17 3 33 4 38 2 4 -2 7
-31 7 -63z m-402 13 c2 -34 0 -43 -12 -43 -12 0 -16 10 -16 35 0 19 -4 35 -10
35 -5 0 -10 -16 -10 -35 0 -55 -27 -46 -32 10 l-3 46 40 -3 c39 -3 40 -4 43
-45z m162 2 c0 -52 -17 -61 -22 -12 -2 17 -7 32 -13 32 -5 0 -11 -15 -13 -32
-5 -49 -22 -40 -22 12 0 45 0 45 35 45 35 0 35 0 35 -45z m141 43 c0 -2 2 -22
5 -46 l5 -43 -38 3 c-30 2 -38 7 -38 23 0 13 8 21 23 23 12 2 22 8 22 13 0 5
-11 7 -25 3 -23 -6 -33 4 -18 19 6 6 62 10 64 5z m437 -45 c3 -43 3 -43 -32
-43 -19 0 -37 4 -40 9 -11 18 6 41 31 41 14 0 22 4 18 10 -4 6 -15 8 -26 5
-13 -5 -19 -2 -19 10 0 12 8 16 33 13 30 -3 32 -6 35 -45z m90 0 c2 -34 0 -43
-12 -43 -12 0 -16 10 -16 35 0 19 -4 35 -10 35 -5 0 -10 -16 -10 -35 0 -24 -5
-35 -15 -35 -11 0 -15 12 -15 46 l0 45 38 -3 c36 -3 37 -4 40 -45z m82 2 c0
-33 -4 -45 -15 -45 -11 0 -15 12 -15 45 0 33 4 45 15 45 11 0 15 -12 15 -45z
m84 29 c12 -31 7 -74 -9 -74 -10 0 -15 11 -15 35 0 19 -4 35 -9 35 -13 0 -20
-25 -14 -49 4 -15 1 -21 -11 -21 -12 0 -16 10 -16 45 0 44 0 45 34 45 22 0 36
-6 40 -16z m36 -29 c0 -25 -4 -45 -9 -45 -5 0 -11 20 -13 45 -2 31 1 45 9 45
9 0 13 -16 13 -45z"/>
<path d="M10817 6004 c-9 -9 4 -34 18 -34 14 0 27 25 18 34 -4 3 -12 6 -18 6
-6 0 -14 -3 -18 -6z"/>
<path d="M10820 5930 c0 -15 5 -20 18 -18 9 2 17 10 17 18 0 8 -8 16 -17 18
-13 2 -18 -3 -18 -18z"/>
<path d="M10100 5924 c0 -9 5 -14 12 -12 18 6 21 28 4 28 -9 0 -16 -7 -16 -16z"/>
<path d="M9922 5967 c-14 -16 -4 -57 14 -57 19 0 27 18 20 46 -7 27 -18 30
-34 11z"/>
<path d="M10542 5929 c2 -6 8 -10 13 -10 5 0 11 4 13 10 2 6 -4 11 -13 11 -9
0 -15 -5 -13 -11z"/>
<path d="M10652 5967 c-14 -17 -4 -57 14 -57 8 0 14 3 15 8 0 4 2 15 4 24 4
24 -19 42 -33 25z"/>
<path d="M11157 5941 c-2 -10 -1 -25 4 -32 6 -10 9 -4 9 19 0 36 -5 42 -13 13z"/>
<path d="M11090 5924 c0 -9 7 -14 17 -12 25 5 28 28 4 28 -12 0 -21 -6 -21
-16z"/>
<path d="M13216 5514 c-10 -27 -7 -89 6 -102 19 -19 38 6 38 52 0 54 -30 88
-44 50z"/>
<path d="M12678 5518 c-8 -23 4 -49 19 -44 8 3 19 6 25 6 5 0 8 10 6 23 -3 25
-43 37 -50 15z"/>
<path d="M12827 5483 c-11 -10 -8 -71 3 -78 14 -9 40 19 40 42 0 29 -27 52
-43 36z"/>
<path d="M13396 5514 c-9 -23 -7 -87 3 -103 17 -26 41 6 41 53 0 54 -30 88
-44 50z"/>
<path d="M13532 5518 c-27 -27 -3 -132 25 -115 17 11 23 64 12 97 -12 33 -19
36 -37 18z"/>
<path d="M13667 5523 c-4 -3 -7 -30 -7 -60 0 -40 4 -55 16 -60 22 -8 34 14 34
63 0 48 -23 78 -43 57z"/>
<path d="M9830 5450 c0 -24 15 -27 24 -4 9 22 8 24 -9 24 -8 0 -15 -9 -15 -20z"/>
<path d="M10134 5455 c3 -9 6 -19 6 -21 0 -2 7 -4 16 -4 22 0 13 34 -10 38
-14 3 -17 0 -12 -13z"/>
<path d="M9950 5418 c-11 -12 -20 -34 -20 -48 0 -31 37 -70 66 -70 28 0 64 41
64 71 0 33 -34 69 -65 69 -13 0 -33 -10 -45 -22z"/>
<path d="M9830 5291 c0 -12 6 -21 15 -21 8 0 15 4 15 9 0 5 -7 14 -15 21 -13
10 -15 9 -15 -9z"/>
<path d="M10142 5298 c-18 -18 -15 -28 8 -28 13 0 20 7 20 20 0 23 -10 26 -28
8z"/>
<path d="M13194 4765 c3 -8 0 -15 -6 -15 -9 0 -9 -3 -1 -11 6 -6 16 -8 21 -5
12 7 4 46 -10 46 -6 0 -8 -7 -4 -15z"/>
<path d="M11705 4740 c-3 -5 -2 -10 4 -10 5 0 13 5 16 10 3 6 2 10 -4 10 -5 0
-13 -4 -16 -10z"/>
<path d="M12182 4758 c5 -32 28 -35 28 -4 0 17 -5 26 -16 26 -10 0 -14 -7 -12
-22z"/>
<path d="M12263 4773 c-13 -2 -23 -8 -23 -12 0 -5 11 -6 25 -3 14 2 25 8 25
13 0 5 -1 8 -2 8 -2 -1 -13 -4 -25 -6z"/>
<path d="M12280 4740 c-9 -6 -10 -10 -3 -10 6 0 15 5 18 10 8 12 4 12 -15 0z"/>
<path d="M11556 4763 c-9 -22 10 -41 25 -26 13 13 5 43 -10 43 -5 0 -12 -8
-15 -17z"/>
<path d="M11870 4755 c0 -17 5 -25 13 -22 6 2 12 12 12 22 0 10 -6 20 -12 23
-8 2 -13 -6 -13 -23z"/>
<path d="M11960 4770 c0 -5 5 -10 10 -10 6 0 10 5 10 10 0 6 -4 10 -10 10 -5
0 -10 -4 -10 -10z"/>
<path d="M12012 4750 c0 -14 2 -19 5 -12 2 6 2 18 0 25 -3 6 -5 1 -5 -13z"/>
<path d="M11968 4733 c7 -3 16 -2 19 1 4 3 -2 6 -13 5 -11 0 -14 -3 -6 -6z"/>
<path d="M12440 4740 c-9 -6 -10 -10 -3 -10 6 0 15 5 18 10 8 12 4 12 -15 0z"/>
<path d="M12570 4770 c-13 -8 -12 -10 3 -10 9 0 17 5 17 10 0 12 -1 12 -20 0z"/>
<path d="M12575 4740 c-3 -5 -2 -10 4 -10 5 0 13 5 16 10 3 6 2 10 -4 10 -5 0
-13 -4 -16 -10z"/>
<path d="M13054 4765 c-3 -8 -3 -19 1 -25 11 -18 25 -11 25 15 0 27 -17 34
-26 10z"/>
<path d="M12975 4740 c-3 -5 -1 -10 4 -10 6 0 11 5 11 10 0 6 -2 10 -4 10 -3
0 -8 -4 -11 -10z"/>
<path d="M1124 3865 c0 -53 4 -75 12 -75 8 0 14 17 16 43 2 29 8 42 18 42 10
0 16 -13 18 -42 2 -24 8 -43 13 -43 6 0 9 22 7 53 -3 48 -5 52 -30 55 -20 2
-28 9 -28 23 0 10 -6 19 -13 19 -9 0 -13 -21 -13 -75z"/>
<path d="M670 3860 l0 -70 33 0 c43 0 67 26 67 72 0 43 -25 68 -68 68 l-32 0
0 -70z m68 38 c7 -7 12 -24 12 -38 0 -30 -17 -50 -42 -50 -15 0 -18 9 -18 50
0 41 3 50 18 50 10 0 23 -5 30 -12z"/>
<path d="M1415 3920 c4 -6 11 -8 16 -5 14 9 11 15 -7 15 -8 0 -12 -5 -9 -10z"/>
<path d="M1515 3920 c3 -5 8 -10 11 -10 2 0 4 5 4 10 0 6 -5 10 -11 10 -5 0
-7 -4 -4 -10z"/>
<path d="M1675 3920 c3 -5 8 -10 11 -10 2 0 4 5 4 10 0 6 -5 10 -11 10 -5 0
-7 -4 -4 -10z"/>
<path d="M900 3903 c-10 -12 -11 -18 -2 -21 7 -2 12 -21 12 -43 0 -38 21 -62
38 -44 4 4 1 10 -5 12 -17 6 -17 70 -1 75 9 3 8 9 -4 21 -20 20 -19 20 -38 0z"/>
<path d="M801 3886 c-8 -9 -8 -16 -2 -20 5 -4 12 -2 16 4 8 12 35 13 35 1 0
-5 -14 -14 -31 -20 -24 -8 -30 -15 -27 -33 2 -19 10 -24 46 -26 l42 -3 0 36
c0 20 -5 45 -10 56 -12 22 -52 25 -69 5z m49 -61 c0 -8 -9 -15 -20 -15 -20 0
-26 11 -13 23 12 13 33 7 33 -8z"/>
<path d="M983 3893 c-7 -2 -13 -11 -13 -19 0 -12 4 -12 20 -2 14 9 22 10 31 1
8 -8 5 -13 -12 -18 -39 -12 -50 -25 -38 -46 7 -13 21 -19 44 -19 34 0 35 1 35
39 0 22 -3 46 -6 55 -6 15 -36 20 -61 9z m47 -68 c0 -8 -9 -15 -20 -15 -20 0
-26 11 -13 23 12 13 33 7 33 -8z"/>
<path d="M1247 3893 c-4 -3 -7 -12 -7 -20 0 -11 4 -11 20 -1 15 10 22 10 32 0
9 -9 5 -13 -19 -18 -60 -12 -53 -64 8 -64 l39 0 0 43 c0 24 -5 48 -12 55 -13
13 -50 16 -61 5z m53 -62 c0 -15 -19 -23 -38 -16 -14 5 -14 7 -2 15 19 12 40
13 40 1z"/>
<path d="M1345 3848 c0 -32 5 -53 13 -55 8 -3 12 8 12 36 0 28 5 44 15 47 25
10 17 24 -13 24 -26 0 -27 -2 -27 -52z"/>
<path d="M1410 3845 c0 -42 3 -55 15 -55 12 0 15 13 15 55 0 42 -3 55 -15 55
-12 0 -15 -13 -15 -55z"/>
<path d="M1510 3845 c0 -30 5 -55 10 -55 6 0 10 25 10 55 0 30 -4 55 -10 55
-5 0 -10 -25 -10 -55z"/>
<path d="M1560 3843 c0 -29 5 -53 10 -53 6 0 10 18 10 40 0 27 5 43 15 47 21
7 26 1 29 -39 4 -46 5 -48 16 -48 13 0 13 66 0 90 -7 14 -20 19 -45 18 l-35
-1 0 -54z"/>
<path d="M1670 3845 c0 -30 5 -55 10 -55 6 0 10 25 10 55 0 30 -4 55 -10 55
-5 0 -10 -25 -10 -55z"/>
<path d="M660 3290 l0 -200 530 0 530 0 0 200 0 200 -530 0 -530 0 0 -200z
m482 38 l27 -33 1 33 c0 22 5 32 15 32 10 0 15 -10 15 -31 0 -28 1 -29 16 -15
32 33 74 13 74 -36 0 -17 -7 -31 -20 -38 -24 -13 -60 -5 -60 13 0 7 -5 4 -11
-5 -14 -25 -25 -22 -46 12 -22 38 -33 38 -33 -1 0 -20 -4 -29 -12 -27 -8 3
-14 28 -16 66 -3 73 8 80 50 30z"/>
<path d="M1232 3283 c5 -25 28 -28 28 -4 0 12 -6 21 -16 21 -9 0 -14 -7 -12
-17z"/>
<path d="M1730 3290 l0 -200 1520 0 1520 0 0 200 0 200 -1520 0 -1520 0 0
-200z m135 38 l20 -33 3 33 c2 20 9 32 18 32 12 0 14 -12 12 -62 -3 -71 -18
-83 -45 -38 l-18 31 -5 -27 c-3 -15 -11 -29 -17 -32 -10 -3 -13 14 -13 62 0
76 14 86 45 34z m527 4 c-2 -12 2 -22 7 -22 6 0 11 4 11 10 0 5 23 9 50 9 39
-1 50 -5 50 -18 1 -14 2 -14 14 2 7 9 18 17 25 17 6 0 11 -8 11 -17 1 -16 2
-16 13 -2 7 9 29 16 54 17 48 2 67 -18 61 -65 -2 -20 -9 -27 -30 -29 -34 -3
-58 18 -52 48 2 13 -3 6 -12 -14 -19 -43 -31 -48 -43 -16 l-8 22 -12 -22 c-15
-28 -27 -21 -36 18 -8 36 -24 32 -18 -4 7 -32 -28 -44 -63 -22 -15 11 -23 12
-22 5 4 -18 -77 -20 -99 -2 -13 11 -15 16 -5 20 9 3 10 9 2 18 -6 7 -8 20 -4
29 7 18 49 22 59 6 9 -14 27 -1 21 15 -6 16 4 27 18 22 6 -2 10 -14 8 -25z
m-394 -14 c6 -7 12 -26 15 -43 3 -24 4 -21 6 13 l1 43 62 -3 c57 -3 63 -5 69
-28 l6 -25 4 25 c3 18 11 26 30 28 33 4 51 -18 47 -59 -3 -27 -7 -32 -33 -35
-16 -2 -35 1 -41 7 -8 7 -14 6 -19 -1 -11 -17 -25 -1 -25 30 0 44 -18 46 -22
3 -3 -41 -21 -48 -26 -11 -6 47 -16 53 -21 13 -6 -40 -6 -40 -51 -41 -64 -1
-70 3 -70 46 0 21 6 41 13 43 22 10 44 7 55 -5z"/>
<path d="M2393 3287 c2 -10 47 -31 53 -24 2 1 -10 10 -26 19 -19 11 -29 13
-27 5z"/>
<path d="M2638 3263 c7 -3 16 -2 19 1 4 3 -2 6 -13 5 -11 0 -14 -3 -6 -6z"/>
<path d="M2188 3263 c7 -3 16 -2 19 1 4 3 -2 6 -13 5 -11 0 -14 -3 -6 -6z"/>
<path d="M4780 3290 l0 -200 2090 0 2090 0 0 200 0 200 -2090 0 -2090 0 0
-200z m850 54 c0 -8 9 -14 19 -14 11 0 23 -5 26 -10 4 -6 13 -7 23 -1 27 14
96 9 109 -8 11 -14 12 -14 13 0 0 13 11 17 44 17 49 1 62 -9 69 -53 3 -24 4
-22 6 12 l1 42 53 -1 c28 0 57 -5 64 -10 7 -5 14 -5 18 2 5 8 74 15 76 8 9
-45 8 -87 -1 -93 -16 -10 -21 -2 -22 34 -1 44 -28 41 -28 -3 l0 -34 -47 3
c-27 2 -51 3 -55 4 -5 0 -8 14 -8 30 0 44 -18 47 -22 4 -3 -38 -3 -38 -48 -39
-60 0 -71 5 -69 30 3 42 -3 40 -20 -9 -13 -37 -23 -51 -39 -53 -25 -4 -29 13
-7 26 14 7 14 12 1 43 l-14 34 -4 -34 c-2 -29 -7 -34 -30 -37 -16 -1 -34 4
-42 11 -12 12 -16 12 -26 0 -7 -8 -25 -15 -41 -15 -29 0 -29 0 -29 63 0 35 3
67 6 70 10 9 24 -2 24 -19z m-690 -26 c0 -41 1 -42 13 -18 14 28 51 38 73 20
11 -10 14 -10 14 0 0 9 13 11 45 8 38 -5 45 -3 43 11 -2 9 4 16 12 16 10 0 14
-8 12 -22 -2 -13 2 -23 7 -23 6 0 11 5 11 11 0 6 14 9 33 7 30 -3 32 -6 34
-45 2 -34 -1 -43 -17 -48 -10 -3 -29 -1 -41 5 -12 7 -24 8 -28 3 -3 -4 -18 -9
-33 -10 -25 -1 -28 2 -28 33 0 19 -4 34 -10 34 -5 0 -10 -13 -10 -29 0 -30
-21 -54 -28 -33 -3 9 -9 9 -24 1 -23 -12 -68 2 -68 22 0 6 -8 1 -18 -11 -23
-29 -72 -22 -72 10 0 21 15 27 25 10 14 -23 25 -7 25 40 0 38 4 50 15 50 11 0
15 -11 15 -42z m418 0 c9 -9 15 -9 24 0 15 15 51 15 66 0 9 -9 12 -9 12 0 0 9
18 12 63 10 l62 -3 3 -49 c4 -60 -20 -60 -29 0 -5 39 -15 33 -21 -14 -5 -35
-23 -31 -26 6 -4 39 -22 43 -22 4 0 -35 -9 -45 -26 -31 -8 7 -14 7 -19 -1 -10
-15 -41 -12 -60 7 -16 16 -18 16 -27 0 -5 -9 -18 -17 -28 -17 -12 0 -20 -7
-20 -16 0 -9 -6 -14 -12 -12 -13 5 -23 89 -14 114 7 17 58 18 74 2z"/>
<path d="M5637 3304 c-10 -11 -8 -44 2 -44 6 0 13 4 16 10 8 12 -9 43 -18 34z"/>
<path d="M5150 3290 c0 -11 50 -34 57 -26 3 2 -5 7 -16 11 -12 3 -21 11 -21
16 0 5 -4 9 -10 9 -5 0 -10 -5 -10 -10z"/>
<path d="M4993 3263 c9 -2 25 -2 35 0 9 3 1 5 -18 5 -19 0 -27 -2 -17 -5z"/>
<path d="M5310 3280 c0 -11 7 -20 15 -20 8 0 15 9 15 20 0 11 -7 20 -15 20 -8
0 -15 -9 -15 -20z"/>
<path d="M5413 3263 c9 -2 25 -2 35 0 9 3 1 5 -18 5 -19 0 -27 -2 -17 -5z"/>
<path d="M8970 3290 l0 -200 1070 0 1070 0 0 200 0 200 -1070 0 -1070 0 0
-200z m540 39 c0 -28 1 -29 16 -15 32 33 78 10 72 -36 -7 -49 -35 -62 -70 -31
-16 15 -18 15 -18 0 0 -12 -8 -15 -37 -13 -20 1 -39 8 -41 14 -2 7 -13 5 -32
-6 -27 -15 -30 -15 -48 1 -17 16 -20 16 -25 2 -11 -27 -26 -16 -29 23 -2 20
-7 37 -13 37 -5 0 -11 -17 -13 -37 -3 -37 -14 -48 -28 -27 -4 8 -9 8 -17 0
-19 -19 -47 -12 -65 17 -22 34 -69 34 -74 -1 -6 -46 -23 -20 -26 41 l-3 62 30
0 c39 0 61 -9 61 -26 0 -10 8 -12 30 -8 18 4 36 1 45 -6 10 -9 15 -9 15 -1 0
6 16 11 35 11 26 0 33 3 29 15 -4 10 0 15 10 15 9 0 16 -6 15 -12 -1 -7 -1
-21 0 -31 1 -17 2 -17 17 -3 20 20 48 20 65 0 11 -14 13 -14 21 0 5 9 17 16
27 16 11 0 21 9 24 21 8 30 27 14 27 -22z"/>
<path d="M9090 3314 c0 -17 22 -14 28 4 2 7 -3 12 -12 12 -9 0 -16 -7 -16 -16z"/>
<path d="M9362 3283 c5 -25 28 -28 28 -4 0 12 -6 21 -16 21 -9 0 -14 -7 -12
-17z"/>
<path d="M9452 3283 c5 -25 28 -28 28 -4 0 12 -6 21 -16 21 -9 0 -14 -7 -12
-17z"/>
<path d="M9198 3263 c7 -3 16 -2 19 1 4 3 -2 6 -13 5 -11 0 -14 -3 -6 -6z"/>
<path d="M9558 3263 c7 -3 16 -2 19 1 4 3 -2 6 -13 5 -11 0 -14 -3 -6 -6z"/>
<path d="M11120 3290 l0 -200 1310 0 1310 0 0 200 0 200 -1310 0 -1310 0 0
-200z m675 9 l0 -64 -45 -1 c-64 -1 -71 3 -67 42 5 43 18 57 48 52 19 -2 25
-11 30 -43 5 -35 6 -32 8 23 1 46 4 63 14 60 8 -3 12 -26 12 -69z m-538 29
l18 -33 3 33 c5 47 32 43 32 -5 0 -37 0 -37 16 -15 18 26 62 30 71 6 5 -15 7
-15 15 0 7 12 24 16 68 16 36 0 60 -4 60 -11 0 -5 5 -7 10 -4 6 3 10 15 10 26
0 12 5 19 13 16 6 -2 11 -10 10 -18 -2 -10 9 -14 40 -14 l42 0 3 -49 c2 -36 0
-47 -10 -44 -7 3 -14 19 -16 36 -4 41 -20 41 -24 0 -3 -30 -5 -32 -50 -33 -48
-2 -48 -2 -48 31 0 34 -19 59 -21 27 -3 -49 -5 -57 -16 -60 -8 -3 -13 5 -13
20 0 34 -10 58 -21 51 -5 -3 -9 -21 -9 -40 0 -37 -13 -44 -29 -16 -6 9 -11 12
-11 6 -1 -33 -66 -25 -80 9 -8 21 -9 20 -9 -5 -1 -36 -15 -35 -43 3 l-23 31
-5 -28 c-3 -15 -11 -29 -17 -32 -10 -3 -13 14 -13 62 0 76 17 88 47 34z"/>
<path d="M11350 3280 c0 -11 7 -20 15 -20 8 0 15 9 15 20 0 11 -7 20 -15 20
-8 0 -15 -9 -15 -20z"/>
<path d="M1174 2935 c-15 -12 -15 -14 -2 -9 14 5 17 -3 21 -48 l3 -53 2 63 c1
34 1 62 -1 62 -2 0 -12 -7 -23 -15z"/>
<path d="M2630 2890 c0 -35 2 -61 5 -58 8 7 9 108 1 115 -3 3 -6 -22 -6 -57z"/>
<path d="M5007 2930 c-9 -11 -12 -20 -7 -20 6 0 10 -19 10 -42 0 -57 8 -44 11
17 1 28 7 53 13 57 7 5 7 8 1 8 -6 0 -18 -9 -28 -20z"/>
<path d="M9072 2888 c0 -35 3 -49 5 -31 3 26 9 33 31 36 l27 4 -27 2 c-21 1
-28 6 -28 20 0 15 8 21 33 24 31 4 31 4 -5 5 l-38 2 2 -62z"/>
<path d="M9241 2895 c-1 -58 0 -61 24 -63 18 -1 29 5 36 22 15 31 -5 70 -31
63 -13 -3 -20 1 -23 17 -2 11 -5 -6 -6 -39z m50 -6 c9 -17 8 -25 -4 -36 -19
-19 -37 -9 -37 21 0 40 23 49 41 15z"/>
<path d="M11221 2888 c1 -35 4 -51 6 -35 5 34 30 35 45 2 6 -14 15 -25 20 -25
5 0 1 11 -7 24 -11 16 -13 26 -6 31 6 3 11 17 11 30 0 23 -17 35 -51 35 -17 0
-19 -7 -18 -62z m54 27 c0 -13 -8 -21 -22 -23 -19 -3 -23 1 -23 23 0 22 4 26
23 23 14 -2 22 -10 22 -23z"/>
<path d="M11504 2935 c-15 -12 -15 -14 -2 -9 14 5 17 -3 21 -48 l3 -53 2 63
c1 34 1 62 -1 62 -2 0 -12 -7 -23 -15z"/>
<path d="M11581 2928 c-10 -26 -4 -78 10 -93 6 -6 16 -6 27 1 12 8 17 25 17
60 0 43 -3 49 -23 52 -16 2 -25 -3 -31 -20z m44 -39 c0 -32 -4 -44 -15 -44
-16 0 -26 54 -16 82 12 30 31 6 31 -38z"/>
<path d="M11704 2937 c-3 -8 -4 -34 -2 -58 3 -39 6 -44 28 -44 24 0 25 3 25
55 0 49 -2 55 -23 58 -12 2 -24 -3 -28 -11z m41 -48 c0 -32 -4 -44 -15 -44
-16 0 -26 54 -16 82 12 30 31 6 31 -38z"/>
<path d="M11797 2944 c-10 -10 -9 -86 2 -102 5 -8 17 -12 27 -10 16 3 19 12
19 58 0 48 -3 55 -20 58 -12 2 -24 0 -28 -4z m38 -55 c0 -32 -4 -44 -15 -44
-16 0 -26 54 -16 82 12 30 31 6 31 -38z"/>
<path d="M11887 2944 c-4 -4 -7 -29 -7 -55 0 -40 4 -49 21 -54 31 -10 41 6 37
61 -2 40 -7 50 -23 52 -12 2 -24 0 -28 -4z m38 -55 c0 -32 -4 -44 -15 -44 -16
0 -26 54 -16 82 12 30 31 6 31 -38z"/>
<path d="M2052 2923 c-7 -7 -8 -13 -3 -13 5 0 11 -17 13 -37 2 -20 9 -38 16
-39 7 -1 8 0 2 3 -12 6 -13 70 -1 75 5 2 4 8 -3 14 -8 8 -15 7 -24 -3z"/>
<path d="M1867 2901 c9 -8 13 -26 11 -43 -3 -15 -1 -28 3 -28 4 0 9 17 11 38
4 52 31 50 39 -3 l6 -40 1 35 c2 47 -6 56 -49 56 -32 0 -35 -2 -22 -15z"/>
<path d="M1962 2890 c-2 -35 12 -60 32 -60 5 0 2 6 -7 13 -9 6 -18 28 -20 47
l-4 35 -1 -35z"/>
<path d="M2019 2885 c-6 -40 -4 -53 7 -43 3 3 4 23 2 44 l-3 39 -6 -40z"/>
<path d="M2103 2873 l-1 -48 8 40 c4 22 5 43 1 48 -4 4 -8 -14 -8 -40z"/>
<path d="M2145 2908 c9 -5 16 -24 16 -46 l2 -37 6 40 c4 26 11 40 21 40 10 0
17 -14 21 -40 l7 -40 -2 45 -1 45 -43 1 c-29 0 -38 -3 -27 -8z"/>
<path d="M2257 2913 c-4 -3 -7 -11 -7 -17 0 -6 4 -5 9 3 10 15 41 8 41 -9 0
-5 -8 -10 -19 -10 -29 0 -45 -24 -26 -40 9 -7 18 -10 22 -6 3 3 1 6 -5 6 -7 0
-12 7 -12 15 0 9 9 15 21 15 14 0 19 -5 16 -15 -4 -8 -2 -17 3 -20 14 -9 12
59 -2 73 -13 13 -31 16 -41 5z"/>
<path d="M2333 2875 c0 -27 2 -38 4 -22 2 15 2 37 0 50 -2 12 -4 0 -4 -28z"/>
<path d="M2370 2875 c0 -27 2 -46 4 -44 8 8 10 78 3 85 -4 4 -7 -14 -7 -41z"/>
<path d="M2407 2913 c6 -4 13 -26 16 -48 4 -40 4 -40 3 4 -1 30 -6 46 -16 48
-10 3 -11 2 -3 -4z"/>
<path d="M2461 2871 l2 -46 6 40 c4 26 11 40 21 40 10 0 17 -14 21 -40 l7 -40
-2 45 c-1 42 -3 45 -28 46 -27 1 -28 -1 -27 -45z"/>
<path d="M2563 2913 c-7 -2 -13 -9 -13 -15 0 -6 6 -6 15 2 8 6 19 9 25 5 17
-11 11 -23 -12 -27 -36 -5 -31 -43 5 -44 27 -1 28 1 25 40 -3 40 -16 52 -45
39z m35 -55 c-7 -19 -38 -22 -38 -4 0 10 9 16 21 16 12 0 19 -5 17 -12z"/>
<path d="M2669 2911 c8 -5 17 -26 21 -47 l8 -39 1 36 c1 34 -13 59 -33 59 -6
0 -5 -4 3 -9z"/>
<path d="M4873 2875 c0 -27 2 -38 4 -22 2 15 2 37 0 50 -2 12 -4 0 -4 -28z"/>
<path d="M4911 2871 l2 -46 6 40 c4 26 12 41 23 43 13 3 18 -6 21 -40 l4 -43
-1 45 c-1 42 -3 45 -28 46 -27 1 -28 -1 -27 -45z"/>
<path d="M5067 2913 c-4 -3 -7 -11 -7 -17 0 -6 4 -5 9 3 10 15 41 8 41 -9 0
-5 -8 -10 -19 -10 -29 0 -45 -24 -26 -40 9 -7 18 -10 22 -6 3 3 1 6 -5 6 -7 0
-12 7 -12 15 0 9 9 15 21 15 14 0 19 -5 16 -15 -4 -8 -2 -17 3 -20 14 -9 12
59 -2 73 -13 13 -31 16 -41 5z"/>
<path d="M5152 2908 c-24 -24 -8 -79 23 -78 5 0 2 5 -7 11 -10 5 -18 21 -18
34 0 13 8 29 18 34 9 6 12 11 7 11 -6 0 -16 -5 -23 -12z"/>
<path d="M9160 2906 c-25 -31 13 -97 40 -70 8 8 4 10 -11 10 -12 -1 -24 5 -26
12 -3 8 6 12 26 12 32 0 41 16 19 38 -16 16 -33 15 -48 -2z m48 -13 c2 -8 -6
-13 -22 -13 -19 0 -24 4 -19 15 6 18 34 16 41 -2z"/>
<path d="M9332 2870 c1 -40 2 -41 5 -10 2 19 11 40 20 47 13 10 13 12 -6 10
-18 -1 -21 -7 -19 -47z"/>
<path d="M9382 2890 c-2 -35 12 -60 32 -60 5 0 2 6 -7 13 -9 6 -18 28 -20 47
l-4 35 -1 -35z"/>
<path d="M9438 2879 c-2 -22 -1 -42 2 -44 4 -2 7 16 9 41 3 55 -6 58 -11 3z"/>
<path d="M9480 2903 c-12 -15 -12 -16 0 -5 8 6 20 12 27 12 19 0 16 -28 -4
-33 -17 -4 -17 -5 0 -6 19 -1 23 -16 5 -27 -6 -4 -18 2 -25 12 -14 19 -15 19
-11 -1 2 -14 12 -20 31 -21 27 -1 28 1 25 40 -3 46 -26 59 -48 29z"/>
<path d="M9562 2870 c1 -40 2 -41 5 -10 2 19 11 40 20 47 13 10 13 12 -6 10
-18 -1 -21 -7 -19 -47z"/>
<path d="M9613 2875 c0 -27 2 -38 4 -22 2 15 2 37 0 50 -2 12 -4 0 -4 -28z"/>
<path d="M11322 2856 l1 -61 6 55 c4 40 10 55 21 55 23 0 25 -46 3 -63 -17
-13 -17 -14 2 -10 16 3 20 11 20 43 0 37 -2 40 -27 41 -28 1 -28 1 -26 -60z"/>
<path d="M1820 2870 c0 -22 2 -40 4 -40 2 0 6 18 8 40 2 22 0 40 -4 40 -5 0
-8 -18 -8 -40z"/>
<path d="M5196 2875 c1 -51 14 -56 14 -7 0 23 -3 42 -7 42 -5 0 -8 -16 -7 -35z"/>
<path d="M11665 2829 c-4 -6 -5 -12 -2 -15 2 -3 7 2 10 11 7 17 1 20 -8 4z"/>
<path d="M14188 206 c-40 -48 -48 -76 -33 -111 l13 -30 1 27 c1 29 17 46 24
26 2 -7 7 -10 11 -6 4 3 3 15 -3 26 -6 11 -7 22 -4 26 10 10 63 -45 63 -66 0
-27 19 -22 26 7 8 31 -18 74 -43 71 -14 -1 -17 5 -15 32 4 40 -5 40 -40 -2z"/>
</g>
</svg>
