<?xml version="1.0" standalone="no"?>
<!DOCTYPE svg PUBLIC "-//W3C//DTD SVG 20010904//EN"
 "http://www.w3.org/TR/2001/REC-SVG-20010904/DTD/svg10.dtd">
<svg version="1.0" xmlns="http://www.w3.org/2000/svg"
 width="1280.000000pt" height="709.000000pt" viewBox="0 0 1280.000000 709.000000"
 preserveAspectRatio="xMidYMid meet">

<g transform="translate(0.000000,709.000000) scale(0.100000,-0.100000)"
fill="#000000" stroke="none">
<path d="M0 3545 l0 -3545 6400 0 6400 0 0 3545 0 3545 -6400 0 -6400 0 0
-3545z m3265 3429 c35 -14 45 -58 45 -199 0 -131 -1 -137 -25 -160 l-24 -25
-509 0 c-487 0 -511 1 -533 19 -23 18 -24 27 -27 151 -4 149 -1 171 30 200 21
20 33 20 524 20 276 0 510 -3 519 -6z m1199 -15 l26 -20 0 -155 c0 -141 -2
-156 -20 -174 -11 -11 -28 -20 -37 -20 -10 0 -241 0 -513 0 l-495 0 -22 26
c-22 24 -23 34 -23 170 0 141 1 146 25 169 l24 25 504 0 c495 0 505 0 531 -21z
m1191 -4 c24 -23 25 -29 25 -168 0 -131 -2 -147 -21 -171 l-20 -26 -515 0
c-498 0 -515 1 -534 20 -28 28 -32 54 -28 193 3 117 5 127 27 151 l24 26 509
0 509 0 24 -25z m1186 -1 c23 -25 24 -31 24 -176 0 -145 -1 -150 -24 -169 -22
-18 -46 -19 -536 -19 l-514 0 -20 26 c-19 24 -21 40 -21 171 0 139 1 145 25
168 l24 25 509 0 509 0 24 -26z m1184 1 c24 -23 25 -28 25 -171 0 -138 -1
-149 -22 -171 l-21 -23 -513 0 -513 0 -21 22 c-18 20 -20 35 -20 170 0 145 1
150 25 173 l24 25 506 0 506 0 24 -25z m1190 0 c24 -23 25 -29 25 -168 0 -131
-2 -147 -21 -171 l-20 -26 -514 0 c-490 0 -514 1 -536 19 -22 18 -24 27 -27
141 -4 144 1 183 30 210 21 19 36 20 530 20 l509 0 24 -25z m1182 1 c27 -24
28 -27 31 -147 4 -133 -7 -192 -37 -209 -12 -6 -208 -10 -528 -10 l-508 -1
-22 26 c-22 25 -23 35 -23 171 0 141 1 146 25 169 l24 25 505 0 505 0 28 -24z
m1188 -1 c24 -23 25 -28 25 -171 0 -138 -1 -149 -22 -171 l-21 -23 -514 0
c-500 0 -514 1 -533 20 -18 18 -20 33 -20 174 l0 155 26 20 c26 21 36 21 531
21 l504 0 24 -25z m-10517 -111 c12 -8 20 -20 16 -26 -4 -6 -10 -6 -17 1 -16
16 -57 14 -57 -2 0 -8 18 -21 40 -30 46 -18 53 -47 18 -71 -29 -21 -41 -20
-69 3 -30 24 -19 39 12 17 28 -19 68 -4 48 20 -6 8 -18 14 -25 14 -22 0 -54
38 -47 56 5 13 33 31 53 33 3 1 16 -6 28 -15z m-418 -64 c0 -56 -3 -70 -15
-70 -12 0 -15 14 -15 70 0 56 3 70 15 70 12 0 15 -14 15 -70z m40 21 c0 -47
17 -81 40 -81 23 0 40 34 40 81 0 27 5 49 10 49 6 0 10 -25 10 -55 0 -42 -5
-60 -21 -76 -24 -24 -65 -20 -86 8 -15 20 -17 123 -3 123 6 0 10 -22 10 -49z
m218 37 c16 -16 15 -43 -3 -58 -13 -11 -13 -15 1 -41 12 -24 12 -29 1 -29 -8
0 -19 11 -25 25 -6 14 -18 25 -27 25 -9 0 -15 -9 -15 -25 0 -16 -6 -25 -15
-25 -12 0 -15 14 -15 70 l0 70 43 0 c24 0 48 -5 55 -12z m52 -58 c0 -40 -4
-70 -10 -70 -6 0 -10 30 -10 70 0 40 4 70 10 70 6 0 10 -30 10 -70z m10877 42
c6 -4 11 -24 10 -45 -1 -32 -3 -36 -13 -23 -14 20 -24 20 -24 1 0 -8 -4 -15
-10 -15 -11 0 -14 73 -3 83 8 9 25 9 40 -1z m533 -37 c0 -50 -10 -57 -30 -20
-17 32 -28 32 -33 -2 -3 -20 -4 -15 -6 15 -1 49 9 53 38 15 l20 -28 1 33 c0
17 2 32 5 32 3 0 5 -20 5 -45z m-246 -2 c-4 -16 -2 -28 7 -34 11 -7 11 -9 -2
-9 -16 0 -33 55 -22 73 10 17 23 -6 17 -30z m-204 2 c0 -8 -9 -15 -20 -15 -11
0 -20 -5 -20 -11 0 -6 9 -9 20 -6 11 3 20 1 20 -4 0 -14 -48 -11 -53 4 -2 6
-2 20 1 30 5 21 52 24 52 2z m80 -14 c0 -36 -24 -63 -48 -54 -14 6 -13 8 8 13
25 6 25 6 3 12 -17 4 -23 14 -23 32 0 22 4 26 30 26 27 0 30 -3 30 -29z m26
-1 c0 -16 -3 -30 -8 -30 -4 0 -8 14 -8 30 0 17 4 30 8 30 5 0 8 -13 8 -30z
m49 20 c-18 -7 -19 -8 -2 -15 26 -11 21 -35 -8 -35 -14 0 -25 4 -25 9 0 5 10
7 23 5 l22 -5 -22 12 c-32 17 -29 39 5 38 24 0 25 -1 7 -9z m125 -5 c0 -8 -9
-15 -20 -15 -11 0 -20 -5 -20 -11 0 -6 9 -9 20 -6 11 3 20 1 20 -4 0 -5 -9 -9
-20 -9 -21 0 -40 27 -33 48 7 18 53 15 53 -3z m44 7 c-7 -4 -14 -18 -17 -32
-4 -21 -4 -20 -6 8 -1 24 3 32 17 32 11 0 13 -3 6 -8z m200 -7 c9 -25 -4 -45
-30 -45 -20 0 -24 5 -24 30 0 25 4 30 24 30 13 0 26 -7 30 -15z m26 -2 c1 -17
1 -17 14 0 17 22 26 22 26 0 0 -15 2 -14 15 3 14 18 15 17 9 -11 -9 -40 -12
-42 -29 -19 -13 17 -14 17 -15 2 0 -28 -17 -21 -29 12 -6 18 -6 30 0 30 5 0 9
-8 9 -17z m-10390 -2769 c0 -124 -2 -135 -17 -132 -16 3 -18 19 -21 136 -2
127 -2 132 18 132 19 0 20 -6 20 -136z m90 41 c0 -82 3 -98 20 -115 23 -23 58
-26 86 -6 16 12 20 29 22 115 4 91 6 101 23 101 17 0 19 -8 19 -104 0 -95 -2
-107 -23 -132 -18 -20 -35 -28 -75 -32 -47 -4 -54 -2 -82 26 -30 30 -30 32
-30 136 0 99 1 106 20 106 19 0 20 -7 20 -95z m387 61 c30 -35 29 -67 -1 -103
l-25 -30 24 -39 c31 -50 31 -66 3 -62 -16 2 -31 19 -48 50 -21 40 -30 48 -52
48 -27 0 -28 -2 -28 -50 0 -43 -3 -50 -20 -50 -19 0 -20 7 -20 136 l0 137 72
-5 c62 -5 75 -9 95 -32z m101 -98 c-3 -125 -4 -133 -23 -133 -19 0 -20 8 -23
119 -1 66 0 126 2 133 3 7 15 13 26 13 20 0 20 -4 18 -132z m214 102 c10 -12
18 -28 18 -36 0 -21 -33 -17 -53 6 -30 35 -87 21 -87 -22 0 -12 13 -20 43 -28
67 -17 87 -28 97 -55 21 -55 -26 -105 -98 -105 -35 0 -49 6 -73 29 -16 16 -29
34 -29 40 0 18 39 12 60 -9 24 -24 72 -26 91 -4 20 24 -1 46 -57 61 -93 23
-114 99 -39 142 31 18 106 7 127 -19z m399 13 c80 -48 77 -194 -5 -238 -43
-23 -109 -16 -142 16 -65 61 -47 198 30 229 35 14 86 11 117 -7z m179 4 c0 -7
-10 -21 -22 -32 l-23 -20 23 -3 c29 -4 31 -42 2 -42 -18 0 -20 -7 -20 -81 0
-71 -2 -80 -17 -77 -15 3 -18 16 -21 81 -2 42 -7 77 -12 77 -6 0 -10 9 -10 20
0 11 5 20 10 20 6 0 10 9 10 19 0 11 7 27 16 35 19 19 64 21 64 3z m289 -2
c80 -41 80 -199 0 -240 -45 -24 -113 -15 -147 18 -20 21 -27 38 -30 84 -2 32
1 70 7 85 22 57 110 85 170 53z m541 -35 c0 -63 -25 -70 -35 -10 -7 43 -2 60
21 60 10 0 14 -13 14 -50z m506 19 c57 -53 56 -149 -2 -207 -32 -32 -38 -34
-85 -30 -60 6 -95 35 -110 90 -18 68 12 146 65 169 35 15 105 4 132 -22z m801
-3 c29 -35 29 -67 -1 -103 l-24 -29 24 -39 c30 -50 31 -67 2 -63 -15 2 -31 19
-47 51 -21 38 -31 47 -53 47 -25 0 -27 -3 -30 -47 -2 -35 -7 -48 -18 -48 -12
0 -15 23 -18 134 l-3 134 73 -5 c62 -5 75 -9 95 -32z m101 11 c4 -20 -25 -34
-40 -19 -15 15 -1 44 19 40 10 -2 19 -11 21 -21z m292 -24 c4 -35 8 -41 20
-33 25 16 59 11 80 -10 18 -18 20 -31 18 -98 -2 -60 -6 -77 -18 -77 -11 0 -16
17 -20 69 -4 51 -10 72 -22 80 -34 21 -52 -4 -58 -80 -4 -61 -7 -69 -25 -69
-19 0 -20 7 -21 125 0 69 2 129 4 133 2 4 11 7 20 5 12 -2 19 -17 22 -45z
m596 -78 c24 -66 44 -126 44 -133 0 -8 -9 -12 -22 -10 -15 2 -24 13 -30 36 -8
31 -11 32 -58 32 -48 0 -50 -2 -65 -36 -10 -25 -20 -34 -32 -32 -21 5 -21 9
19 118 53 147 55 152 79 148 17 -2 29 -25 65 -123z m196 24 c2 -86 6 -103 22
-115 28 -20 63 -17 86 6 17 17 20 33 20 115 0 88 1 95 20 95 19 0 20 -7 20
-106 0 -104 0 -106 -30 -136 -28 -28 -35 -30 -82 -26 -40 4 -57 12 -75 32 -21
25 -23 37 -23 132 0 96 2 104 19 104 17 0 19 -10 23 -101z m456 78 c4 -22 -27
-35 -38 -16 -10 15 7 42 24 36 6 -2 12 -11 14 -20z m1282 8 c0 -9 -7 -18 -15
-21 -8 -4 -15 -12 -15 -20 0 -8 7 -14 15 -14 8 0 15 -9 15 -20 0 -11 -7 -20
-15 -20 -11 0 -15 -18 -17 -77 -3 -70 -5 -78 -23 -78 -18 0 -20 8 -23 78 -2
42 -7 77 -12 77 -6 0 -10 9 -10 20 0 11 5 20 10 20 6 0 10 6 10 13 0 7 7 23
16 35 18 25 64 30 64 7z m290 0 c39 -20 60 -63 60 -120 0 -57 -21 -100 -60
-120 -60 -31 -137 -10 -165 45 -19 37 -19 113 0 150 29 55 105 76 165 45z
m1418 -8 c4 -20 -25 -34 -40 -19 -15 15 -1 44 19 40 10 -2 19 -11 21 -21z
m200 0 c4 -21 -27 -35 -38 -17 -12 19 0 42 19 38 9 -2 17 -11 19 -21z m-4222
-23 c-4 -11 1 -18 14 -21 22 -6 28 -43 6 -43 -18 0 -23 -16 -20 -70 2 -26 9
-49 18 -56 24 -17 19 -34 -8 -34 -41 0 -56 25 -56 92 0 46 -4 64 -17 74 -17
13 -17 15 0 28 9 7 17 21 17 30 0 11 9 16 26 16 20 0 25 -4 20 -16z m3504 -3
c0 -10 9 -21 20 -24 11 -3 20 -12 20 -21 0 -9 -8 -16 -20 -16 -18 0 -20 -7
-20 -55 0 -44 4 -57 20 -67 27 -17 25 -38 -4 -38 -42 0 -56 25 -56 96 0 50 -3
64 -15 64 -8 0 -15 7 -15 15 0 9 7 18 15 21 8 4 15 15 15 25 0 12 7 19 20 19
13 0 20 -7 20 -19z m610 -1 c0 -11 6 -20 14 -20 23 0 29 -31 6 -37 -17 -5 -20
-14 -20 -63 0 -42 4 -59 15 -64 20 -7 19 -36 -1 -36 -8 0 -24 5 -35 10 -16 9
-19 22 -19 80 0 56 -3 70 -15 70 -8 0 -15 9 -15 20 0 11 7 20 15 20 8 0 15 9
15 20 0 13 7 20 20 20 13 0 20 -7 20 -20z m-6435 -30 c4 -7 12 -7 25 0 29 16
58 12 80 -10 17 -17 20 -33 20 -100 0 -73 -2 -80 -20 -80 -18 0 -20 7 -20 61
0 68 -12 99 -39 99 -30 0 -40 -21 -43 -90 -3 -57 -5 -65 -23 -65 -18 0 -20 8
-23 84 -2 46 -1 90 2 98 6 15 32 17 41 3z m284 -5 c31 -15 41 -33 41 -71 0
-23 -3 -24 -65 -24 -36 0 -65 -3 -65 -6 0 -3 5 -14 10 -25 11 -20 64 -27 75
-9 8 13 45 13 45 1 0 -20 -54 -51 -87 -51 -49 0 -83 37 -83 89 0 91 57 134
129 96z m289 -1 c27 -19 29 -44 2 -44 -11 0 -20 5 -20 11 0 6 -12 9 -27 7 -43
-5 -33 -29 16 -44 64 -19 80 -55 41 -94 -37 -37 -139 -14 -140 31 0 14 41 17
46 4 8 -20 33 -26 55 -14 26 14 11 34 -33 43 -43 8 -58 23 -58 57 0 32 31 59
70 59 14 0 36 -7 48 -16z m453 -41 c12 -57 29 -93 29 -62 0 9 7 39 15 67 23
77 46 72 72 -15 19 -64 21 -66 28 -38 4 17 11 47 16 68 7 27 15 37 29 37 24 0
25 4 -1 -94 -33 -126 -67 -142 -90 -42 -7 31 -15 56 -20 56 -4 0 -13 -26 -21
-57 -12 -51 -17 -58 -38 -58 -21 0 -26 9 -46 80 -28 101 -29 115 -5 115 16 0
22 -12 32 -57z m276 46 c8 -8 13 -8 17 0 12 18 65 12 86 -9 18 -18 20 -31 18
-98 -2 -60 -6 -77 -18 -77 -11 0 -16 16 -20 65 -6 73 -13 90 -39 90 -30 0 -40
-22 -43 -90 -3 -57 -5 -65 -23 -65 -18 0 -20 8 -23 84 -2 46 -1 90 2 98 6 16
28 17 43 2z m508 -89 c0 -88 -1 -95 -20 -95 -18 0 -20 8 -23 84 -3 96 1 114
25 109 16 -3 18 -16 18 -98z m145 90 c9 -5 19 -5 27 2 7 5 20 8 28 4 12 -4 15
-25 15 -106 0 -94 -2 -103 -25 -125 -34 -35 -102 -35 -135 0 -23 25 -23 25 -2
25 11 0 32 -5 45 -11 29 -13 67 2 67 27 0 12 -4 13 -21 4 -55 -30 -109 20
-109 100 0 66 61 111 110 80z m1195 0 c4 -7 12 -7 25 0 29 16 58 12 80 -10 18
-18 20 -31 18 -98 -3 -64 -6 -77 -20 -80 -16 -3 -18 5 -18 58 0 69 -12 100
-39 100 -30 0 -40 -21 -43 -90 -3 -57 -5 -65 -23 -65 -18 0 -20 8 -23 84 -2
46 -1 90 2 98 6 15 32 17 41 3z m203 -87 c-3 -84 -6 -98 -20 -101 -16 -3 -18
7 -18 97 0 95 1 101 20 101 20 0 21 -5 18 -97z m91 22 l25 -69 24 72 c18 56
28 72 43 72 25 0 24 -4 -12 -105 -46 -126 -66 -126 -112 5 -32 88 -33 103 -9
98 11 -2 25 -27 41 -73z m253 64 c18 -10 48 -65 48 -89 0 -6 -26 -10 -63 -10
-71 0 -81 -4 -66 -31 10 -20 63 -27 74 -9 8 13 45 13 45 1 0 -18 -53 -51 -82
-51 -19 0 -40 10 -59 29 -76 77 9 210 103 160z m114 0 c4 -8 9 -8 17 0 17 17
37 13 37 -8 0 -12 -9 -21 -25 -25 -22 -6 -24 -11 -27 -79 -3 -64 -5 -72 -23
-72 -18 0 -20 8 -23 84 -2 46 -1 90 2 98 6 16 32 17 42 2z m202 -5 c12 -8 22
-22 22 -30 0 -16 -36 -19 -45 -4 -3 6 -17 10 -31 10 -39 0 -27 -32 16 -43 71
-18 90 -60 44 -96 -34 -27 -88 -27 -114 -1 -38 38 -13 56 34 25 13 -9 31 -13
40 -9 29 11 13 38 -27 47 -65 16 -86 80 -34 105 32 16 69 14 95 -4z m197 -9
c16 -15 25 -36 25 -55 l0 -30 -65 0 c-36 0 -65 -3 -65 -6 0 -3 5 -14 10 -25
11 -20 64 -27 75 -9 8 13 45 13 45 1 0 -16 -52 -51 -76 -51 -87 0 -128 107
-65 171 38 37 82 39 116 4z m258 13 c35 -18 46 -40 47 -89 0 -60 -22 -89 -76
-96 -33 -4 -45 -1 -70 20 -25 22 -29 32 -29 77 0 44 4 55 28 76 31 26 66 31
100 12z m592 2 c4 -6 15 -5 30 2 55 25 106 -18 107 -91 1 -73 -52 -118 -108
-92 -23 10 -24 9 -24 -30 0 -36 -2 -40 -22 -37 -22 3 -23 7 -26 117 -1 63 0
121 2 128 6 15 32 17 41 3z m210 0 c4 -7 12 -7 25 0 31 16 59 12 85 -15 20
-19 25 -34 25 -75 0 -41 -5 -56 -25 -75 -26 -27 -54 -31 -86 -15 -17 10 -19 7
-19 -30 0 -37 -2 -41 -22 -38 -22 3 -23 7 -24 123 -1 66 1 123 3 128 6 10 31
9 38 -3z m301 -5 c78 -54 40 -185 -53 -185 -52 0 -83 36 -83 98 0 26 6 55 13
64 30 38 87 49 123 23z m109 5 c5 -8 11 -7 21 1 7 6 21 9 29 5 21 -8 19 -36
-4 -36 -30 0 -40 -21 -43 -90 -2 -52 -6 -65 -20 -68 -16 -3 -18 7 -18 97 0 81
3 101 14 101 8 0 18 -5 21 -10z m255 -54 c0 -80 6 -96 35 -96 34 0 44 19 47
90 2 52 6 65 21 68 15 3 17 -7 17 -97 0 -81 -3 -101 -14 -101 -8 0 -17 4 -20
9 -4 5 -19 4 -36 -2 -25 -9 -36 -9 -58 4 -26 14 -27 19 -30 102 -3 82 -2 87
18 87 18 0 20 -6 20 -64z m200 54 c0 -7 6 -7 19 0 34 18 68 12 91 -17 17 -22
20 -38 18 -97 -3 -63 -5 -71 -23 -71 -18 0 -21 8 -25 75 -5 70 -7 75 -29 78
-36 6 -51 -22 -51 -96 0 -55 -2 -63 -17 -60 -15 3 -18 17 -21 101 -3 92 -2 97
18 97 11 0 20 -5 20 -10z m205 -90 c0 -88 -1 -95 -20 -95 -18 0 -20 8 -23 84
-3 96 1 114 25 109 16 -3 18 -16 18 -98z m203 3 c-3 -84 -6 -98 -20 -101 -16
-3 -18 7 -18 97 0 95 1 101 20 101 20 0 21 -5 18 -97z m176 75 c13 -13 27 -38
31 -55 l7 -33 -66 0 c-59 0 -66 -2 -66 -20 0 -24 45 -38 71 -21 35 21 59 12
41 -15 -25 -39 -90 -43 -129 -10 -24 21 -28 32 -28 76 0 44 4 55 28 76 35 30
78 31 111 2z m186 2 c25 -25 25 -40 1 -40 -11 0 -23 5 -26 10 -8 12 -52 13
-59 1 -8 -13 14 -28 52 -36 42 -9 68 -45 52 -74 -22 -42 -86 -54 -128 -25 -46
32 -16 60 32 29 13 -9 31 -13 40 -9 28 11 13 38 -26 47 -48 11 -72 39 -64 72
11 45 91 60 126 25z m-7812 -18 c3 -16 -2 -22 -17 -22 -26 0 -36 17 -20 36 16
19 33 13 37 -14z m0 -134 c-4 -27 -33 -36 -42 -13 -8 22 1 35 25 35 15 0 20
-6 17 -22z m3332 3 c0 -33 -22 -81 -37 -81 -12 0 -14 7 -9 31 3 17 6 40 6 50
0 12 7 19 20 19 13 0 20 -7 20 -19z m-5649 -296 c5 -67 -2 -165 -11 -165 -6 0
-10 37 -10 90 0 53 4 90 10 90 6 0 11 -7 11 -15z m310 -22 c1 -21 0 -44 -1
-52 -1 -9 11 -4 30 12 17 15 36 27 41 27 15 0 10 -16 -11 -35 -11 -10 -20 -23
-20 -30 0 -7 9 -20 20 -30 23 -21 26 -35 6 -35 -7 0 -21 11 -30 25 -18 28 -36
25 -36 -6 0 -10 -4 -19 -10 -19 -6 0 -10 37 -10 90 0 53 4 90 10 90 6 0 11
-17 11 -37z m262 26 c35 -19 49 -49 23 -49 -8 0 -16 7 -20 15 -7 18 -57 20
-74 3 -17 -17 -15 -84 4 -102 21 -22 61 -20 74 3 14 28 13 31 -15 31 -14 0
-25 5 -25 10 0 15 68 12 73 -2 7 -22 -13 -65 -36 -75 -52 -24 -117 20 -117 77
0 74 56 118 113 89z m576 -43 c22 5 32 1 45 -17 21 -31 22 -109 1 -109 -11 0
-15 12 -15 49 0 34 -5 51 -15 55 -23 9 -45 -22 -45 -65 0 -21 -4 -39 -10 -39
-12 0 -14 163 -2 174 4 4 8 -6 10 -23 3 -27 6 -30 31 -25z m206 44 c29 0 55
-25 55 -52 0 -33 -29 -58 -67 -58 -30 0 -33 -3 -33 -30 0 -16 -4 -30 -10 -30
-11 0 -14 163 -3 174 4 3 13 4 21 1 7 -3 24 -5 37 -5z m815 -80 c0 -73 -3 -90
-15 -90 -12 0 -15 16 -15 83 0 46 3 87 7 90 18 18 23 0 23 -83z m410 60 c0
-27 2 -29 29 -24 22 5 32 1 45 -17 21 -30 22 -109 2 -109 -11 0 -16 14 -18 47
-2 37 -7 49 -22 51 -24 5 -36 -14 -36 -60 0 -21 -4 -38 -10 -38 -6 0 -10 37
-10 90 0 53 4 90 10 90 6 0 10 -13 10 -30z m190 -16 c0 -34 0 -34 45 -34 45 0
45 0 45 35 0 24 5 35 15 35 12 0 15 -16 15 -85 0 -69 -3 -85 -15 -85 -10 0
-15 10 -15 34 0 32 -2 34 -41 38 -22 2 -42 2 -45 -1 -2 -2 -4 -19 -4 -38 0
-18 -4 -33 -10 -33 -6 0 -10 37 -10 91 0 57 4 88 10 84 6 -3 10 -22 10 -41z
m950 -50 c35 -93 33 -84 17 -84 -8 0 -19 12 -25 26 -15 32 -62 31 -77 -3 -8
-19 -35 -33 -35 -19 0 12 54 153 63 164 15 19 24 5 57 -84z m267 75 c7 -6 13
-18 13 -25 0 -19 -26 -18 -34 2 -4 10 -15 14 -33 12 -30 -3 -38 -26 -13 -38
72 -33 75 -36 75 -65 0 -39 -39 -60 -81 -44 -27 10 -44 25 -44 42 0 14 28 7
34 -9 9 -23 61 -15 61 10 0 13 -12 23 -40 33 -59 20 -70 48 -34 84 22 22 67
21 96 -2z m951 5 c22 -15 30 -44 13 -44 -5 0 -14 7 -21 15 -18 22 -57 18 -74
-7 -44 -63 21 -141 76 -91 21 19 37 9 22 -14 -27 -43 -101 -33 -127 17 -22 43
-15 87 19 118 29 26 61 28 92 6z m742 -14 c0 -28 2 -30 25 -24 41 10 65 -19
65 -78 0 -36 -4 -48 -15 -48 -11 0 -15 12 -15 49 0 34 -5 51 -15 55 -23 9 -45
-22 -45 -65 0 -21 -4 -39 -10 -39 -6 0 -10 37 -10 90 0 53 4 90 10 90 6 0 10
-14 10 -30z m973 -3 c23 -26 5 -37 -22 -13 -37 33 -91 4 -91 -49 0 -52 61 -85
90 -50 7 8 19 15 27 15 24 0 -4 -39 -35 -47 -66 -17 -102 13 -102 87 0 47 14
69 50 83 25 10 64 -2 83 -26z m569 -48 c1 -94 0 -99 -12 -99 -11 0 -14 162 -3
173 12 12 14 0 15 -74z m1088 -7 l0 -89 -41 -1 c-53 -2 -69 11 -69 59 0 48 23
73 62 65 26 -5 28 -3 28 24 0 17 5 30 10 30 6 0 10 -36 10 -88z m199 47 c13
-24 13 -29 -2 -53 -13 -20 -26 -26 -52 -26 -32 0 -35 -2 -35 -30 0 -16 -4 -30
-10 -30 -10 0 -15 162 -5 172 3 2 24 2 47 -1 32 -5 46 -12 57 -32z m291 33 c0
-4 -6 -14 -12 -20 -10 -10 -10 -15 2 -23 11 -8 12 -12 3 -16 -8 -3 -13 -25
-13 -59 0 -41 -4 -54 -15 -54 -12 0 -15 13 -15 55 0 30 -4 55 -9 55 -9 0 0 24
22 58 9 13 37 17 37 4z m343 -23 c24 -30 23 -103 -3 -129 -52 -52 -140 -10
-140 66 0 52 48 99 93 90 18 -3 40 -16 50 -27z m1410 24 c4 -3 -1 -12 -11 -19
-15 -12 -15 -15 -2 -25 11 -8 12 -12 3 -16 -8 -3 -13 -25 -13 -59 0 -41 -4
-54 -15 -54 -12 0 -15 13 -15 55 0 31 -4 55 -10 55 -6 0 -3 12 7 28 25 38 42
50 56 35z m410 -25 c23 -27 5 -38 -22 -14 -25 23 -57 20 -75 -6 -44 -62 21
-141 75 -92 28 25 47 12 21 -14 -15 -15 -34 -22 -62 -22 -49 0 -75 33 -74 94
3 78 89 112 137 54z m-11263 -34 c0 -66 13 -94 43 -94 37 0 47 19 47 87 0 49
3 63 15 63 21 0 21 -117 0 -147 -26 -38 -92 -37 -117 1 -12 17 -9 146 2 146 6
0 10 -25 10 -56z m2290 41 c0 -9 -6 -12 -15 -9 -8 4 -12 10 -9 15 8 14 24 10
24 -6z m460 5 c0 -5 -4 -10 -10 -10 -5 0 -10 5 -10 10 0 6 5 10 10 10 6 0 10
-4 10 -10z m1340 -75 c0 -50 -4 -85 -10 -85 -6 0 -10 35 -10 85 0 50 4 85 10
85 6 0 10 -35 10 -85z m2410 75 c0 -5 -7 -10 -15 -10 -8 0 -15 5 -15 10 0 6 7
10 15 10 8 0 15 -4 15 -10z m1355 0 c-3 -5 -10 -10 -16 -10 -5 0 -9 5 -9 10 0
6 7 10 16 10 8 0 12 -4 9 -10z m1295 0 c0 -5 -7 -10 -15 -10 -8 0 -15 5 -15
10 0 6 7 10 15 10 8 0 15 -4 15 -10z m1190 0 c0 -5 -4 -10 -10 -10 -5 0 -10 5
-10 10 0 6 5 10 10 10 6 0 10 -4 10 -10z m130 0 c0 -5 -4 -10 -9 -10 -6 0 -13
5 -16 10 -3 6 1 10 9 10 9 0 16 -4 16 -10z m-9120 -14 c0 -8 8 -17 18 -21 16
-6 16 -7 0 -16 -12 -7 -18 -22 -18 -46 0 -22 7 -41 18 -49 15 -12 15 -13 -10
-14 -25 0 -27 3 -30 52 -4 70 -23 72 -42 4 -19 -63 -41 -73 -51 -23 -11 51
-18 54 -30 11 -6 -22 -17 -39 -25 -39 -16 0 -53 112 -39 121 9 5 29 -36 29
-62 0 -28 18 -13 27 23 12 54 30 52 45 -4 l12 -48 14 48 c7 26 19 47 25 46 26
-3 37 2 37 16 0 8 5 15 10 15 6 0 10 -6 10 -14z m540 0 c0 -8 6 -17 13 -20 10
-5 10 -7 0 -12 -15 -7 -18 -94 -3 -94 6 0 10 -4 10 -10 0 -16 -37 -11 -44 6
-3 9 -6 33 -6 55 0 21 -4 39 -9 39 -5 0 -4 11 2 25 13 27 37 34 37 11z m330 0
c0 -8 8 -17 18 -21 16 -6 16 -7 0 -16 -12 -7 -18 -22 -18 -46 0 -22 7 -41 18
-49 15 -12 15 -13 -10 -14 -17 0 -28 6 -32 18 -5 18 -10 94 -7 125 1 20 31 23
31 3z m590 0 c0 -8 8 -17 18 -21 16 -6 16 -7 0 -16 -24 -13 -24 -74 -2 -87 25
-14 8 -35 -17 -22 -14 8 -19 21 -19 53 0 24 -6 49 -12 56 -10 11 -10 14 0 18
6 3 12 11 12 19 0 8 5 14 10 14 6 0 10 -6 10 -14z m4770 0 c0 -8 8 -17 18 -21
16 -6 16 -7 0 -16 -23 -13 -25 -77 -3 -85 23 -9 18 -26 -7 -22 -19 2 -24 10
-26 48 -2 24 -9 51 -15 59 -9 11 -9 15 1 18 6 3 12 11 12 19 0 8 5 14 10 14 6
0 10 -6 10 -14z m200 -1 c0 -8 7 -15 15 -15 8 0 15 -4 15 -9 0 -5 -7 -11 -15
-15 -9 -3 -15 -19 -15 -41 0 -22 6 -38 15 -41 23 -9 18 -26 -7 -22 -19 2 -24
10 -26 48 -2 24 -9 51 -15 59 -9 11 -9 15 1 18 6 3 12 11 12 19 0 8 5 14 10
14 6 0 10 -7 10 -15z m1430 1 c0 -8 6 -17 13 -20 10 -5 10 -7 0 -12 -15 -7
-18 -94 -3 -94 6 0 10 -5 10 -11 0 -6 -10 -9 -22 -7 -20 3 -23 10 -26 56 -2
28 -7 52 -12 52 -4 0 -3 11 3 25 13 27 37 34 37 11z m800 0 c0 -8 6 -17 13
-20 10 -5 10 -7 0 -12 -15 -7 -18 -94 -3 -94 6 0 10 -4 10 -10 0 -16 -37 -11
-44 6 -3 9 -6 33 -6 55 0 21 -4 39 -9 39 -5 0 -4 11 2 25 13 27 37 34 37 11z
m390 0 c0 -8 6 -17 13 -20 10 -5 10 -7 0 -12 -15 -7 -18 -94 -3 -94 6 0 10 -4
10 -10 0 -17 -38 -11 -44 8 -5 18 -10 94 -7 125 1 20 31 23 31 3z m1610 0 c0
-8 8 -17 18 -21 16 -6 16 -7 0 -16 -12 -7 -18 -22 -18 -46 0 -22 7 -41 18 -50
16 -12 15 -13 -8 -11 -22 3 -25 8 -28 48 -2 24 -9 51 -15 59 -9 11 -9 15 1 18
6 3 12 11 12 19 0 8 5 14 10 14 6 0 10 -6 10 -14z m-11772 -28 c14 -12 17
-118 2 -118 -5 0 -10 20 -10 44 0 51 -20 76 -45 56 -9 -8 -15 -30 -15 -56 0
-24 -4 -44 -10 -44 -6 0 -10 28 -10 63 l0 63 38 1 c20 1 43 -3 50 -9z m184 -5
c21 -19 24 -72 6 -95 -45 -55 -123 1 -97 69 17 46 57 57 91 26z m132 1 c18
-17 21 -34 7 -34 -5 0 -14 6 -20 14 -7 8 -21 12 -31 9 -25 -7 -37 -48 -20 -68
14 -17 50 -20 50 -5 0 6 7 10 15 10 19 0 19 -14 0 -30 -22 -18 -66 -15 -82 6
-18 25 -16 74 4 96 20 22 56 23 77 2z m446 7 c0 -4 -9 -14 -20 -24 -14 -12
-20 -29 -20 -57 0 -22 -4 -40 -10 -40 -6 0 -10 28 -10 63 l0 64 30 0 c17 0 30
-3 30 -6z m102 -8 c21 -19 25 -82 6 -101 -7 -7 -26 -12 -43 -12 -41 0 -55 16
-55 61 0 62 50 90 92 52z m713 3 c24 -17 26 -80 3 -102 -22 -22 -68 -21 -85 2
-7 10 -13 31 -13 48 0 55 52 84 95 52z m206 -7 c32 -32 21 -53 -28 -57 -32 -2
-41 -7 -36 -18 6 -17 35 -18 51 -2 15 15 26 4 19 -17 -11 -26 -74 -20 -93 10
-42 65 32 139 87 84z m129 6 c6 -7 13 -36 15 -64 3 -39 1 -51 -11 -51 -10 0
-14 12 -14 44 0 25 -6 48 -14 55 -22 18 -46 -13 -46 -60 0 -21 -4 -39 -10 -39
-6 0 -10 28 -10 63 l0 63 39 1 c23 1 44 -4 51 -12z m140 -50 c0 -37 -4 -65
-10 -65 -6 0 -10 28 -10 65 0 37 4 65 10 65 6 0 10 -28 10 -65z m114 49 c10
-10 16 -33 16 -65 l0 -49 -49 0 c-41 0 -51 3 -56 20 -8 27 9 47 46 55 16 4 29
10 29 15 0 14 -24 18 -42 6 -22 -13 -34 -1 -18 19 16 20 54 19 74 -1z m171
-30 c10 -33 13 -36 19 -19 29 78 38 80 57 12 l12 -42 11 44 c7 25 17 46 24 49
16 5 15 0 -4 -70 -9 -32 -22 -58 -29 -58 -8 0 -20 19 -27 41 l-14 42 -12 -42
c-18 -57 -36 -52 -56 17 -19 70 -19 75 -4 70 6 -2 17 -22 23 -44z m175 -19 c0
-37 -4 -65 -10 -65 -6 0 -10 28 -10 65 0 37 4 65 10 65 6 0 10 -28 10 -65z
m492 13 c2 -42 7 -54 22 -56 25 -5 36 14 36 66 0 23 5 42 10 42 6 0 10 -29 10
-66 l0 -65 -47 3 -48 3 -3 63 c-2 36 1 62 7 62 5 0 11 -24 13 -52z m193 42 c6
-2 18 1 29 5 34 15 51 -7 54 -69 2 -32 -1 -56 -7 -56 -5 0 -11 21 -13 48 -3
40 -6 47 -25 50 -21 3 -23 0 -23 -47 0 -39 -4 -51 -15 -51 -11 0 -15 12 -15
51 0 47 -2 50 -22 47 -20 -3 -23 -10 -26 -50 -5 -71 -22 -58 -22 16 l0 64 38
-3 c20 -1 42 -3 47 -5z m196 0 c15 -9 19 -22 19 -64 0 -53 0 -54 -32 -58 -48
-5 -66 1 -74 24 -8 26 13 47 49 50 15 1 27 8 27 16 0 11 -9 13 -35 8 -36 -7
-44 1 -23 22 15 15 43 15 69 2z m133 -6 c22 -21 22 -114 1 -114 -11 0 -15 12
-15 49 0 32 -5 51 -14 54 -22 9 -36 -14 -36 -60 0 -32 -4 -43 -15 -43 -12 0
-15 13 -15 58 0 32 2 61 4 63 12 12 76 7 90 -7z m588 -29 c7 -25 15 -45 19
-45 3 0 12 20 19 45 7 25 19 45 26 45 8 0 14 -2 14 -4 0 -11 -53 -143 -62
-153 -12 -15 -48 -17 -48 -3 0 6 7 10 15 10 20 0 19 30 -5 90 -24 61 -24 60
-5 60 9 0 20 -17 27 -45z m184 34 c21 -17 19 -119 -1 -119 -12 0 -15 10 -14
46 2 30 -2 48 -11 54 -23 14 -40 -9 -40 -56 0 -32 -4 -44 -15 -44 -12 0 -15
13 -15 58 0 32 2 61 4 63 10 10 80 8 92 -2z m121 3 c15 -9 34 -58 26 -66 -4
-3 -24 -6 -45 -6 -21 0 -38 -5 -38 -10 0 -17 31 -24 51 -12 24 15 29 15 29 -2
0 -31 -84 -37 -100 -7 -32 61 24 137 77 103z m113 -2 c0 -5 -9 -14 -20 -20
-15 -8 -20 -21 -20 -55 0 -33 -4 -45 -15 -45 -12 0 -15 13 -15 58 0 32 2 61 4
63 9 9 66 8 66 -1z m120 -67 c0 -67 -2 -74 -26 -89 -19 -13 -32 -15 -51 -8
-42 15 -40 34 3 31 20 -1 39 3 41 9 2 7 -7 9 -25 6 -22 -3 -33 2 -46 19 -38
54 -5 109 63 106 l41 -1 0 -73z m51 40 c18 -58 21 -59 38 -13 9 24 22 45 29
48 17 5 16 -4 -17 -88 -25 -67 -31 -75 -57 -78 l-29 -3 23 19 23 18 -20 52
c-12 29 -21 59 -21 67 0 29 19 15 31 -22z m439 17 c28 -28 26 -74 -6 -99 -58
-46 -123 33 -78 97 19 28 57 29 84 2z m126 7 c4 -4 13 -2 20 4 8 6 25 8 39 5
23 -6 25 -11 25 -66 0 -33 -4 -60 -10 -60 -5 0 -10 19 -10 43 0 24 -5 48 -12
55 -20 20 -38 -6 -38 -54 0 -32 -4 -44 -15 -44 -11 0 -15 12 -15 48 0 53 -5
63 -26 55 -9 -3 -14 -21 -14 -54 0 -37 -4 -49 -15 -49 -12 0 -15 14 -15 64 l0
64 40 -2 c22 -1 43 -5 46 -9z m213 -2 c6 -6 13 -25 17 -42 8 -42 -29 -83 -69
-76 -22 4 -27 2 -27 -16 0 -11 -4 -21 -10 -21 -6 0 -10 35 -10 84 l0 84 45 -2
c24 -1 49 -6 54 -11z m101 4 c0 -5 -9 -13 -20 -19 -15 -8 -20 -21 -20 -55 0
-25 -4 -45 -10 -45 -6 0 -10 28 -10 63 l0 64 30 0 c17 0 30 -4 30 -8z m101
-10 c32 -32 21 -53 -29 -57 -43 -3 -55 -17 -26 -29 9 -3 25 -1 35 5 25 16 29
15 29 -3 0 -18 -36 -34 -63 -27 -29 8 -50 47 -42 82 11 50 59 66 96 29z m263
-1 c30 -42 21 -58 -31 -58 -45 0 -46 -1 -30 -17 14 -15 21 -15 37 -5 30 19 43
15 30 -8 -12 -23 -68 -28 -88 -8 -17 17 -15 78 5 100 22 25 59 23 77 -4z m132
9 c4 -4 9 -32 12 -62 4 -46 2 -55 -12 -55 -13 0 -16 10 -16 49 0 76 -50 80
-55 5 -2 -22 -4 -42 -4 -46 -1 -5 -5 -8 -11 -8 -6 0 -10 28 -10 64 l0 64 44
-2 c25 -1 48 -5 52 -9z m120 -4 c20 -20 2 -32 -21 -13 -14 12 -35 6 -35 -10 0
-4 14 -13 30 -19 40 -14 49 -39 22 -62 -26 -21 -75 -12 -80 14 -4 18 13 23 23
7 8 -13 45 -13 45 0 0 5 -16 16 -35 24 -22 10 -35 22 -35 33 0 42 54 58 86 26z
m54 -48 c0 -37 -4 -65 -10 -65 -6 0 -10 28 -10 65 0 37 4 65 10 65 6 0 10 -28
10 -65z m61 15 c17 -46 20 -45 38 13 12 35 31 51 31 25 0 -27 -39 -113 -51
-116 -12 -2 -59 95 -59 122 0 23 27 -6 41 -44z m173 34 c9 -8 16 -26 16 -40 0
-21 -4 -24 -40 -24 -22 0 -40 -5 -40 -10 0 -18 31 -24 52 -11 25 15 35 7 18
-14 -16 -20 -64 -19 -84 1 -22 22 -20 70 4 94 24 24 53 26 74 4z m356 -4 c24
-24 26 -67 3 -92 -20 -22 -66 -24 -87 -2 -35 35 -5 114 44 114 11 0 29 -9 40
-20z m136 7 c4 -4 9 -32 12 -62 4 -46 2 -55 -12 -55 -13 0 -16 10 -16 49 0 34
-5 51 -15 55 -23 9 -45 -22 -45 -65 0 -21 -4 -39 -10 -39 -6 0 -10 28 -10 64
l0 64 44 -2 c25 -1 48 -5 52 -9z m114 -2 c17 -20 5 -32 -15 -15 -12 10 -19 10
-27 2 -14 -14 -2 -28 26 -34 28 -5 43 -33 27 -52 -18 -21 -80 -21 -88 -1 -7
21 4 32 19 17 14 -14 48 -16 48 -2 0 5 -16 16 -35 24 -23 10 -35 22 -35 35 0
36 57 54 80 26z m62 -37 c2 -42 7 -54 22 -56 25 -5 36 14 36 66 0 23 5 42 10
42 6 0 10 -28 10 -64 l0 -64 -47 2 -48 1 -3 63 c-2 36 1 62 7 62 5 0 11 -24
13 -52z m322 36 c10 -10 16 -33 16 -63 l0 -48 -50 -2 c-54 -1 -65 8 -56 45 5
19 13 24 36 24 32 0 48 16 32 32 -7 7 -17 6 -32 -2 -26 -14 -38 -6 -20 15 16
20 54 19 74 -1z m136 -49 c0 -37 -4 -65 -10 -65 -6 0 -10 28 -10 65 0 37 4 65
10 65 6 0 10 -28 10 -65z m124 46 c26 -28 18 -92 -13 -107 -51 -26 -102 27
-80 82 18 48 62 59 93 25z m127 8 c25 -13 28 -119 4 -119 -11 0 -15 12 -15 49
0 32 -5 51 -14 54 -22 9 -36 -14 -36 -60 0 -32 -4 -43 -15 -43 -12 0 -15 13
-15 58 0 32 2 61 4 63 9 9 70 8 87 -2z m230 -5 c7 -9 14 -37 15 -64 l3 -47
-50 -2 c-37 0 -51 3 -56 16 -9 23 10 47 42 53 16 3 30 10 32 16 6 17 -27 26
-44 13 -18 -16 -29 -3 -13 16 16 20 54 19 71 -1z m139 -4 c5 -8 10 -36 10 -62
0 -36 -4 -48 -15 -48 -11 0 -15 12 -15 49 0 48 -10 63 -37 54 -8 -3 -13 -23
-13 -54 0 -37 -4 -49 -15 -49 -12 0 -15 14 -15 64 l0 64 45 -2 c28 -1 50 -7
55 -16z m430 11 c0 -4 -9 -14 -20 -24 -14 -12 -20 -29 -20 -57 0 -22 -4 -40
-10 -40 -6 0 -10 28 -10 63 l0 64 30 0 c17 0 30 -3 30 -6z m105 -11 c21 -24
22 -77 2 -98 -9 -8 -27 -14 -42 -14 -35 0 -56 22 -57 61 -1 37 26 71 57 71 12
0 30 -9 40 -20z m145 -51 c0 -46 -3 -59 -15 -59 -12 0 -15 13 -15 58 0 32 3
62 6 65 15 15 24 -8 24 -64z m432 54 c21 -19 24 -72 5 -97 -10 -14 -23 -17
-45 -14 -28 4 -32 2 -32 -19 0 -14 -6 -23 -15 -23 -12 0 -15 15 -15 78 0 43 2
81 4 83 13 12 83 6 98 -8z m144 -8 c38 -51 -7 -130 -58 -103 -15 7 -18 4 -18
-17 0 -16 -6 -25 -15 -25 -12 0 -15 15 -15 78 0 43 2 81 4 83 3 3 24 4 46 4
29 0 46 -6 56 -20z m122 9 c24 -17 30 -61 12 -95 -13 -24 -72 -26 -91 -3 -20
24 -16 84 6 100 24 18 45 18 73 -2z m102 -1 c0 -7 -7 -13 -15 -13 -11 0 -15
-12 -15 -50 0 -38 -4 -50 -15 -50 -12 0 -15 14 -15 63 l0 64 30 0 c18 0 30 -6
30 -14z m130 -39 c4 -41 8 -49 25 -49 17 0 21 8 25 48 7 69 24 63 28 -10 l3
-63 -49 0 c-57 0 -62 6 -62 82 0 66 23 60 30 -8z m198 43 c14 -10 17 -117 2
-117 -5 0 -10 8 -11 18 -3 75 -18 104 -44 82 -9 -8 -15 -29 -15 -56 0 -32 -4
-44 -15 -44 -12 0 -15 13 -15 58 0 32 2 61 4 63 8 7 80 4 94 -4z m62 -52 c0
-37 -4 -65 -10 -65 -6 0 -10 28 -10 65 0 37 4 65 10 65 6 0 10 -28 10 -65z
m130 0 c0 -37 -4 -65 -10 -65 -6 0 -10 28 -10 65 0 37 4 65 10 65 6 0 10 -28
10 -65z m107 57 c15 -9 34 -58 26 -66 -4 -3 -24 -6 -45 -6 -21 0 -38 -5 -38
-10 0 -17 31 -24 51 -12 24 15 29 15 29 -2 0 -17 -21 -26 -59 -26 -48 0 -68
73 -31 110 21 21 46 25 67 12z m129 -9 c20 -20 2 -32 -21 -13 -14 12 -35 6
-35 -10 0 -5 16 -14 35 -20 27 -9 35 -17 35 -35 0 -36 -65 -50 -90 -20 -16 19
-5 34 12 17 16 -16 48 -15 48 2 0 8 -12 17 -27 21 -43 10 -53 33 -27 59 20 21
48 20 70 -1z m248 1 c19 -18 21 -85 4 -102 -7 -7 -26 -12 -43 -12 -40 0 -55
16 -55 59 0 60 56 93 94 55z m106 6 c0 -5 -9 -14 -20 -20 -15 -8 -20 -21 -20
-55 0 -33 -4 -45 -15 -45 -12 0 -15 13 -15 58 0 32 2 61 5 64 9 9 65 7 65 -2z
m330 -10 c24 -24 26 -67 3 -92 -20 -22 -66 -24 -87 -2 -35 35 -5 114 44 114
11 0 29 -9 40 -20z m100 11 c0 -4 -9 -14 -20 -24 -14 -12 -20 -29 -20 -57 0
-22 -4 -40 -10 -40 -6 0 -10 28 -10 63 l0 64 30 0 c17 0 30 -3 30 -6z m96 3
c29 -5 48 -52 35 -86 -12 -33 -28 -42 -63 -40 -22 2 -28 -2 -28 -18 0 -11 -4
-20 -10 -20 -6 0 -10 35 -10 84 l0 84 28 0 c15 0 37 -2 48 -4z m154 -14 c39
-39 14 -110 -40 -110 -38 0 -60 24 -60 65 0 57 60 85 100 45z m100 9 c0 -5 -9
-13 -20 -19 -15 -8 -20 -21 -20 -55 0 -25 -4 -45 -10 -45 -6 0 -10 28 -10 63
l0 64 30 0 c17 0 30 -4 30 -8z m99 -3 c6 -8 12 -29 13 -47 2 -67 2 -67 -49
-65 -46 1 -48 2 -48 31 0 27 4 31 34 35 19 3 36 10 38 16 6 17 -27 26 -44 13
-18 -16 -29 -3 -13 16 16 19 54 20 69 1z m203 -3 c10 -9 18 -27 18 -40 0 -21
-4 -23 -46 -23 -40 0 -45 -2 -34 -15 15 -18 42 -19 58 -3 17 17 28 2 12 -17
-15 -18 -71 -20 -88 -3 -21 21 -15 85 10 102 29 20 47 20 70 -1z m-8252 -43
c0 -5 -20 -10 -45 -10 -25 0 -45 5 -45 10 0 6 20 10 45 10 25 0 45 -4 45 -10z
m1150 -62 c0 -26 -16 -55 -25 -47 -8 8 6 69 16 69 5 0 9 -10 9 -22z m3130 10
c0 -25 -12 -58 -21 -58 -10 0 -12 53 -2 63 10 11 23 8 23 -5z m-2570 -221 c0
-9 -12 -11 -40 -9 -39 4 -40 3 -40 -25 0 -28 2 -30 37 -29 21 1 38 -4 40 -11
3 -9 -8 -13 -36 -13 -37 0 -41 -2 -41 -25 0 -22 4 -25 40 -25 29 0 40 -4 40
-15 0 -12 -13 -15 -55 -15 l-55 0 0 90 0 90 55 0 c38 0 55 -4 55 -13z m420
-78 c0 -68 -3 -90 -12 -87 -9 3 -14 33 -16 91 -2 73 0 87 13 87 12 0 15 -16
15 -91z m50 1 c0 -53 -4 -90 -10 -90 -6 0 -10 37 -10 90 0 53 4 90 10 90 6 0
10 -37 10 -90z m-229 19 c11 -22 -1 -25 -30 -7 -37 23 -71 -38 -39 -70 16 -16
23 -15 42 4 23 22 42 7 20 -17 -47 -52 -120 7 -94 76 17 44 80 53 101 14z
m487 -48 c2 -38 -1 -61 -8 -61 -5 0 -10 18 -10 39 0 52 -8 71 -30 71 -22 0
-30 -19 -30 -71 0 -21 -4 -39 -10 -39 -6 0 -10 28 -10 64 0 63 1 65 28 68 56
7 67 -4 70 -71z m-668 47 l17 -22 7 22 c4 12 14 22 22 22 18 0 18 -5 -2 -35
-14 -21 -14 -26 1 -55 20 -39 10 -53 -16 -21 l-19 23 -19 -23 c-26 -32 -37
-18 -15 20 16 28 16 31 1 55 -9 14 -17 28 -17 31 0 13 23 3 40 -17z m298 10
c7 -7 12 -22 12 -35 0 -20 -5 -23 -40 -23 -28 0 -40 -4 -40 -14 0 -20 28 -28
50 -14 26 16 40 0 16 -18 -60 -43 -123 27 -86 97 12 22 68 27 88 7z m236 -10
c27 -38 20 -48 -29 -48 -46 0 -56 -9 -31 -29 11 -10 20 -10 36 -1 28 15 41 2
16 -16 -27 -19 -52 -18 -76 6 -39 39 -14 110 40 110 18 0 34 -8 44 -22z m256
7 c17 -21 7 -29 -18 -14 -28 18 -52 5 -52 -29 0 -41 24 -60 48 -38 23 20 32
20 32 1 0 -16 -30 -35 -54 -35 -23 0 -56 37 -56 63 0 55 68 90 100 52z m130
-4 c21 -40 13 -51 -35 -51 -34 0 -43 -3 -39 -14 8 -20 34 -28 50 -15 22 18 39
6 20 -14 -37 -36 -96 -8 -96 45 0 48 16 68 55 68 24 0 38 -6 45 -19z m60 -97
c0 -17 -22 -14 -28 4 -2 7 3 12 12 12 9 0 16 -7 16 -16z"/>
<path d="M2225 6945 c-24 -23 -25 -29 -25 -155 0 -126 7 -164 34 -182 6 -4
238 -8 516 -8 278 0 510 4 516 8 27 18 34 56 34 182 0 126 -1 132 -25 155
l-24 25 -501 0 -501 0 -24 -25z m496 -115 c22 -12 27 -68 7 -88 -46 -46 -105
32 -61 80 19 21 27 22 54 8z m-151 -20 c0 -30 47 -28 53 3 2 12 4 -3 4 -33 0
-30 -2 -43 -4 -27 -3 21 -10 27 -29 27 -19 0 -24 -5 -24 -25 0 -14 -4 -25 -10
-25 -5 0 -10 23 -10 50 0 28 5 50 10 50 6 0 10 -9 10 -20z m227 -17 l16 -38
15 38 c8 20 18 37 22 37 11 0 17 -65 9 -87 -6 -13 -8 -8 -9 17 l-2 35 -14 -32
c-8 -18 -17 -33 -20 -33 -3 0 -11 15 -19 33 l-14 32 -1 -27 c0 -16 -4 -28 -10
-28 -5 0 -10 20 -10 45 0 55 15 58 37 8z m131 30 c-16 -2 -28 -11 -28 -19 0
-8 11 -15 28 -15 l27 -2 -27 -4 c-35 -5 -37 -33 -3 -33 14 0 25 -5 25 -11 0
-6 -14 -9 -32 -7 -32 3 -33 5 -36 51 l-3 47 38 -1 c30 -2 32 -3 11 -6z"/>
<path d="M2677 6813 c-13 -12 -7 -61 8 -67 14 -5 45 18 45 34 0 32 -33 53 -53
33z"/>
<path d="M3412 6950 c-21 -20 -22 -30 -22 -165 0 -132 2 -147 20 -165 19 -19
33 -20 529 -20 l510 0 15 22 c13 18 16 52 16 165 0 130 -2 145 -20 163 -19 19
-33 20 -523 20 -493 0 -504 0 -525 -20z m252 -116 c26 -10 18 -25 -9 -18 -33
8 -33 -13 -1 -26 33 -12 41 -29 23 -47 -16 -17 -67 -11 -67 7 0 13 17 13 25 0
6 -10 35 -2 35 10 0 4 -13 13 -30 19 -33 11 -39 35 -12 50 21 13 17 12 36 5z
m84 -12 c-34 -4 -38 -31 -5 -33 l22 -2 -22 -4 c-32 -6 -30 -33 2 -33 14 0 25
-4 25 -10 0 -5 -16 -10 -35 -10 l-35 0 0 49 c0 53 8 61 50 52 l25 -6 -27 -3z
m147 -22 c8 -39 20 -38 34 2 6 17 14 29 17 25 8 -7 -26 -97 -36 -97 -8 0 -40
84 -40 102 0 20 19 -4 25 -32z m180 24 c19 -20 12 -32 -10 -14 -8 7 -22 10
-30 6 -18 -7 -21 -65 -2 -67 17 -2 20 -1 42 7 18 7 18 6 6 -9 -18 -23 -58 -22
-71 2 -14 28 -12 52 7 73 20 22 37 23 58 2z m73 -2 c-16 -2 -28 -9 -28 -18 0
-8 11 -15 28 -15 l27 -2 -27 -4 c-35 -5 -37 -33 -3 -33 14 0 25 -5 25 -11 0
-6 -14 -9 -32 -7 -32 3 -33 5 -36 50 -3 44 -2 47 25 50 15 2 33 1 38 -2 6 -3
-2 -6 -17 -8z m102 4 c10 -13 7 -15 -14 -13 -32 3 -35 -16 -4 -23 34 -8 37
-47 4 -56 -25 -6 -46 1 -46 15 0 5 11 6 25 3 15 -2 25 0 25 7 0 6 -11 16 -25
21 -15 6 -25 17 -25 29 0 30 39 41 60 17z m-394 -11 c4 -8 1 -22 -6 -31 -10
-11 -10 -18 -2 -26 14 -14 15 -28 3 -28 -5 0 -13 9 -16 20 -9 27 -35 26 -35
-2 0 -12 -3 -18 -7 -14 -5 4 -8 28 -8 52 0 43 0 44 33 44 20 0 35 -6 38 -15z
m130 -30 c-3 -63 -16 -69 -16 -7 0 29 4 52 9 52 5 0 8 -20 7 -45z"/>
<path d="M3800 6805 c0 -8 9 -15 20 -15 11 0 20 7 20 15 0 8 -9 15 -20 15 -11
0 -20 -7 -20 -15z"/>
<path d="M4600 6950 c-18 -18 -20 -33 -20 -168 0 -132 2 -151 18 -165 17 -15
68 -17 525 -17 494 0 508 1 527 20 18 18 20 33 20 163 0 137 -1 144 -23 165
-23 22 -24 22 -525 22 -489 0 -503 -1 -522 -20z m320 -122 c0 -4 -9 -8 -20 -8
-28 0 -25 -30 3 -31 l22 -2 -22 -4 c-28 -5 -30 -33 -3 -33 11 0 20 -4 20 -10
0 -5 -13 -10 -30 -10 -29 0 -30 1 -30 49 0 27 5 51 11 53 19 6 49 4 49 -4z
m85 -47 c-9 -28 -20 -51 -25 -51 -4 0 -15 21 -24 47 -19 55 -19 53 -7 53 5 0
12 -13 16 -30 9 -39 18 -38 34 6 20 55 25 32 6 -25z m359 53 c25 -10 19 -22
-9 -16 -32 6 -33 -15 -1 -28 13 -5 27 -14 31 -20 9 -14 -13 -40 -34 -40 -22 0
-47 17 -38 26 3 4 12 2 20 -4 8 -7 18 -8 27 -1 13 8 13 10 0 19 -8 5 -20 10
-26 10 -21 0 -26 34 -8 47 21 15 18 15 38 7z m-287 -11 c-33 -5 -31 -25 4 -34
24 -7 24 -7 -3 -8 -36 -1 -39 -31 -3 -31 14 0 25 -4 25 -10 0 -5 -13 -10 -30
-10 -29 0 -30 1 -30 50 l0 50 33 -1 c31 -2 31 -2 4 -6z m85 -25 l23 -33 6 35
c6 31 7 29 8 -17 0 -29 -1 -53 -4 -53 -2 0 -16 17 -30 37 l-25 38 0 -38 c0
-20 -4 -37 -10 -37 -5 0 -10 23 -10 50 0 28 4 50 9 50 5 0 20 -15 33 -32z
m126 25 c-13 -3 -18 -15 -18 -43 0 -21 -4 -42 -10 -45 -6 -4 -10 11 -10 39 0
34 -4 46 -17 49 -10 3 2 5 27 5 25 0 37 -2 28 -5z"/>
<path d="M5785 6945 c-24 -23 -25 -29 -25 -155 0 -126 7 -164 34 -182 6 -4
239 -8 518 -8 l507 0 20 26 c18 24 20 38 18 166 -2 134 -3 141 -26 159 -22 18
-46 19 -523 19 l-499 0 -24 -25z m409 -111 c25 -10 19 -22 -9 -16 -32 6 -33
-15 -1 -28 32 -12 41 -28 26 -45 -16 -19 -44 -19 -60 0 -11 13 -8 14 19 9 34
-7 44 10 12 21 -11 3 -25 13 -32 21 -11 14 -10 18 6 30 22 16 19 16 39 8z m90
0 c25 -10 19 -22 -9 -16 -32 6 -33 -15 -1 -28 32 -12 41 -28 26 -45 -16 -19
-44 -19 -60 0 -11 13 -8 14 19 9 34 -7 44 10 12 21 -11 3 -25 13 -32 21 -11
14 -10 18 6 30 22 16 19 16 39 8z m84 -12 c-16 -2 -28 -9 -28 -18 0 -8 11 -15
28 -15 l27 -2 -27 -4 c-35 -5 -37 -33 -3 -33 14 0 25 -5 25 -11 0 -6 -14 -9
-32 -7 -31 3 -33 5 -36 47 -4 49 6 61 46 52 l27 -6 -27 -3z m176 12 c25 -10
19 -22 -9 -16 -32 6 -33 -15 -1 -28 32 -12 41 -28 26 -45 -16 -19 -44 -19 -60
0 -14 16 0 21 16 5 6 -6 15 -5 24 1 11 8 12 12 3 16 -7 2 -23 13 -35 24 -23
19 -23 19 -4 34 23 17 20 17 40 9z m-430 -51 c9 -25 14 -49 11 -51 -2 -3 -7 3
-11 12 -8 21 -40 21 -53 -1 -9 -16 -10 -16 -11 -2 0 24 29 89 39 89 5 0 16
-21 25 -47z m354 40 c-14 -3 -18 -15 -18 -49 0 -24 -4 -44 -10 -44 -5 0 -10
20 -10 44 0 34 -4 46 -17 49 -10 3 2 5 27 5 25 0 37 -2 28 -5z"/>
<path d="M6080 6786 c0 -9 5 -16 10 -16 6 0 10 4 10 9 0 6 -4 13 -10 16 -5 3
-10 -1 -10 -9z"/>
<path d="M6970 6950 c-18 -18 -20 -33 -20 -165 0 -132 2 -147 20 -165 19 -19
33 -20 525 -20 492 0 506 1 525 20 18 18 20 33 20 165 0 132 -2 147 -20 165
-19 19 -33 20 -525 20 -492 0 -506 -1 -525 -20z m421 -120 c13 -7 19 -21 19
-43 0 -39 -15 -57 -47 -57 -39 0 -58 64 -27 94 18 19 28 20 55 6z m157 -8
c-16 -2 -28 -9 -28 -18 0 -8 11 -15 28 -15 l27 -2 -27 -4 c-35 -5 -37 -33 -3
-33 14 0 25 -4 25 -10 0 -5 -13 -10 -30 -10 -29 0 -30 1 -30 49 0 51 14 65 50
52 9 -4 5 -7 -12 -9z m110 6 c7 -7 12 -16 12 -22 0 -6 -5 -5 -12 2 -30 30 -68
-1 -52 -43 5 -13 14 -15 35 -11 36 7 39 -11 4 -20 -34 -8 -55 11 -55 52 0 45
40 70 68 42z m166 6 c25 -10 19 -22 -9 -16 -32 6 -33 -15 -1 -28 32 -12 41
-28 26 -45 -16 -19 -44 -19 -60 0 -11 13 -8 14 19 9 34 -7 44 10 12 21 -11 3
-25 13 -32 21 -11 14 -10 18 6 30 22 16 19 16 39 8z m-610 -20 c8 -21 -11 -44
-35 -44 -13 0 -19 -7 -19 -21 0 -11 -4 -17 -10 -14 -5 3 -10 26 -10 51 0 43 0
44 34 44 22 0 36 -6 40 -16z m89 4 c2 -7 0 -21 -5 -30 -5 -11 -5 -26 2 -38 7
-13 7 -20 1 -20 -6 0 -15 9 -21 20 -6 11 -15 20 -20 20 -6 0 -10 -9 -10 -20 0
-11 -4 -20 -10 -20 -5 0 -10 23 -10 50 l0 50 34 0 c19 0 36 -6 39 -12z m168
-81 c-11 -11 -41 -3 -41 12 0 5 9 7 20 4 18 -5 20 0 22 38 l1 44 4 -44 c3 -24
0 -48 -6 -54z m277 86 c-14 -3 -18 -15 -18 -49 0 -24 -4 -44 -10 -44 -5 0 -10
20 -10 44 0 34 -4 46 -17 49 -10 3 2 5 27 5 25 0 37 -2 28 -5z"/>
<path d="M7347 6813 c-12 -11 -8 -50 6 -62 23 -18 51 10 43 42 -6 26 -33 37
-49 20z"/>
<path d="M7160 6800 c0 -15 5 -20 18 -18 9 2 17 10 17 18 0 8 -8 16 -17 18
-13 2 -18 -3 -18 -18z"/>
<path d="M7250 6806 c0 -10 9 -16 21 -16 24 0 21 23 -4 28 -10 2 -17 -3 -17
-12z"/>
<path d="M8159 6951 c-23 -19 -24 -24 -24 -164 0 -128 2 -147 19 -166 19 -21
23 -21 525 -21 278 0 511 4 517 8 27 18 34 56 34 182 0 126 -1 132 -25 155
l-24 25 -499 0 c-477 0 -501 -1 -523 -19z m166 -127 c19 -20 12 -32 -10 -14
-23 19 -47 5 -43 -27 2 -23 8 -28 31 -28 33 1 30 -19 -3 -23 -43 -7 -68 59
-34 92 20 20 38 20 59 0z m96 6 c13 -7 19 -21 19 -43 0 -39 -15 -57 -47 -57
-39 0 -58 64 -27 94 18 19 28 20 55 6z m243 -6 c32 -31 10 -94 -33 -94 -26 0
-41 21 -41 57 0 47 43 69 74 37z m431 0 c9 -9 13 -19 10 -22 -3 -4 -10 0 -14
7 -16 24 -46 8 -49 -27 -3 -29 -1 -32 22 -32 14 0 26 5 26 10 0 6 -4 10 -10
10 -5 0 -10 5 -10 10 0 6 9 10 20 10 13 0 20 -7 20 -18 0 -25 -19 -42 -47 -42
-39 0 -58 64 -27 94 20 20 38 20 59 0z m-618 -26 l11 -33 7 33 c4 17 13 32 20
32 7 0 16 -15 20 -32 l7 -33 11 33 c15 49 27 38 13 -14 -13 -53 -27 -58 -40
-13 l-10 32 -10 -31 c-15 -45 -29 -41 -42 12 -14 52 -2 63 13 14z m288 -21 c1
-47 0 -48 -16 -28 -22 27 -37 27 -42 -1 -2 -13 -5 1 -6 30 l-1 53 33 -3 c31
-3 32 -4 32 -51z m45 23 c4 0 13 7 20 15 7 8 17 15 23 15 5 0 2 -9 -7 -19 -17
-18 -17 -22 -2 -43 24 -33 19 -45 -7 -20 -29 28 -35 27 -40 0 -2 -13 -4 2 -4
32 -1 30 1 47 4 38 2 -10 8 -18 13 -18z m90 -20 c0 -27 -4 -50 -10 -50 -5 0
-10 23 -10 50 0 28 5 50 10 50 6 0 10 -22 10 -50z m57 20 c9 -16 21 -30 26
-30 5 0 7 14 5 30 -3 17 -1 30 4 30 4 0 8 -24 8 -52 l-1 -53 -34 40 -34 39 -4
-39 c-3 -36 -4 -34 -5 13 -2 59 9 66 35 22z"/>
<path d="M8377 6813 c-12 -11 -8 -50 6 -62 23 -18 51 10 43 42 -6 26 -33 37
-49 20z"/>
<path d="M8611 6806 c-15 -17 -7 -52 14 -59 19 -8 37 17 33 45 -4 27 -30 35
-47 14z"/>
<path d="M8710 6805 c0 -8 9 -15 20 -15 11 0 20 7 20 15 0 8 -9 15 -20 15 -11
0 -20 -7 -20 -15z"/>
<path d="M9342 6947 c-20 -22 -22 -33 -22 -165 0 -129 2 -144 20 -162 19 -19
33 -20 528 -20 480 0 510 1 525 18 14 16 17 43 17 165 0 134 -2 149 -20 167
-19 19 -33 20 -523 20 l-504 0 -21 -23z m336 -141 c-1 -11 1 -27 6 -34 12 -19
-14 -43 -43 -40 -23 3 -26 8 -29 50 -2 38 0 47 15 50 33 7 54 -3 51 -26z m96
21 c21 -16 24 -60 6 -82 -7 -8 -23 -15 -36 -15 -40 0 -59 63 -28 94 19 19 35
20 58 3z m420 7 c25 -10 19 -22 -9 -16 -32 6 -33 -15 -1 -28 32 -12 41 -28 26
-45 -16 -19 -44 -19 -60 0 -14 17 -7 19 20 5 13 -7 21 -7 26 2 4 6 2 14 -4 16
-6 2 -22 12 -34 23 -23 19 -23 19 -4 34 23 17 20 17 40 9z m-615 -41 c7 -21
15 -44 17 -50 3 -7 1 -13 -5 -13 -6 0 -11 7 -11 15 0 21 -37 19 -49 -2 -18
-33 -20 -7 -3 40 9 26 22 47 28 47 6 0 16 -17 23 -37z m251 -4 c0 -36 2 -40
23 -37 18 2 23 10 25 41 2 20 6 37 10 37 12 0 13 -47 2 -75 -12 -31 -54 -35
-70 -6 -13 25 -13 81 0 81 6 0 10 -18 10 -41z m148 34 c-13 -3 -18 -15 -18
-43 0 -21 -4 -42 -10 -45 -6 -4 -10 11 -10 39 0 34 -4 46 -17 49 -10 3 2 5 27
5 25 0 37 -2 28 -5z m82 -32 c0 -24 5 -41 14 -44 21 -8 36 13 36 50 0 18 4 33
9 33 11 0 8 -70 -3 -88 -9 -16 -49 -15 -64 0 -14 14 -16 88 -2 88 6 0 10 -18
10 -39z"/>
<path d="M9630 6805 c0 -10 7 -15 18 -13 21 4 19 22 -2 26 -10 2 -16 -3 -16
-13z"/>
<path d="M9630 6766 c0 -10 9 -16 21 -16 24 0 21 23 -4 28 -10 2 -17 -3 -17
-12z"/>
<path d="M9724 6806 c-10 -26 1 -51 22 -54 24 -3 38 20 29 49 -7 22 -43 25
-51 5z"/>
<path d="M9550 6793 c0 -13 5 -23 10 -23 13 0 13 11 0 30 -8 12 -10 11 -10 -7z"/>
<path d="M10530 6950 c-18 -18 -20 -33 -20 -169 0 -144 1 -151 22 -165 20 -14
86 -16 525 -16 490 0 504 1 523 20 18 18 20 33 20 163 0 137 -1 144 -23 165
-23 22 -24 22 -525 22 -489 0 -503 -1 -522 -20z m268 -122 c7 -7 12 -16 12
-22 0 -6 -5 -5 -12 2 -19 19 -45 14 -51 -9 -10 -36 3 -52 35 -45 21 4 28 2 26
-7 -6 -17 -46 -21 -64 -7 -20 18 -18 77 4 89 23 14 36 13 50 -1z m103 2 c13
-7 19 -21 19 -43 0 -38 -15 -57 -45 -57 -29 0 -45 19 -45 51 0 27 22 59 41 59
6 0 19 -5 30 -10z m202 -8 c-20 -3 -23 -10 -25 -50 l-2 -47 -3 48 c-3 33 -8
47 -19 47 -7 0 -14 3 -14 8 0 4 19 5 43 3 26 -3 33 -6 20 -9z m168 8 c10 -6
19 -16 19 -22 0 -9 -3 -9 -12 0 -30 30 -68 -1 -52 -43 5 -13 14 -15 35 -11 36
7 39 -11 4 -20 -15 -4 -32 -1 -40 6 -21 17 -19 76 3 89 21 13 20 13 43 1z
m-289 -32 l23 -33 6 35 c5 30 7 27 7 -20 l1 -55 -33 39 -33 38 5 -30 c2 -16
-1 -33 -7 -36 -7 -5 -11 9 -11 43 0 28 4 51 9 51 5 0 20 -15 33 -32z m202 -15
c9 -25 14 -49 11 -51 -2 -3 -7 3 -11 12 -8 21 -40 21 -53 -1 -18 -33 -20 -7
-3 40 9 26 22 47 28 47 7 0 19 -21 28 -47z m184 40 c-14 -3 -18 -15 -18 -49 0
-24 -4 -44 -10 -44 -5 0 -10 20 -10 44 0 34 -4 46 -17 49 -10 3 2 5 27 5 25 0
37 -2 28 -5z"/>
<path d="M10857 6813 c-13 -12 -7 -61 8 -67 19 -7 48 22 41 41 -3 8 -6 19 -6
24 0 10 -33 12 -43 2z"/>
<path d="M11150 6786 c0 -9 5 -16 10 -16 6 0 10 4 10 9 0 6 -4 13 -10 16 -5 3
-10 -1 -10 -9z"/>
<path d="M840 6805 c0 -29 29 -35 50 -10 16 19 4 35 -26 35 -19 0 -24 -5 -24
-25z"/>
<path d="M11810 6794 c0 -9 5 -14 12 -12 18 6 21 28 4 28 -9 0 -16 -7 -16 -16z"/>
<path d="M11888 6783 c7 -3 16 -2 19 1 4 3 -2 6 -13 5 -11 0 -14 -3 -6 -6z"/>
<path d="M11952 6774 c4 -21 22 -23 26 -1 2 10 -3 17 -13 17 -10 0 -15 -6 -13
-16z"/>
<path d="M12168 6783 c7 -3 16 -2 19 1 4 3 -2 6 -13 5 -11 0 -14 -3 -6 -6z"/>
<path d="M12400 6770 c0 -11 7 -20 15 -20 8 0 15 9 15 20 0 11 -7 20 -15 20
-8 0 -15 -9 -15 -20z"/>
<path d="M2430 4065 l0 -45 38 0 c41 0 62 14 62 41 0 28 -29 49 -66 49 -34 0
-34 0 -34 -45z"/>
<path d="M3160 4090 c-39 -39 -38 -126 3 -155 55 -39 117 3 117 80 0 79 -71
124 -120 75z"/>
<path d="M3642 4103 c-7 -3 -19 -18 -27 -33 -50 -96 39 -197 110 -125 20 19
25 34 25 74 0 42 -4 53 -26 70 -26 20 -55 25 -82 14z"/>
<path d="M4660 4092 c-16 -13 -24 -32 -27 -69 -5 -45 -2 -55 20 -77 55 -54
127 -15 127 69 0 79 -66 121 -120 77z"/>
<path d="M5460 4065 l0 -45 38 0 c43 0 62 14 62 47 0 26 -27 43 -69 43 -30 0
-31 -1 -31 -45z"/>
<path d="M6492 4041 c-16 -52 -16 -51 19 -51 32 0 33 2 8 68 -11 30 -14 28
-27 -17z"/>
<path d="M8692 4088 c-11 -13 -24 -35 -27 -50 -9 -34 11 -95 35 -108 71 -38
139 38 110 125 -19 58 -79 74 -118 33z"/>
<path d="M4080 4020 c-10 -19 -8 -20 35 -20 43 0 45 1 35 20 -6 12 -21 20 -35
20 -14 0 -29 -8 -35 -20z"/>
<path d="M5776 4024 c-33 -33 -10 -104 33 -104 27 0 41 21 41 60 0 56 -39 79
-74 44z"/>
<path d="M7497 4033 c-19 -19 -5 -33 33 -33 41 0 49 7 28 28 -13 13 -50 16
-61 5z"/>
<path d="M7990 4020 c-10 -19 -8 -20 35 -20 46 0 54 7 33 28 -19 19 -56 14
-68 -8z"/>
<path d="M8272 4028 c-17 -17 -15 -83 2 -98 42 -34 90 20 70 78 -10 30 -50 42
-72 20z"/>
<path d="M8951 4021 c-26 -48 -3 -105 39 -99 54 7 52 110 -2 116 -18 2 -30 -3
-37 -17z"/>
<path d="M9161 4021 c-16 -28 -14 -76 3 -91 42 -34 90 20 70 78 -12 35 -57 43
-73 13z"/>
<path d="M9360 4021 c-23 -44 -4 -101 33 -101 33 0 47 19 47 60 0 20 -5 41
-12 48 -18 18 -56 14 -68 -7z"/>
<path d="M10506 4024 c-9 -24 -9 -24 34 -24 41 0 49 7 28 28 -17 17 -55 15
-62 -4z"/>
<path d="M1960 3571 c0 -35 12 -45 46 -37 20 5 25 12 22 34 -2 22 -9 28 -35
30 -31 3 -33 1 -33 -27z"/>
<path d="M4312 3555 c-15 -32 -12 -38 16 -33 18 3 19 6 8 32 l-12 29 -12 -28z"/>
<path d="M8885 3543 c-20 -19 -16 -52 7 -67 25 -15 53 14 44 47 -8 32 -31 41
-51 20z"/>
<path d="M9070 3564 c0 -32 2 -35 26 -32 55 6 59 68 4 68 -28 0 -30 -3 -30
-36z"/>
<path d="M9696 3584 c-22 -21 -20 -77 2 -97 41 -37 86 -11 86 48 0 18 -6 40
-13 49 -17 20 -55 21 -75 0z"/>
<path d="M710 3545 c-16 -19 -9 -56 12 -69 25 -15 53 14 44 47 -7 28 -40 41
-56 22z"/>
<path d="M1395 3543 c-20 -19 -16 -52 7 -67 25 -15 53 14 44 47 -8 32 -31 41
-51 20z"/>
<path d="M2106 3545 c-29 -30 -14 -75 26 -75 34 0 35 76 1 87 -6 2 -18 -3 -27
-12z"/>
<path d="M2310 3545 c-13 -16 -2 -24 33 -22 22 1 22 14 -2 26 -14 8 -22 7 -31
-4z"/>
<path d="M2690 3484 c0 -10 7 -14 22 -12 32 5 35 28 4 28 -17 0 -26 -5 -26
-16z"/>
<path d="M3920 3484 c0 -10 7 -14 22 -12 32 5 35 28 4 28 -17 0 -26 -5 -26
-16z"/>
<path d="M4957 3544 c-13 -14 -7 -20 21 -18 15 0 27 5 27 10 0 11 -38 17 -48
8z"/>
<path d="M5167 3549 c-21 -12 -22 -52 -2 -69 12 -10 18 -10 30 0 33 27 8 89
-28 69z"/>
<path d="M5671 3546 c-7 -8 -11 -27 -9 -43 2 -22 8 -28 28 -28 20 0 26 6 28
28 3 27 -12 57 -28 57 -4 0 -13 -6 -19 -14z"/>
<path d="M6013 3552 c-19 -12 -24 -47 -9 -68 19 -25 50 -9 54 29 3 27 -25 52
-45 39z"/>
<path d="M6210 3545 c-13 -16 -2 -24 33 -22 20 0 22 8 5 25 -16 16 -23 15 -38
-3z"/>
<path d="M6469 3544 c-6 -8 -8 -14 -3 -15 5 0 19 -2 32 -5 14 -2 22 1 22 10 0
19 -37 27 -51 10z"/>
<path d="M7023 3553 c-7 -3 -13 -11 -13 -19 0 -16 45 -20 55 -5 7 12 -25 30
-42 24z"/>
<path d="M7371 3546 c-7 -8 -11 -27 -9 -43 2 -22 8 -28 28 -28 20 0 26 6 28
28 3 27 -12 57 -28 57 -4 0 -13 -6 -19 -14z"/>
<path d="M8023 3502 c-13 -2 -23 -10 -23 -18 0 -19 39 -18 47 1 7 20 4 22 -24
17z"/>
<path d="M8265 3546 c-21 -15 -17 -55 7 -70 25 -15 53 14 44 47 -7 30 -28 40
-51 23z"/>
<path d="M8620 3484 c0 -10 7 -14 22 -12 32 5 35 28 4 28 -17 0 -26 -5 -26
-16z"/>
<path d="M9295 3543 c-20 -19 -16 -52 7 -67 25 -15 53 14 44 47 -8 32 -31 41
-51 20z"/>
<path d="M9877 3548 c-31 -17 -15 -78 20 -78 18 0 33 33 27 58 -7 25 -25 33
-47 20z"/>
<path d="M10011 3546 c-20 -24 -10 -70 16 -74 30 -4 46 26 30 58 -15 29 -31
35 -46 16z"/>
<path d="M10145 3546 c-25 -18 -17 -70 12 -74 40 -6 56 67 19 81 -8 3 -22 0
-31 -7z"/>
<path d="M10882 3548 c-19 -19 -14 -28 11 -24 12 3 26 5 31 5 10 1 -13 31 -23
31 -4 0 -12 -5 -19 -12z"/>
<path d="M11238 3534 c-14 -30 -1 -59 27 -59 10 0 23 8 28 17 14 21 -6 68 -28
68 -8 0 -21 -12 -27 -26z"/>
<path d="M11681 3546 c-7 -8 -11 -27 -9 -43 2 -22 8 -28 28 -28 20 0 26 6 28
28 3 27 -12 57 -28 57 -4 0 -13 -6 -19 -14z"/>
<path d="M11903 3552 c-19 -12 -24 -47 -9 -68 19 -25 50 -9 54 29 3 27 -25 52
-45 39z"/>
<path d="M12034 3552 c-33 -22 -16 -88 22 -81 23 5 32 53 13 75 -13 16 -19 17
-35 6z"/>
<path d="M12225 3490 c-8 -13 20 -24 40 -16 8 3 15 10 15 16 0 13 -47 13 -55
0z"/>
<path d="M12440 3550 c-7 -4 -9 -13 -6 -19 10 -16 46 -14 46 3 0 17 -23 27
-40 16z"/>
<path d="M6247 3183 c-15 -14 -6 -23 24 -23 27 0 30 2 19 15 -13 16 -32 19
-43 8z"/>
<path d="M6477 3184 c-15 -15 -6 -24 24 -24 20 0 29 4 27 13 -5 14 -40 21 -51
11z"/>
<path d="M6867 3184 c-14 -14 -6 -24 19 -24 16 0 24 5 22 13 -5 14 -31 21 -41
11z"/>
</g>
</svg>
