<?xml version="1.0" standalone="no"?>
<!DOCTYPE svg PUBLIC "-//W3C//DTD SVG 20010904//EN"
 "http://www.w3.org/TR/2001/REC-SVG-20010904/DTD/svg10.dtd">
<svg version="1.0" xmlns="http://www.w3.org/2000/svg"
 width="1437.000000pt" height="769.000000pt" viewBox="0 0 1437.000000 769.000000"
 preserveAspectRatio="xMidYMid meet">

<g transform="translate(0.000000,769.000000) scale(0.100000,-0.100000)"
fill="#000000" stroke="none">
<path d="M7180 3845 l0 -3845 3420 0 3420 0 0 170 0 170 175 0 175 0 0 3675 0
3675 -3595 0 -3595 0 0 -3845z m4035 2611 c264 -78 473 -247 609 -491 50 -91
106 -232 146 -370 35 -121 46 -161 75 -275 14 -58 30 -116 34 -130 5 -14 14
-47 20 -75 152 -686 224 -988 308 -1290 57 -207 147 -497 163 -527 6 -10 10
-23 10 -29 0 -6 6 -25 14 -42 7 -18 19 -47 26 -65 22 -56 13 -58 -270 -45
-150 6 -154 7 -186 35 -61 54 -184 270 -253 445 -85 215 -150 469 -271 1073
-115 568 -147 693 -221 842 -50 102 -84 150 -161 225 -124 122 -248 174 -408
174 -78 0 -109 -5 -176 -28 -205 -72 -401 -231 -550 -445 -81 -118 -234 -428
-289 -588 -120 -350 -174 -707 -175 -1161 0 -224 11 -384 34 -509 l12 -65
-211 0 c-159 0 -216 3 -228 13 -29 24 -36 101 -52 577 -25 719 135 1410 447
1925 94 156 189 290 206 290 4 0 15 12 24 28 21 35 186 197 258 254 132 104
276 182 420 229 152 50 217 59 395 55 138 -3 172 -7 250 -30z m-1716 -4026
c21 -36 42 -76 46 -90 4 -14 13 -34 20 -45 6 -11 20 -45 30 -75 19 -54 19 -55
27 -25 4 17 18 98 31 180 l23 150 84 -3 c54 -2 93 -8 107 -18 47 -30 67 -128
78 -375 3 -74 8 -173 11 -221 4 -68 2 -88 -8 -88 -7 0 -57 14 -110 31 l-98 31
-1 66 c-1 37 -1 86 1 110 1 25 -3 42 -9 42 -6 0 -11 -8 -11 -17 0 -22 -36 -83
-59 -100 -22 -17 -82 -16 -107 1 -11 8 -29 39 -39 70 -10 30 -22 53 -27 50 -4
-3 -8 -40 -8 -83 0 -43 -2 -80 -5 -82 -4 -5 -167 9 -171 14 -1 1 -5 118 -8
259 l-8 257 69 35 68 35 18 -22 c10 -11 36 -51 56 -87z m1773 -40 c9 -80 20
-210 24 -290 6 -134 5 -149 -14 -192 -15 -35 -32 -53 -68 -74 -44 -26 -58 -29
-140 -29 -84 0 -94 2 -134 30 -24 17 -56 50 -72 75 -28 44 -55 116 -47 124 7
7 166 32 178 28 6 -2 21 -22 32 -43 11 -22 28 -43 37 -46 9 -4 20 -11 24 -17
11 -16 28 41 28 94 l0 48 -77 -5 c-75 -5 -79 -4 -120 26 -23 18 -51 51 -62 74
-22 46 -61 187 -61 222 0 31 27 52 99 75 67 21 92 25 89 13 -7 -29 47 -231 67
-252 8 -8 21 -11 31 -7 14 5 16 16 10 79 -3 39 -9 91 -12 114 -5 37 -3 43 20
58 28 19 113 44 136 42 12 -2 19 -34 32 -147z m-2634 93 c6 -27 13 -66 16 -88
3 -22 15 -89 26 -150 27 -152 26 -209 -6 -273 -28 -56 -93 -107 -151 -118
-144 -27 -310 52 -365 174 -11 24 -18 45 -16 47 2 2 40 7 83 11 l80 6 66 -51
c37 -27 78 -53 92 -56 20 -6 25 -2 29 19 3 14 3 48 0 75 l-4 49 -73 -5 c-126
-10 -210 36 -265 146 -24 49 -53 172 -42 182 4 4 41 11 82 17 41 6 89 14 105
17 l31 7 17 -74 c31 -130 74 -193 104 -152 16 22 16 60 -1 147 -9 50 -10 70
-2 73 22 7 161 42 173 43 6 1 16 -20 21 -46z m2128 -68 c13 -435 14 -563 7
-567 -4 -2 -48 -2 -98 0 l-90 5 -85 116 -85 116 -3 -118 -3 -117 -84 0 -85 0
0 299 0 299 48 7 c27 4 60 2 77 -5 35 -13 98 -79 128 -134 48 -86 66 -122 66
-133 1 -7 4 -13 9 -13 4 0 5 74 4 164 -4 189 -15 174 111 166 l80 -5 3 -80z
m1049 62 c12 -17 15 -64 15 -239 0 -207 -1 -220 -24 -271 -29 -66 -80 -126
-123 -143 -55 -24 -134 -18 -194 14 -122 64 -163 176 -185 508 l-7 102 107 1
106 2 1 -108 c0 -59 2 -119 5 -133 22 -124 63 -211 89 -190 30 25 37 80 31
232 -3 82 -9 166 -12 188 -7 44 -7 44 91 58 62 10 81 5 100 -21z m-3906 -45
c34 -78 99 -221 117 -254 8 -14 14 -34 14 -43 0 -9 7 -23 15 -32 8 -8 12 -19
9 -25 -4 -6 -1 -14 6 -18 7 -4 13 -19 13 -34 0 -14 4 -26 10 -26 6 0 8 -3 4
-6 -3 -3 1 -27 9 -52 7 -26 14 -61 14 -78 l0 -31 -94 -13 c-52 -7 -99 -10
-104 -6 -5 3 -13 27 -16 53 -12 86 -10 83 -87 83 -63 0 -70 -2 -78 -22 -19
-50 -47 -63 -129 -60 -42 1 -78 5 -81 8 -6 6 68 234 81 249 4 5 8 17 8 27 0
10 5 18 10 18 6 0 10 13 10 29 0 35 18 91 36 112 8 8 14 27 14 40 0 14 4 29 9
35 5 5 11 20 13 34 2 21 13 28 73 46 39 12 77 23 85 23 9 0 25 -22 39 -57z
m1170 -60 c176 -383 215 -488 194 -519 -11 -16 -126 -45 -160 -41 -27 3 -31 9
-53 97 l-11 44 -51 -6 c-58 -7 -94 -28 -110 -63 -7 -15 -17 -23 -26 -19 -7 3
-47 5 -88 5 -51 0 -74 4 -74 12 0 6 25 73 55 147 61 153 93 262 103 353 l7 61
65 23 c36 12 72 23 80 23 10 0 34 -42 69 -117z m3300 -221 l2 -328 -76 -6
c-42 -3 -88 -1 -103 4 -28 10 -103 105 -122 153 -6 16 -17 38 -26 49 -14 20
-15 14 -13 -83 l3 -105 -83 -11 c-59 -7 -84 -7 -86 0 -8 25 -12 587 -4 591 4
3 37 8 73 12 60 5 66 4 88 -20 36 -39 53 -61 53 -68 0 -10 107 -200 111 -196
2 2 -3 73 -11 158 -8 85 -15 157 -15 161 0 10 37 15 126 17 l81 1 2 -329z
m396 300 c74 -33 152 -119 128 -141 -17 -17 -126 -70 -144 -70 -10 0 -33 13
-51 29 -50 43 -69 45 -106 12 -28 -26 -32 -36 -31 -78 0 -26 6 -63 12 -81 15
-41 85 -121 126 -145 l31 -18 0 60 0 60 -37 3 -38 3 50 51 c41 40 64 54 124
73 40 13 76 20 79 16 8 -8 18 -312 14 -406 l-4 -67 -85 -38 c-48 -22 -90 -40
-94 -42 -4 -2 -11 24 -15 57 -6 56 -9 61 -30 61 -14 0 -32 4 -42 9 -9 6 -45
22 -79 37 -149 64 -222 224 -179 392 18 71 49 136 80 170 21 24 81 58 126 73
35 11 117 1 165 -20z m506 -22 c111 -50 136 -50 201 2 50 39 54 40 107 35 75
-7 261 -49 261 -58 0 -14 -63 -79 -91 -94 -15 -7 -55 -14 -89 -14 -33 0 -60
-3 -60 -6 0 -3 5 -25 11 -50 l11 -44 89 0 c49 0 89 -3 89 -7 0 -4 -7 -33 -16
-65 l-17 -58 -51 -7 c-28 -4 -54 -6 -58 -5 -5 1 -8 -20 -8 -48 l0 -50 110 0
c125 0 117 8 97 -100 l-12 -65 -179 2 c-98 1 -180 4 -182 6 -2 2 -6 39 -9 83
-13 179 -34 332 -53 379 -10 28 -22 59 -26 70 -8 20 -16 5 -49 -87 -6 -16 -11
-15 -72 7 -36 14 -70 25 -75 25 -29 0 -1 -44 75 -116 47 -45 90 -95 95 -110
37 -96 -14 -219 -104 -254 -24 -9 -48 -7 -124 11 -91 20 -201 72 -202 94 0 6
20 45 45 88 l46 77 57 -38 c55 -37 122 -61 122 -43 0 19 -44 61 -111 107 -81
56 -109 99 -109 169 0 110 94 225 170 208 14 -3 64 -23 111 -44z m867 5 c91
-45 158 -144 169 -250 8 -75 -29 -153 -92 -193 -26 -17 -60 -33 -76 -36 l-29
-7 0 -79 0 -79 -90 0 c-49 0 -90 3 -91 8 0 4 -2 34 -5 67 -2 33 -9 88 -15 122
-6 35 -8 74 -5 87 3 14 1 28 -4 31 -6 4 -10 28 -9 53 1 49 -3 88 -21 206 -6
38 -7 73 -3 77 11 10 55 16 144 18 63 1 84 -3 127 -25z"/>
<path d="M8960 2080 c0 -5 5 -10 11 -10 5 0 7 5 4 10 -3 6 -8 10 -11 10 -2 0
-4 -4 -4 -10z"/>
<path d="M14084 2253 c2 -10 7 -51 11 -90 4 -40 9 -73 11 -73 2 0 16 8 31 18
22 13 27 23 25 47 -5 49 -21 80 -52 98 -28 17 -29 17 -26 0z"/>
<path d="M3148 5928 l-28 -10 0 -114 0 -114 30 0 c17 0 33 0 38 0 4 -1 8 8 10
20 4 24 17 26 26 5 8 -22 34 -18 62 10 14 14 26 25 27 25 2 0 4 -15 5 -32 2
-34 40 -78 68 -78 11 0 14 20 14 108 0 139 -15 176 -76 180 l-42 3 -7 -65 c-3
-36 -10 -68 -14 -70 -4 -3 -23 27 -42 65 -18 39 -36 72 -39 74 -3 1 -17 -2
-32 -7z"/>
<path d="M3910 5931 c-22 -6 -24 -12 -22 -51 3 -51 -13 -88 -23 -55 -29 94
-74 123 -95 60 -21 -64 27 -128 97 -129 31 -1 33 -3 33 -34 l0 -34 -34 21
c-39 24 -86 28 -86 7 0 -24 49 -74 84 -86 44 -14 80 0 102 41 13 26 15 50 11
118 -8 108 -16 151 -31 150 -6 -1 -22 -4 -36 -8z"/>
<path d="M2780 5921 c-21 -5 -25 -12 -25 -40 0 -49 -22 -50 -36 -2 -13 43 -13
43 -81 24 -41 -11 -4 -107 49 -130 19 -7 46 -12 60 -11 23 3 26 -1 29 -29 3
-38 3 -38 -38 -17 -79 41 -123 36 -87 -9 55 -71 168 -76 198 -10 14 31 14 104
0 176 -12 60 -15 62 -69 48z"/>
<path d="M3670 5853 l0 -78 -26 46 c-22 39 -82 89 -107 89 -3 0 -7 -61 -9
-135 -2 -109 0 -134 10 -130 8 3 25 5 38 5 22 0 24 4 24 52 l0 51 30 -41 c16
-23 39 -46 50 -52 22 -12 77 -10 73 3 -2 4 -3 66 -3 137 l0 130 -40 0 -40 0 0
-77z"/>
<path d="M2979 5905 c-14 -8 -37 -35 -51 -62 -27 -50 -63 -171 -54 -181 3 -3
30 0 59 7 59 13 83 8 92 -18 4 -13 14 -16 40 -13 19 2 38 8 41 13 4 7 -88 253
-100 266 0 1 -12 -5 -27 -12z"/>
<path d="M4118 5818 c-4 -131 -20 -138 -39 -16 l-14 93 -43 3 -44 3 7 -68 c13
-140 38 -188 107 -199 27 -5 40 -1 66 21 37 31 52 77 52 163 0 82 -11 102 -55
102 l-34 0 -3 -102z"/>
<path d="M4374 5912 c-20 -3 -21 -8 -17 -75 l4 -72 -26 48 c-24 45 -68 77
-105 77 -11 0 -14 -160 -4 -220 6 -33 8 -35 37 -32 32 4 32 4 29 55 -2 44 -1
49 9 32 34 -56 72 -95 94 -95 29 0 34 7 43 62 l7 42 23 -37 c14 -24 36 -43 59
-53 21 -8 48 -27 60 -42 l22 -26 28 20 c35 26 45 64 37 146 l-6 66 -32 -10
c-51 -18 -87 -58 -51 -58 9 0 15 -9 15 -25 0 -22 -3 -24 -19 -15 -29 15 -61
65 -61 94 0 31 26 47 57 35 24 -9 83 7 83 22 0 6 -11 21 -25 34 -51 52 -158
15 -181 -63 -7 -23 -9 -18 -14 32 -5 63 -10 67 -66 58z"/>
<path d="M2454 5903 c-14 -10 -88 -232 -80 -240 3 -4 29 -1 57 5 70 17 78 15
91 -14 11 -23 16 -25 51 -21 21 3 40 7 42 9 2 2 -18 62 -44 133 -46 123 -49
130 -77 133 -16 1 -34 -1 -40 -5z m46 -153 c0 -5 -4 -10 -10 -10 -5 0 -10 5
-10 10 0 6 5 10 10 10 6 0 10 -4 10 -10z"/>
<path d="M4754 5896 c-34 -15 -44 -32 -44 -78 0 -23 11 -41 48 -75 26 -25 38
-42 27 -38 -42 16 -77 18 -86 4 -13 -20 -12 -24 17 -53 54 -54 154 -21 154 50
0 28 -9 43 -46 80 -50 48 -53 61 -10 44 39 -15 46 -13 46 13 0 28 -9 41 -37
56 -27 14 -30 14 -69 -3z"/>
<path d="M5098 5904 c-21 -6 -21 -4 -7 -136 16 -154 13 -148 57 -148 37 0 38
0 34 35 -4 30 -1 36 21 44 97 37 60 196 -48 206 -22 2 -48 1 -57 -1z m100
-133 c-2 -8 -9 -16 -15 -19 -9 -2 -13 8 -13 35 1 36 1 37 16 18 8 -11 13 -26
12 -34z"/>
<path d="M4903 5884 l-21 -19 17 -115 17 -115 73 -5 c40 -3 74 -3 76 0 1 3 5
17 9 33 6 27 6 27 -44 27 -47 0 -50 2 -50 25 0 16 6 25 15 25 17 0 55 35 55
50 0 6 -15 10 -34 10 -22 0 -36 6 -40 16 -9 23 -8 24 18 24 28 0 75 34 63 46
-4 5 -36 10 -70 12 -50 3 -66 0 -84 -14z"/>
<path d="M1650 4770 l0 -70 40 0 c22 0 40 5 40 10 0 6 -13 10 -30 10 l-30 0 0
60 c0 33 -4 60 -10 60 -6 0 -10 -30 -10 -70z"/>
<path d="M1980 4830 c0 -5 5 -10 10 -10 6 0 10 5 10 10 0 6 -4 10 -10 10 -5 0
-10 -4 -10 -10z"/>
<path d="M2190 4770 l0 -70 34 0 c45 0 66 22 66 70 0 48 -21 70 -66 70 l-34 0
0 -70z m74 34 c17 -43 -1 -84 -36 -84 -15 0 -18 9 -18 50 0 46 2 50 24 50 13
0 27 -7 30 -16z"/>
<path d="M2320 4829 c0 -5 5 -7 10 -4 6 3 10 8 10 11 0 2 -4 4 -10 4 -5 0 -10
-5 -10 -11z"/>
<path d="M2470 4830 c0 -5 5 -10 10 -10 6 0 10 5 10 10 0 6 -4 10 -10 10 -5 0
-10 -4 -10 -10z"/>
<path d="M2630 4830 c0 -5 5 -10 10 -10 6 0 10 5 10 10 0 6 -4 10 -10 10 -5 0
-10 -4 -10 -10z"/>
<path d="M1762 4798 c-13 -13 -16 -56 -6 -82 7 -19 55 -21 72 -4 7 7 12 26 12
43 0 36 -15 55 -45 55 -12 0 -26 -5 -33 -12z m56 -46 c3 -29 1 -32 -22 -32
-22 0 -26 5 -26 28 0 33 8 44 30 40 9 -2 16 -16 18 -36z"/>
<path d="M1876 4794 c-19 -18 -21 -65 -4 -82 7 -7 22 -12 35 -12 13 0 23 -5
23 -11 0 -7 -12 -10 -30 -7 -19 3 -29 1 -27 -6 2 -6 19 -11 38 -11 l34 0 3 73
3 72 -30 0 c-16 0 -37 -7 -45 -16z m52 -42 c3 -26 0 -32 -16 -32 -23 0 -35 24
-26 52 9 31 39 17 42 -20z"/>
<path d="M1980 4755 c0 -30 5 -55 10 -55 6 0 10 25 10 55 0 30 -4 55 -10 55
-5 0 -10 -25 -10 -55z"/>
<path d="M2025 4763 c2 -61 3 -63 14 -63 6 0 11 19 13 43 2 29 8 42 18 42 10
0 16 -13 18 -42 2 -24 8 -43 13 -43 6 0 9 22 7 53 l-3 52 -41 3 -40 3 1 -48z"/>
<path d="M2320 4755 c0 -30 5 -55 10 -55 6 0 10 25 10 55 0 30 -4 55 -10 55
-5 0 -10 -25 -10 -55z"/>
<path d="M2369 4794 c-14 -17 -6 -27 47 -61 17 -11 17 -12 -8 -12 -16 -1 -28
4 -28 10 0 5 -5 7 -10 4 -18 -11 10 -35 40 -35 28 0 46 22 34 42 -3 5 -17 13
-30 18 -27 10 -33 30 -9 30 8 0 15 -4 15 -10 0 -5 7 -10 15 -10 13 0 14 4 5
20 -13 24 -52 26 -71 4z"/>
<path d="M2470 4755 c0 -30 5 -55 10 -55 6 0 10 25 10 55 0 30 -4 55 -10 55
-5 0 -10 -25 -10 -55z"/>
<path d="M2514 4758 c3 -64 24 -76 28 -16 2 30 7 43 18 43 10 0 16 -13 18 -42
2 -24 8 -43 13 -43 6 0 9 22 7 53 l-3 52 -41 2 -41 2 1 -51z"/>
<path d="M2630 4755 c0 -30 5 -55 10 -55 6 0 10 25 10 55 0 30 -4 55 -10 55
-5 0 -10 -25 -10 -55z"/>
<path d="M1642 4318 c-1 -31 3 -52 14 -62 37 -37 67 -8 61 61 l-3 48 -2 -53
c-3 -88 -58 -82 -65 6 l-3 47 -2 -47z"/>
<path d="M1757 4323 c-15 -14 -6 -34 19 -43 14 -6 22 -14 19 -20 -9 -14 -32
-12 -38 3 -4 9 -6 9 -6 0 -1 -17 16 -25 39 -18 28 9 25 33 -5 41 -14 3 -25 13
-25 21 0 10 7 14 20 10 11 -3 18 -1 14 4 -6 11 -28 12 -37 2z"/>
<path d="M1840 4316 c-25 -31 13 -97 40 -70 8 8 4 10 -11 10 -12 -1 -24 5 -26
12 -3 8 6 12 26 12 34 0 36 2 21 31 -13 23 -33 25 -50 5z m44 -11 c4 -11 -1
-15 -19 -15 -24 0 -32 10 -18 23 11 12 31 8 37 -8z"/>
<path d="M1910 4300 c1 -24 1 -24 12 -5 6 11 16 23 22 27 6 4 1 6 -12 5 -17
-1 -22 -7 -22 -27z"/>
<path d="M1971 4281 l2 -46 6 40 c4 26 11 40 21 40 10 0 17 -14 21 -40 l7 -40
-2 45 c-1 42 -3 45 -28 46 -27 1 -28 -1 -27 -45z"/>
<path d="M2067 4323 c-4 -3 -7 -11 -7 -17 0 -6 4 -5 9 3 10 15 41 8 41 -9 0
-5 -8 -10 -19 -10 -29 0 -45 -24 -26 -40 9 -7 18 -10 22 -6 3 3 1 6 -5 6 -7 0
-12 7 -12 15 0 9 9 15 21 15 14 0 19 -5 16 -15 -4 -8 -2 -17 3 -20 14 -9 12
59 -2 73 -13 13 -31 16 -41 5z"/>
<path d="M2140 4311 c0 -25 6 -27 13 -6 4 8 2 17 -3 20 -6 4 -10 -3 -10 -14z"/>
<path d="M2179 4321 c8 -5 17 -26 21 -47 l8 -39 1 41 c1 30 -4 44 -15 48 -23
9 -31 7 -15 -3z"/>
<path d="M2232 4318 c9 -7 19 -29 21 -48 3 -26 4 -24 3 10 -1 36 -5 45 -21 48
-18 4 -19 3 -3 -10z"/>
<path d="M2290 4316 c-25 -31 13 -97 40 -70 8 8 4 10 -11 10 -12 -1 -24 5 -26
12 -3 8 6 12 26 12 32 0 41 16 19 38 -16 16 -33 15 -48 -2z m44 -11 c4 -11 -1
-15 -19 -15 -18 0 -23 4 -19 15 4 8 12 15 19 15 7 0 15 -7 19 -15z"/>
<path d="M2142 4260 c0 -14 2 -19 5 -12 2 6 2 18 0 25 -3 6 -5 1 -5 -13z"/>
<path d="M1911 4254 c0 -11 3 -14 6 -6 3 7 2 16 -1 19 -3 4 -6 -2 -5 -13z"/>
<path d="M1873 3840 c0 -30 2 -43 4 -27 2 15 2 39 0 55 -2 15 -4 2 -4 -28z"/>
<path d="M1930 3856 c0 -2 7 -7 16 -10 8 -3 12 -2 9 4 -6 10 -25 14 -25 6z"/>
<path d="M2020 3856 c0 -2 7 -7 16 -10 8 -3 12 -2 9 4 -6 10 -25 14 -25 6z"/>
<path d="M2240 3856 c0 -2 7 -7 16 -10 8 -3 12 -2 9 4 -6 10 -25 14 -25 6z"/>
<path d="M2340 3850 c8 -5 20 -10 25 -10 6 0 3 5 -5 10 -8 5 -19 10 -25 10 -5
0 -3 -5 5 -10z"/>
<path d="M2470 3856 c0 -2 7 -7 16 -10 8 -3 12 -2 9 4 -6 10 -25 14 -25 6z"/>
<path d="M1994 3835 c-10 -24 -1 -31 31 -24 l30 7 -29 1 c-21 1 -27 5 -22 16
3 8 3 15 0 15 -2 0 -7 -7 -10 -15z"/>
<path d="M2413 3805 c0 -22 2 -30 4 -17 2 12 2 30 0 40 -3 9 -5 -1 -4 -23z"/>
<path d="M2132 3810 c0 -14 2 -19 5 -12 2 6 2 18 0 25 -3 6 -5 1 -5 -13z"/>
<path d="M2440 3815 c0 -7 14 -9 35 -7 19 2 35 5 35 7 0 2 -16 5 -35 7 -21 2
-35 0 -35 -7z"/>
<path d="M2248 3813 c7 -3 16 -2 19 1 4 3 -2 6 -13 5 -11 0 -14 -3 -6 -6z"/>
<path d="M2361 3804 c0 -11 3 -14 6 -6 3 7 2 16 -1 19 -3 4 -6 -2 -5 -13z"/>
<path d="M2008 3778 c5 -5 16 -8 23 -6 8 3 3 7 -10 11 -17 4 -21 3 -13 -5z"/>
<path d="M2227 3779 c7 -7 15 -10 18 -7 3 3 -2 9 -12 12 -14 6 -15 5 -6 -5z"/>
<path d="M1838 3773 c7 -3 16 -2 19 1 4 3 -2 6 -13 5 -11 0 -14 -3 -6 -6z"/>
<path d="M2468 3773 c7 -3 16 -2 19 1 4 3 -2 6 -13 5 -11 0 -14 -3 -6 -6z"/>
<path d="M1651 3278 c1 -35 4 -51 6 -36 3 20 11 28 31 30 20 2 28 9 30 27 4
26 -12 41 -45 41 -22 0 -23 -4 -22 -62z m57 25 c3 -19 -1 -23 -22 -23 -21 0
-26 5 -26 26 0 21 4 25 23 22 14 -2 23 -11 25 -25z"/>
<path d="M2319 3318 c0 -7 -1 -30 -3 -50 -2 -21 0 -38 4 -38 3 0 7 23 9 50 1
28 0 50 -4 50 -3 0 -5 -6 -6 -12z"/>
<path d="M1750 3293 c-12 -15 -12 -16 0 -5 19 16 40 15 40 -2 0 -8 -12 -17
-26 -20 -37 -10 -28 -41 12 -43 30 -1 30 -1 25 40 -7 46 -29 59 -51 30z m40
-42 c0 -14 -18 -23 -30 -16 -6 4 -8 11 -5 16 8 12 35 12 35 0z"/>
<path d="M1837 3303 c-15 -14 -6 -33 18 -39 14 -3 25 -12 25 -20 0 -17 -22
-18 -39 -1 -11 10 -13 9 -9 -3 7 -21 52 -19 56 2 2 12 -6 21 -23 28 -30 11
-24 34 7 24 14 -4 18 -2 14 5 -8 12 -39 15 -49 4z"/>
<path d="M1922 3298 c-14 -14 2 -38 24 -38 8 0 14 -7 14 -15 0 -18 -21 -20
-38 -3 -9 9 -12 9 -12 1 0 -14 36 -27 50 -18 18 11 10 35 -16 45 -28 11 -23
35 7 27 11 -3 17 -1 13 4 -7 13 -28 11 -42 -3z"/>
<path d="M1996 3283 c4 -16 10 -37 15 -48 6 -18 9 -16 19 13 9 25 15 30 21 20
7 -10 9 -10 9 2 0 8 -4 21 -9 28 -6 10 -12 5 -21 -20 l-12 -33 -9 33 c-12 39
-22 43 -13 5z"/>
<path d="M2084 3295 c-3 -8 -4 -20 -2 -27 3 -7 7 -1 10 15 6 29 1 36 -8 12z"/>
<path d="M2119 3289 c-15 -29 3 -69 31 -69 28 0 46 40 31 69 -7 11 -20 21 -31
21 -11 0 -24 -10 -31 -21z m50 -8 c7 -13 6 -24 -4 -37 -13 -18 -15 -18 -30 -3
-14 13 -15 21 -6 38 14 26 27 27 40 2z"/>
<path d="M2212 3261 c1 -41 2 -42 5 -11 3 19 9 40 14 46 5 7 3 11 -6 11 -11 0
-15 -12 -13 -46z"/>
<path d="M2272 3298 c-24 -24 -8 -79 23 -78 5 0 2 5 -7 11 -10 5 -18 21 -18
34 0 13 8 29 18 34 9 6 12 11 7 11 -6 0 -16 -5 -23 -12z"/>
<path d="M2060 3235 c0 -8 5 -15 10 -15 6 0 10 7 10 15 0 8 -4 15 -10 15 -5 0
-10 -7 -10 -15z"/>
<path d="M1818 2863 c6 -2 18 -2 25 0 6 3 1 5 -13 5 -14 0 -19 -2 -12 -5z"/>
<path d="M2086 2831 c-4 -5 3 -7 14 -4 23 6 26 13 6 13 -8 0 -17 -4 -20 -9z"/>
<path d="M2422 2800 c0 -14 2 -19 5 -12 2 6 2 18 0 25 -3 6 -5 1 -5 -13z"/>
<path d="M1823 2803 c9 -2 23 -2 30 0 6 3 -1 5 -18 5 -16 0 -22 -2 -12 -5z"/>
<path d="M2087 2799 c7 -7 15 -10 18 -7 3 3 -2 9 -12 12 -14 6 -15 5 -6 -5z"/>
<path d="M2121 2774 c0 -11 3 -14 6 -6 3 7 2 16 -1 19 -3 4 -6 -2 -5 -13z"/>
<path d="M3402 1793 l-2 -63 38 2 c36 1 36 1 5 5 -31 4 -32 5 -36 61 l-3 57
-2 -62z"/>
<path d="M3665 1840 c-3 -5 -1 -10 4 -10 6 0 11 5 11 10 0 6 -2 10 -4 10 -3 0
-8 -4 -11 -10z"/>
<path d="M3492 1808 c-27 -27 -8 -78 30 -78 23 0 36 29 29 60 -8 28 -39 38
-59 18z m43 -34 c0 -32 -21 -39 -38 -12 -8 12 -7 21 3 32 19 24 35 14 35 -20z"/>
<path d="M3582 1808 c-27 -27 -7 -78 31 -78 10 0 15 -5 11 -11 -3 -6 -15 -9
-25 -6 -11 3 -19 1 -19 -4 0 -13 34 -11 48 3 7 7 12 33 12 58 0 41 -3 46 -23
48 -13 1 -29 -4 -35 -10z m46 -27 c2 -13 -1 -28 -7 -34 -17 -17 -45 15 -36 42
9 29 39 23 43 -8z"/>
<path d="M3660 1775 c0 -25 5 -45 10 -45 6 0 10 20 10 45 0 25 -4 45 -10 45
-5 0 -10 -20 -10 -45z"/>
<path d="M3700 1774 c0 -24 5 -44 10 -44 6 0 10 15 10 34 0 33 14 55 27 42 4
-3 7 -22 7 -41 1 -19 5 -35 9 -35 5 0 7 19 5 43 -3 40 -5 42 -35 44 -33 1 -33
1 -33 -43z"/>
<path d="M14168 206 c-40 -48 -48 -76 -33 -111 l13 -30 1 27 c1 29 17 46 24
26 2 -7 7 -10 11 -6 4 3 3 15 -3 26 -6 11 -7 22 -4 26 10 10 63 -46 63 -67 0
-16 3 -17 15 -7 31 26 8 84 -34 85 -12 0 -15 8 -13 33 4 40 -5 40 -40 -2z"/>
</g>
</svg>
